<svg width="414" height="896" fill="none" xmlns="http://www.w3.org/2000/svg">
  <path fill-rule="evenodd" clip-rule="evenodd" d="M526.201 295.128c28.031 10.28 58.943-1.306 88.767-2.692 42.654-1.982 92.946-33.353 126.797-7.328 32.276 24.815 9.198 80.101 19.193 119.568 8.102 31.995 24.174 60.567 34.371 91.956 11.927 36.712 47.442 75.341 31.384 110.442-17.341 37.904-89.12 22.49-108.968 59.144-24.7 45.616 34.687 122.663-6.532 154.158-38.558 29.462-90.68-31.1-137.412-44.17-30.311-8.478-61.134-11.532-91.489-19.851-28.733-7.875-55.506-19.529-83.996-28.243-35.421-10.834-80.625-2.945-106.045-29.886-24.516-25.983-7.922-70.83-20.524-104.257-13.777-36.545-52.799-62.419-56.949-101.254-4.085-38.229 7.524-81.621 34.479-109.036 28.468-28.955 85.489-11.984 113.455-41.425 30.939-32.571 2.137-113.264 45.302-125.708 45.843-13.215 73.375 62.155 118.167 78.582zm-522 307c28.031 10.28 58.943-1.306 88.767-2.692 42.654-1.982 92.946-33.353 126.797-7.328 32.276 24.815 9.198 80.101 19.193 119.568 8.102 31.995 24.174 60.567 34.371 91.956 11.927 36.712 47.442 75.341 31.384 110.442-17.341 37.904-89.12 22.49-108.968 59.144-24.7 45.612 34.687 122.662-6.532 154.162-38.558 29.46-90.68-31.1-137.412-44.17-30.31-8.48-61.134-11.54-91.489-19.86-28.733-7.87-55.506-19.52-83.996-28.24-35.421-10.83-80.625-2.94-106.045-29.88-24.516-25.987-7.922-70.834-20.524-104.261-13.777-36.545-52.799-62.419-56.949-101.254-4.085-38.229 7.524-81.621 34.479-109.036 28.468-28.955 85.489-11.984 113.455-41.425 30.939-32.571 2.137-113.264 45.302-125.708 45.842-13.215 73.374 62.155 118.167 78.582z" fill="#000"/>
  <path fill-rule="evenodd" clip-rule="evenodd" d="M-11.695-172c68.27-.112 136.275 24.89 186.856 70.742 47.654 43.201 53.982 111.59 79.437 170.661 28.993 67.284 109.374 131.94 79.851 198.993-30.337 68.902-142.262 40.095-204.054 83.101-59.555 41.449-70.414 146.524-142.09 157.807-70.381 11.079-125.644-59.842-178.788-107.296-47.987-42.849-87.287-92.148-111.378-151.8-25.664-63.549-49.452-132.593-30.017-198.315 19.659-66.479 76.959-112.81 133.772-152.538 55.893-39.084 118.208-71.243 186.41-71.355z" fill="#000"/>
</svg>
