<svg width="1366" height="768" fill="none" xmlns="http://www.w3.org/2000/svg">
  <path fill-rule="evenodd" clip-rule="evenodd" d="M100.31-253.881c66.369 2.941 101.472 78.158 156.635 115.179 58.408 39.198 148.619 42.664 175.451 107.688 26.829 65.017-16.744 137.278-48.46 200.056-27.613 54.657-66.936 102.46-119.9 133.195-49.269 28.59-107.071 25.467-163.726 31.389-64.816 6.776-130.445 30.627-190.639 5.653-68.313-28.343-150.42-75.916-156.395-149.634-6.198-76.464 93.728-115.555 129.397-183.473 26.542-50.538 13.943-115.444 50.579-159.221C-23.956-204.18 33.701-256.834 100.31-253.881zM1319.75-351c64.17-.031 93.22 84.102 129.93 136.735 25.31 36.285 26.06 82.692 49.37 120.297 28.39 45.82 85.61 70.471 100.88 122.168 18.97 64.21 26.78 138.704-6.71 196.676-34.76 60.155-101.76 109.715-171.22 111.276-68.9 1.549-109.31-80.053-174.11-103.512-58.61-21.219-141.54 22.65-181.46-25.22-40.14-48.13-3.78-122.323 6.91-184.077 7.83-45.242 26.62-85.344 46.85-126.562 19.64-40.011 41.75-76.206 69.71-110.918 40.26-49.991 65.66-136.832 129.85-136.863zM746.278 550.386c39.287-13.661 75.144 34.696 108.306 59.802 29.108 22.037 50.019 51.915 74.74 78.779 23.157 25.164 57.086 43.435 67.654 75.958 10.692 32.918-15.182 68.329-9.666 102.499 5.982 37.059 50.458 66.347 42.858 103.108-7.38 35.658-62.154 41.578-79.414 73.638-20.991 39 9.552 107.27-29.363 128.41-40.364 21.92-84.267-45.34-130.064-41.82-39.38 3.02-61.821 57.15-101.241 59.59-37.324 2.31-65.513-34.64-100.778-47.08-43.374-15.3-113.197 6.75-132.22-35.13-21.884-48.17 62.69-98.93 48.204-149.815-14.489-50.899-106.971-50.686-119.887-102.006-10.763-42.766 43.041-75.698 65.63-113.573 21.343-35.789 25.243-93.134 65.031-105.516 49.041-15.262 99.564 57.465 147.619 39.337 47.438-17.895 34.703-109.529 82.591-126.181z"
   fill="#2B2E4A"/>
</svg>
