<svg width="415" height="469" fill="none" xmlns="http://www.w3.org/2000/svg">
  <path d="M89.54 343.103c-2-2.1-4.95-2.9-7.67-3.9a41.207 41.207 0 01-26.345-45.775 41.204 41.204 0 017.465-17.405l-.41-2.11c-.93-9.86-12.83-16.92-21.93-13-9.1 3.92-12.18 17.37-5.68 24.85-10.67.88-17.73 13-16.22 23.65 1.51 10.65 9.26 19.3 17.9 25.63a84.743 84.743 0 0049.21 16.26 6.82 6.82 0 003.5-.63c2.5-1.47 2.18-5.46.18-7.57zm297.35-43.13c2.45-4 2.8-9.35.31-13.31-2.49-3.96-7.95-5.95-12.2-4a8.935 8.935 0 00-2.855-12.305 8.93 8.93 0 00-12.305 2.855c-2.84 4.39-1.34 10.28 1.1 14.91 2.44 4.63 5.79 9 6.59 14.13.8 5.13-1.2 10.68-4.36 15s-7.37 7.7-11.54 11l-.79.76a28.676 28.676 0 0023-2c3.92-2.17 7.55-5.76 7.81-10.23.14-2.5-.79-5-.41-7.48.51-3.54 3.71-6.18 5.65-9.33zm-215.05 163.48c-3.89-.48-7.79-2.18-10.08-5.36-1.46-2-2.17-4.52-3.44-6.68s-3.48-4.11-6-3.87c-3.86.38-6.47 5.72-10.24 4.78-2.26-.57-3.34-3.23-3.35-5.56-.01-2.33.66-4.66.37-7-.81-6.51-9.17-9.71-15.41-7.67-6.24 2.04-15.7 9.55-19.77 14.7 4.28 7.11 13.05 9.87 21.09 11.89 13.5 3.38 27.117 6.25 40.85 8.61 3.22.55 6.51 1.08 9.73.57 3.22-.51 6.43-2.22 7.92-5.12-3.82.61-7.82 1.2-11.67.71zm154.85-50.14c-1-5.56-6.54-10.46-12-9.18 4.56-3.76 4.59-11.32 1-16s-9.88-6.71-15.79-6.53c-5.91.18-11.58 2.25-17.06 4.45 2.69-3.42-1.25-8.76-5.59-9-4.34-.24-8.23 2.47-11.76 5-3.53 2.53-7.59 5.16-11.89 4.49l4 1.62c9.65 1.46 19.38 3.71 27.73 8.75 8.35 5.04 15.24 13.26 16.68 22.91 1.44 9.65-3.64 20.45-12.79 23.83a38.815 38.815 0 0032.47-14.68c3.44-4.46 6-10.11 5-15.66zM9.62 269.113a84.645 84.645 0 01-.26-9.31 84.767 84.767 0 01.26-9.32c.264 3.099.35 6.211.26 9.32a81.78 81.78 0 01-.26 9.31z" fill="#E0E0E0"/>
  <path d="M19.25 259.763a90.749 90.749 0 01-9.63.26 90.56 90.56 0 01-9.62-.26 87.24 87.24 0 019.62-.26 87.176 87.176 0 019.63.26zm361.86 105.09a81.944 81.944 0 01-.26-9.31 81.889 81.889 0 01.26-9.32c.258 3.099.344 6.211.26 9.32a84.821 84.821 0 01-.26 9.31z" fill="#E0E0E0"/>
  <path d="M390.74 355.533c-3.202.27-6.417.36-9.63.27-3.213.09-6.428 0-9.63-.27a90.486 90.486 0 019.63-.26 90.75 90.75 0 019.63.26zM324.6 45.213a81.89 81.89 0 01-.26-9.32 81.945 81.945 0 01.26-9.31c.257 3.096.344 6.204.26 9.31a84.762 84.762 0 01-.26 9.32z" fill="#E0E0E0"/>
  <path d="M334.23 35.893c-3.203.264-6.418.35-9.63.26-3.212.09-6.427.004-9.63-.26a90.486 90.486 0 019.63-.26 90.486 90.486 0 019.63.26zM20.34 187.303a5.69 5.69 0 100-11.38 5.69 5.69 0 000 11.38zm227.11 236.7a5.697 5.697 0 01-3.512 5.273 5.7 5.7 0 11-.007-10.533 5.692 5.692 0 013.519 5.26zm52.96-107.56a5.69 5.69 0 11-11.382.02 5.69 5.69 0 0111.382-.02zM131.3 33.023a5.692 5.692 0 01-6.8 5.58 5.692 5.692 0 01-4.147-7.758 5.691 5.691 0 0110.947 2.178zm24.12 339.56a2.85 2.85 0 100-5.7 2.85 2.85 0 000 5.7zm-65.82-17.05a2.85 2.85 0 11-2.85-2.84 2.848 2.848 0 012.015.828 2.848 2.848 0 01.835 2.012zm70.16-316.77a2.851 2.851 0 11-2.85-2.85 2.859 2.859 0 012.85 2.85zm125.36 153.94a2.847 2.847 0 01-3.406 2.795 2.844 2.844 0 01-2.239-2.239 2.848 2.848 0 014.81-2.571 2.858 2.858 0 01.835 2.015z" fill="#E0E0E0"/>
  <path d="M11.82 30.263s-6.34 3.27 2.54 16.55c8.88 13.28 14.7 19.68 14.7 19.68s1.67 3.13-1 4c-2.67.87-8.89.59-9.72 4.11-.83 3.52 2.07 6.66 7.58 9s17.33 7.66 18.41 8.16c1.08.5 2.21 1.89.46 2.76-1.75.87-15.25 3.91-13.42 10.24s18.21 10.18 20 10.64c1.79.46 2.28 1.13 2.25 2.08-.03.95-4.67 1.55-8.47 2.57-3.8 1.02-8 2.88-6.68 6.44 1.32 3.56 11.57 10.16 34.42 9.7l10.57-.9 4.68-9.58c8.77-21.1 6.35-33 3.53-35.59-2.82-2.59-6.09.7-8.43 3.87s-4.59 7.27-5.49 7c-.9-.27-1.34-1-1.11-2.86.23-1.86 2.61-18.48-2.61-22.49-5.22-4.01-13 7.45-14.43 8.77-1.43 1.32-2.33-.29-2.4-1.45-.07-1.16-.83-14.28-.95-20.2s-1.85-9.83-5.56-10.36c-3.71-.53-5.62 5.36-7.38 7.55-1.76 2.19-4.07-.48-4.07-.48s-3.84-7.76-13-20.87c-9.16-13.11-14.55-8.26-14.55-8.26" fill="#EBEBEB"/>
  <path d="M84.29 137.693c-6.66-9.65-18.2-27-28.2-41.87-10-14.87-19-28.28-25.65-38l-7.84-11.44c-.92-1.34-1.63-2.39-2.13-3.11-.23-.36-.42-.63-.55-.82-.13-.19-.17-.29-.17-.29l.2.27.58.8 2.16 3.08c1.89 2.68 4.59 6.58 7.92 11.41 6.68 9.65 15.77 23.04 25.76 37.92 9.99 14.88 21.51 32.23 28.12 41.92" fill="#E0E0E0"/>
  <path d="M26.95 75.263c.257.011.512.051.76.12.48.09 1.18.25 2 .46 1.71.4 4.07 1 6.65 1.76l6.62 1.91 2 .57c.254.043.5.124.73.24a3.574 3.574 0 01-.76-.12c-.48-.09-1.18-.25-2-.46-1.71-.43-4.06-1.08-6.65-1.82l-6.61-1.86-2-.56a3.645 3.645 0 01-.74-.24zm19.44 4.3c-.08 0 1-4.93 2.4-11s2.64-10.92 2.72-10.9c.08.02-1 4.94-2.4 11s-2.63 10.92-2.72 10.9zm14.3 23.5c.086-.248.203-.483.35-.7l1-1.86c.88-1.57 2.09-3.74 3.34-6.18 1.25-2.44 2.3-4.69 3-6.32l.89-1.94a3.51 3.51 0 01.36-.69c-.05.255-.13.504-.24.74-.18.48-.45 1.15-.8 2-.69 1.66-1.72 3.93-3 6.38-1.28 2.45-2.49 4.61-3.42 6.15-.47.77-.86 1.38-1.14 1.8a4.004 4.004 0 01-.34.62zm-18.42-.02c.236-.054.478-.077.72-.07l2-.08c1.67 0 4-.09 6.5-.12s4.83 0 6.49 0h2c.24-.028.48-.028.72 0a3.004 3.004 0 01-.72.07l-2 .08c-1.67.05-4 .1-6.5.13s-4.83 0-6.49 0h-2c-.24.022-.481.019-.72-.01zm10 22.35a4.98 4.98 0 01.92-.08l2.52-.11a702.993 702.993 0 0116.64-.36h2.53c.306-.023.614-.023.92 0-.302.069-.61.099-.92.09l-2.52.1c-2.13.08-5.07.16-8.32.23s-6.19.12-8.33.13h-2.52a5.235 5.235 0 01-.92 0zm22.97-.63a5.71 5.71 0 01.42-.9l1.24-2.4c1.05-2 2.48-4.83 4-8s2.78-6 3.69-8.1l1.09-2.48a6.17 6.17 0 01.43-.89 5.78 5.78 0 01-.31.94c-.23.6-.56 1.46-1 2.52-.86 2.11-2.11 5-3.62 8.16-1.51 3.16-3 5.94-4.06 7.94-.56 1-1 1.8-1.34 2.35a5.72 5.72 0 01-.54.86z" fill="#E0E0E0"/>
  <path d="M355.19 220.763c-11.27-9.83-12.34-25.93-10.32-40.09.33-2.37.34-4.9 1.7-6.86 1.36-1.96 4.14-3.1 6.15-1.87 1.67 1 2.22 3.15 3 5a14 14 0 005 5.91c1.43.95 3.25 1.63 4.83 1 2.17-.9 2.71-3.7 2.95-6.07.453-4.4.9-8.8 1.34-13.2a21.991 21.991 0 011.47-6.93 7.348 7.348 0 015.13-4.45c2.31-.39 4.95 1.21 5.17 3.57a20.827 20.827 0 01-.25 2.94 2.49 2.49 0 001.2 2.49 2.85 2.85 0 002.71-.8 31.477 31.477 0 006.55-7.9 43.706 43.706 0 016.2-8.2c2.49-2.36 5.77-4.09 9.17-3.92 3.4.17 6.77 2.65 7.27 6s-1.81 6.59-4.21 9.05a52.832 52.832 0 01-12.09 9.27 4.417 4.417 0 00-2.05 1.78c-.68 1.52.64 3.24 2.14 3.92 1.69.78 3.62.8 5.44 1.22 1.82.42 3.72 1.44 4.23 3.25.71 2.52-1.58 4.83-3.75 6.27a45.268 45.268 0 01-14.18 6.27c-1.84.304-3.609.941-5.22 1.88-1.53 1.06-2.61 3.09-1.94 4.85.67 1.76 2.78 2.52 4.64 2.38a33.545 33.545 0 005.39-1.42c3.37-.88 7.53-.2 9.31 2.82a7.529 7.529 0 01.08 6.69 17.395 17.395 0 01-4.2 5.45 45.758 45.758 0 01-20.84 11.52c-7.8 1.8-14.85 1.75-22-1.79" fill="#F5F5F5"/>
  <path d="M359.82 212.233a211.42 211.42 0 0110.87-21.86l3.14-5.58c1-1.83 2.06-3.64 3.17-5.36a107.43 107.43 0 017-9.48c2.36-2.9 4.7-5.58 6.91-8.06 2.21-2.48 4.33-4.75 6.34-6.74a85.072 85.072 0 0110.17-8.68c1.28-.92 2.3-1.61 3-2.06l.79-.52.28-.16a1.3 1.3 0 01-.25.2l-.77.55c-.68.48-1.68 1.19-2.94 2.13a90.004 90.004 0 00-10.06 8.76c-2 2-4.08 4.28-6.28 6.76-2.2 2.48-4.53 5.17-6.87 8.08a106.46 106.46 0 00-6.91 9.46c-1.1 1.7-2.12 3.5-3.15 5.34l-3.14 5.58a219.182 219.182 0 00-10.85 21.8" fill="#E0E0E0"/>
  <path d="M377.1 179.433a4.96 4.96 0 01-.12-1c-.06-.67-.1-1.63-.14-2.83-.08-2.38-.08-5.68-.07-9.31.01-3.63 0-6.93-.14-9.31-.06-1.19-.11-2.15-.16-2.81a4.775 4.775 0 010-1c.101.325.165.66.19 1 .1.66.2 1.62.29 2.81.2 2.38.3 5.68.28 9.33-.02 3.65 0 6.83-.06 9.31v2.82c.007.331-.016.663-.07.99zm30.94-2.4a6.718 6.718 0 01-1.22 0h-3.33c-2.81 0-6.69.14-11 .48-4.31.34-8.14.82-10.92 1.25-1.39.2-2.51.4-3.29.53-.397.09-.803.144-1.21.16a5.827 5.827 0 011.18-.33c.77-.18 1.89-.43 3.28-.67 2.77-.51 6.64-1 10.93-1.38a107.11 107.11 0 0111-.35c1.41 0 2.55.1 3.34.17.417.003.833.05 1.24.14zm-47.79 34.73a1.801 1.801 0 01-.17-.39c-.1-.31-.24-.69-.4-1.15-.34-1-.8-2.47-1.34-4.29-1.09-3.63-2.44-8.69-3.85-14.3-1.41-5.61-2.71-10.69-3.72-14.34-.49-1.77-.9-3.23-1.21-4.32-.13-.47-.23-.86-.32-1.18a2.002 2.002 0 01-.09-.42c.078.123.136.258.17.4l.4 1.15c.35 1 .81 2.47 1.35 4.28 1.09 3.64 2.43 8.7 3.84 14.31 1.41 5.61 2.71 10.68 3.72 14.34.5 1.77.91 3.23 1.21 4.32l.33 1.17c.051.134.078.276.08.42zm41.71-8.69a2.549 2.549 0 01-.42.12l-1.21.26-4.47.94c-3.77.79-9 1.94-14.71 3.21-5.71 1.27-10.95 2.39-14.74 3.1-1.9.35-3.43.63-4.5.79l-1.23.19a1.195 1.195 0 01-.43 0l.42-.12 1.21-.26 4.47-.94c3.77-.79 9-1.94 14.71-3.22 5.71-1.28 10.95-2.38 14.74-3.09 1.9-.36 3.43-.63 4.5-.79l1.23-.19c.142-.027.288-.027.43 0zM268.32 51.763c1.81-10.42 6.78-25.65 12.73-34.39 5.95-8.74 15.12-15.61 25.64-17.11 10.52-1.5 22 3.5 26.7 12.93 2.53 5.07 3 10.91 4.84 16.26 1.84 5.35 5.88 10.72 11.53 11.15 5 .39 9.83-3.22 14.75-2.26 6.42 1.25 8.89 9.15 8.93 15.68.04 6.53-.9 13.79 3.12 18.94 3.28 4.22 8.91 5.67 13.44 8.5 9.81 6.12 14 18.75 13 30.27s-6.3 22.18-11.93 32.27a252.84 252.84 0 00-19-47.88c-4.55-8.72-12.86-16.13-20.21-22.66-11.29-10-36.06-14.81-51.05-16.65-14.99-1.84-17.63-2.24-32.46-5" fill="#E0E0E0"/>
  <path d="M168.4 64.063c-37.07 2.69-77.55 7.6-107.23 19l9.38 63.43s57.52-20.59 104.33-19.16l-6.48-63.27z" fill="#2B2E4A"/>
  <path opacity=".8" d="M168.4 64.063c-37.07 2.69-77.55 7.6-107.23 19l9.38 63.43s57.52-20.59 104.33-19.16l-6.48-63.27z" fill="#fff"/>
  <path d="M165.69 118.963l-.36.06-1.05.15-4 .5c-1.76.21-3.91.47-6.4.83s-5.33.72-8.45 1.24c-12.51 1.93-29.73 5.12-48.43 10-6.5 1.68-12.77 3.41-18.5 5.21l-.29.08v-.29c-2-14.54-3.94-27.08-5.43-36-.76-4.42-1.37-8-1.79-10.41-.21-1.19-.37-2.12-.49-2.78 0-.3-.08-.54-.11-.72a.8.8 0 010-.25c.033.077.057.157.07.24 0 .18.09.42.16.71.13.66.32 1.58.57 2.77.48 2.41 1.15 5.94 1.93 10.38 1.58 8.88 3.58 21.42 5.62 36l-.33-.2c5.75-1.82 12-3.56 18.53-5.24a472.04 472.04 0 0148.5-9.82c3.13-.49 6-.82 8.47-1.15 2.47-.33 4.65-.57 6.41-.75l4.06-.41 1.06-.09a1.34 1.34 0 01.25-.06z" fill="#2B2E4A"/>
  <path d="M166.99 103.543s-.14-.44-.43-1.27a13.323 13.323 0 00-1.91-3.27 16.605 16.605 0 00-4.5-3.95c-.48-.32-1.05-.56-1.6-.85a14.33 14.33 0 00-1.81-.65 9.902 9.902 0 00-4.13-.4 8.6 8.6 0 00-4.2 1.65 14.238 14.238 0 00-3.36 3.65c-2 2.89-3.21 6.41-4.71 10.06a12.486 12.486 0 01-3.49 5 6.546 6.546 0 01-2.89 1.39 5.869 5.869 0 01-3.26-.38c-4.22-1.67-6.1-6.54-10.37-8a8.372 8.372 0 00-6.33.52 8.107 8.107 0 00-2.51 1.94 12.984 12.984 0 00-1.67 2.68c-.95 1.88-1.67 4-3.28 5.45a4.882 4.882 0 01-2.88 1.29 5.753 5.753 0 01-3-.64 10.868 10.868 0 01-4.14-4.07 35.99 35.99 0 01-2.19-5 23.543 23.543 0 00-2.17-4.51 8.995 8.995 0 00-3.31-3.08 8.606 8.606 0 00-7.6-.22 12.852 12.852 0 00-4.83 3.48 9.365 9.365 0 00-1.81 3.31c-.26.83-.29 1.3-.33 1.29a5.65 5.65 0 01.23-1.32 9.002 9.002 0 011.75-3.41 13.003 13.003 0 014.87-3.62 8.877 8.877 0 017.89.17 9.34 9.34 0 013.48 3.18 23.724 23.724 0 012.23 4.58 36.115 36.115 0 002.19 4.91 10.336 10.336 0 004 3.88 5.272 5.272 0 002.75.59 4.451 4.451 0 002.59-1.18c1.48-1.35 2.2-3.39 3.15-5.3a13.426 13.426 0 011.74-2.8 8.564 8.564 0 012.67-2.06 8.873 8.873 0 016.73-.55c2.27.75 3.9 2.5 5.41 4.08a15.12 15.12 0 005 4 5.37 5.37 0 003 .35 6.146 6.146 0 002.67-1.28 12.18 12.18 0 003.36-4.8c1.49-3.61 2.8-7.18 4.8-10.11a14.173 14.173 0 013.48-3.74 9.08 9.08 0 014.39-1.69 10.3 10.3 0 014.26.45c.632.188 1.25.418 1.85.69a17.242 17.242 0 016.13 5 12.844 12.844 0 011.85 3.37c.105.328.192.662.26 1a2.397 2.397 0 01-.02.19zm-98.25-8.33c0 .14-.46.35-1.08.47-.62.12-1.15.1-1.17 0-.02-.1.45-.35 1.07-.47.62-.12 1.13-.14 1.18 0zm1.64 11.55c.06.14-.3.43-.81.67-.51.24-1 .32-1 .19s.31-.42.82-.66c.51-.24.93-.3.99-.2zm2.05 12.69c0 .14-.33.39-.84.57-.51.18-1 .21-1 .08s.33-.39.84-.57c.51-.18.95-.21 1-.08zm2.46 12.44c0 .14-.39.4-1 .57-.61.17-1.06.22-1.1.08-.04-.14.38-.39.94-.57.56-.18 1.11-.21 1.16-.08zm69.91-59.77a5.198 5.198 0 011.21-.28c.8-.13 2-.31 3.45-.52 3-.42 7.21-1 12.26-1.59h.24v.24c.39 4.26.85 9.16 1.33 14.36v.47h-.25l-16.57 2h-.23v-.22c-.46-4.35-.85-8-1.13-10.59-.12-1.22-.21-2.19-.29-2.93a8.356 8.356 0 01-.06-1c.081.35.141.703.18 1.06.11.74.24 1.73.41 3 .33 2.58.78 6.16 1.33 10.46l-.25-.2 16.57-2.11-.23.28v-.21c-.46-5.2-.89-10.11-1.27-14.37l.26.21-16.96 1.94z" fill="#2B2E4A"/>
  <path d="M160.2 74.643c0 .16-2.85.15-6.33.53s-6.27 1-6.31.81a30.76 30.76 0 0112.64-1.34zm.18 3.72c0 .15-2.66.25-5.91.57-3.25.32-5.89.72-5.92.57a23.183 23.183 0 015.87-1.09 22.825 22.825 0 015.96-.05zm-3.97 3.24a10.94 10.94 0 01-3.38.69c-1.128.229-2.284.29-3.43.18a11.28 11.28 0 013.37-.69 11.744 11.744 0 013.44-.18zm192.71 1.16c-36.3-11.06-66.93-20.51-108-20.25l-6.28 64.63c42.71 3.78 57 6.58 96.42 20.85l17.86-65.23z" fill="#2B2E4A"/>
  <path opacity=".8" d="M349.12 82.763c-36.3-11.06-66.93-20.51-108-20.25l-6.28 64.63c42.71 3.78 57 6.58 96.42 20.85l17.86-65.23z" fill="#fff"/>
  <path d="M266.94 93.833l1.6-13.71a16.05 16.05 0 00-11.19 3.1 16.822 16.822 0 00-6.88 13.54c-.017.667-.001 1.334.05 2l16-1.8.42-3.13zm16.55-2.24a15.508 15.508 0 00-11.41-10.83l-.48-.1-.31-.07-.94-.14h-.08l-1.58 13.65-.38 3.22 15.12 5.52c.381-1.14.642-2.316.78-3.51.3-2.602.054-5.238-.72-7.74z" fill="#2B2E4A"/>
  <path opacity=".3" d="M283.49 91.593a15.508 15.508 0 00-11.41-10.83l-.48-.1-.31-.07-.94-.14h-.08l-1.58 13.65-.38 3.22 15.12 5.52c.381-1.14.642-2.316.78-3.51.3-2.602.054-5.238-.72-7.74z" fill="#000"/>
  <path d="M267.17 98.863l-16 1.8c.67 7.76 6.33 14.19 13.93 15.13 7.6.94 14.73-4 17.23-11.4l-15.12-5.52m67.88-3.83a8.604 8.604 0 01-1.41-.57c-.89-.41-2.19-1-3.81-1.65a117.606 117.606 0 00-26.22-7.52c-1.72-.28-3.13-.48-4.1-.61a7.763 7.763 0 01-1.5-.26 9.79 9.79 0 011.53.06c1 .07 2.39.22 4.13.45a96.28 96.28 0 0126.31 7.5c1.6.72 2.88 1.34 3.75 1.8a8.99 8.99 0 011.32.8zm-1.1 6.72a9.455 9.455 0 01-1.41-.58c-.89-.4-2.19-1-3.81-1.64a113.356 113.356 0 00-26.22-7.48c-1.72-.28-3.13-.48-4.1-.61a10.391 10.391 0 01-1.5-.26 7.394 7.394 0 011.53.06c1 .06 2.39.21 4.13.44a96.637 96.637 0 0113.42 2.82 98.224 98.224 0 0112.89 4.69c1.6.72 2.88 1.34 3.75 1.8.465.207.907.462 1.32.76zm-1.1 6.77a8.613 8.613 0 01-1.41-.57c-.89-.4-2.19-1-3.81-1.65a118.567 118.567 0 00-12.88-4.55 119.84 119.84 0 00-13.34-3c-1.72-.27-3.12-.48-4.1-.61a7.755 7.755 0 01-1.5-.26 9.79 9.79 0 011.53.06c1 .07 2.39.22 4.13.45a96.637 96.637 0 0113.42 2.82 95.346 95.346 0 0112.89 4.69c1.6.72 2.88 1.34 3.75 1.8a7.88 7.88 0 011.32.82zm-2.2 6.75a9.87 9.87 0 01-1.37-.57c-.86-.41-2.12-1-3.68-1.64a107.86 107.86 0 00-25.44-7.49c-1.68-.28-3-.48-4-.61a7.462 7.462 0 01-1.46-.26 7.984 7.984 0 011.49.06c.95.06 2.32.21 4 .45a91.286 91.286 0 0113.05 2.82 93.202 93.202 0 0112.51 4.72c1.55.72 2.79 1.34 3.62 1.8.448.199.877.44 1.28.72zm-4.78 5.38a7.67 7.67 0 01-1.23-.49l-3.31-1.47a80.566 80.566 0 00-22.82-6.51l-3.59-.5a8.203 8.203 0 01-1.31-.23 5.69 5.69 0 011.33 0c.86 0 2.09.16 3.61.33a69.501 69.501 0 0122.93 6.54c1.39.66 2.49 1.22 3.25 1.63.404.192.786.427 1.14.7zm-16.13.76a17.065 17.065 0 01-2.58-.53c-1.58-.37-3.77-.85-6.21-1.26-2.44-.41-4.67-.73-6.28-1a15.473 15.473 0 01-2.6-.45c.88-.069 1.765-.042 2.64.08 1.63.14 3.87.38 6.33.81 2.095.356 4.168.83 6.21 1.42.863.214 1.698.526 2.49.93z" fill="#2B2E4A"/>
  <path d="M247.37 70.133l.84-.05 2.5-.08c2.2 0 5.4 0 9.48.21a151.605 151.605 0 0133.3 6l.18.06v.19c-2.5 14.33-5.48 31.36-8.66 49.58-.13.74-.26 1.48-.39 2.2v.28l-.28-.07a216.378 216.378 0 00-22.23-4.59c-7.17-1.1-14-1.88-20.38-2.28h-.25v-.24c1.75-15.29 3.22-28.09 4.25-37.1.52-4.46.94-8 1.22-10.4.14-1.18.26-2.09.33-2.73 0-.29.07-.52.09-.7.02-.18 0-.23 0-.22a1.16 1.16 0 010 .25c0 .18 0 .42-.07.72-.06.65-.16 1.58-.28 2.78-.25 2.44-.63 6-1.1 10.46-1 9-2.36 21.75-4 37l-.22-.25c6.39.38 13.25 1.15 20.43 2.24a217.193 217.193 0 0122.29 4.58l-.32.21c.13-.72.26-1.46.39-2.2 3.21-18.22 6.21-35.24 8.73-49.56l.15.25a154.657 154.657 0 00-33.18-6.13c-4.06-.27-7.28-.34-9.44-.33h-3.36l-.02-.08zm-39.64 132.07l35.4 7.84 5.41-7.84-.87-10.09-5.38-4.92h-18.54l-17.32 15.6" fill="#2B2E4A"/>
  <path opacity=".3" d="M207.73 202.203l35.4 7.84 5.41-7.84-.87-10.09-5.38-4.92h-18.54l-17.32 15.6" fill="#000"/>
  <path d="M261.69 129.303l44.69-6 7-2s16.11-3.54 17.61-4.08c1.74-.62 2.46.07 2.64.72.29 1-.69 2.17-2.17 2.75-.5.2-8.67 3-8.67 3 .938.2 1.86.467 2.76.8 1.95.66 3.82 3.18 4.76 6.12s.95 3.84-.18 4.26a1.565 1.565 0 01-1.3-.18 3.097 3.097 0 01-1.34-1.68c-1.57-4.69-4.5-5.06-4.5-5.06l-.92.26s3 2.11 3 4.67a2.861 2.861 0 01-.24 1.09 3.874 3.874 0 01-2.331 4.913 3.875 3.875 0 01-1.979.177c-.64-.12-1.34-.5-1.43-1.14a2 2 0 01.21-1c.064-.173.117-.35.16-.53l-2.68.37s-6.07.5-8.68 1l-41.84 12.6a10.83 10.83 0 01-8.33-.849 10.849 10.849 0 01-5.24-6.531 10.838 10.838 0 011.375-8.896 10.821 10.821 0 017.625-4.784z" fill="#FFBE9D"/>
  <path d="M307.43 124.423a2.252 2.252 0 001.93 1.78c.92.19 1.88.07 2.81.19 2.78.38 4.95 2.91 7.74 3.15.39 0 .89 0 1-.42.11-.42-.19-.67-.46-.91l-7-6.17" fill="#FFBE9D"/>
  <path d="M313.48 122.043c.293.167.568.365.82.59.5.41 1.23 1 2.11 1.76l3.09 2.65.88.77c.27.27.73.5.81 1.14a.791.791 0 01-.48.74 1.645 1.645 0 01-.75.12 5.622 5.622 0 01-1.34-.27 35.73 35.73 0 01-4.47-2.26 6.827 6.827 0 00-2-.66c-.65-.1-1.29-.08-1.87-.12a3.286 3.286 0 01-2.55-1.1c-.41-.57-.33-1-.31-1 .109.304.268.588.47.84a3.122 3.122 0 002.4.86 18.64 18.64 0 011.92.06 7.394 7.394 0 012.14.65 40.487 40.487 0 004.42 2.21c.394.122.799.203 1.21.24.39 0 .72-.11.68-.31-.04-.2-.32-.52-.62-.78l-.88-.78-3-2.74-2-1.88c-.47-.44-.71-.7-.68-.73zm8.56 6.11a3.766 3.766 0 011.76 0c.604.16 1.141.511 1.53 1a7.366 7.366 0 011.1 2.09c.259.771.594 1.515 1 2.22a3.897 3.897 0 001.46 1.41 1.499 1.499 0 001.37 0c.29-.15.4-.3.39-.31-.01-.01-.16.08-.44.19a1.488 1.488 0 01-1.21-.12 3.884 3.884 0 01-1.3-1.36 12.689 12.689 0 01-1-2.19 7.354 7.354 0 00-1.18-2.16 3.133 3.133 0 00-1.71-1.09 2.86 2.86 0 00-1.37 0c-.26.2-.41.3-.4.32zm10.04-7.69c-.56.13-1.106.314-1.63.55l-3.88 1.43-3.88 1.37a8.323 8.323 0 00-1.6.61 8 8 0 001.68-.38c1-.29 2.42-.73 3.94-1.28s2.89-1.09 3.86-1.52a7.525 7.525 0 001.51-.78zm-11.22 10.18s.12.16.35.41a1.591 1.591 0 01.51 1.23.85.85 0 01-.53.66c-.347.142-.71.242-1.08.3-.469.056-.9.284-1.21.64a1.651 1.651 0 00-.2 1.47 1.852 1.852 0 001 1.08c.415.203.883.273 1.34.2a7.619 7.619 0 002.07-.77 4.403 4.403 0 001.2-.89c.13-.132.226-.293.28-.47 0 0-.13.15-.38.37a5.01 5.01 0 01-1.21.77 7.901 7.901 0 01-2 .68 1.84 1.84 0 01-2-1.07 1.335 1.335 0 01.14-1.17c.258-.292.613-.48 1-.53a4.909 4.909 0 001.14-.36 1.131 1.131 0 00.64-.88 1.706 1.706 0 00-.65-1.36c-.23-.19-.4-.33-.41-.31z" fill="#EB996E"/>
  <path d="M319.9 136.213s-.19 0-.44.21a1.5 1.5 0 00-.5 1.24 2 2 0 001.19 1.59 3.245 3.245 0 002.42 0 3.92 3.92 0 001.93-1.47 3.765 3.765 0 00.65-1.86 3.43 3.43 0 00-.15-1.32 1.088 1.088 0 00-.2-.44c.109.57.146 1.151.11 1.73a3.697 3.697 0 01-2.45 3 3.004 3.004 0 01-2.18 0 1.753 1.753 0 01-1.08-1.32 1.424 1.424 0 01.35-1.12c.2-.15.37-.21.35-.24zm-7.43-3.67s0-.32-.29-.78a3.28 3.28 0 00-1.63-1.33v.3c.346-.163.68-.35 1-.56a7.388 7.388 0 002.8-2.89 19.008 19.008 0 01-3 2.6c-.34.21-.67.4-1 .56l-.34.18.36.12c.622.22 1.168.616 1.57 1.14.37.39.48.67.53.66zm13.91-4.78c-.06-.06-.53.46-.59 1.29-.06.83.34 1.4.42 1.35.08-.05-.13-.61-.07-1.33.06-.72.33-1.25.24-1.31z" fill="#EB996E"/>
  <path d="M117.87 143.313s-6.52-10.57-7.68-11.47c-1.16-.9-11.49-4.68-12.37-4.4-.88.28-13.4 2.41-12 3.9 1.4 1.49 10.17-.13 10.17-.13l1.18.59s-7.55 1.2-9.14 2.12c-1.59.92-1 2.63.43 2.49 1.43-.14 7.93-1.41 8.32-1.14.39.27-7.13 1.77-7.94 2.24-1.09.65-1.2 2.58.18 2.49.81-.06 7.9-1.89 7.9-1.89a61.179 61.179 0 00-6.14 2.66c-.85.81-.18 2 1 1.76.84-.18 4.81-2.08 5.93-2.32 0 0 1 .28 2 2.4.44 1 2.46 7.15 6.15 7.07 3.27-.07 6.48 2.62 6.48 2.62l5.53-8.99z" fill="#FFBE9D"/>
  <path d="M85.88 131.373a5.715 5.715 0 002.28.63 13.02 13.02 0 002.58.11c1-.11 2-.25 3.1-.41l2.34-.34h-.14a32.704 32.704 0 005.4 1.69 34.331 34.331 0 00-5.21-2.22h-.14l-2.32.31-3.07.45a16.3 16.3 0 01-2.5 0c-1.42-.1-2.3-.31-2.32-.22z" fill="#EB996E"/>
  <path d="M112.98 142.063a2.511 2.511 0 01-2.91 0c-.89-.54-1.58-1.36-2.43-2-2.54-1.8-6.21-1.37-8.67-3.29-.34-.26-.68-.7-.49-1.09.19-.39.66-.4 1.07-.39l10.31.24" fill="#FFBE9D"/>
  <path d="M109.86 135.573a4.67 4.67 0 00-1.11-.14c-.72 0-1.76-.11-3-.16l-4.51-.18h-1.31a2.006 2.006 0 00-1.51.32.88.88 0 00-.17 1c.116.262.295.492.52.67.4.31.832.575 1.29.79a39.72 39.72 0 005.35 1.53c.749.227 1.46.564 2.11 1 .6.41 1.1.91 1.61 1.32a3.642 3.642 0 002.9 1c.77-.14 1-.56 1-.56-.312.168-.65.282-1 .34a3.585 3.585 0 01-2.6-1.12c-.47-.41-1-.93-1.6-1.4a7.992 7.992 0 00-2.23-1.08 45.215 45.215 0 01-5.25-1.54 6.618 6.618 0 01-1.18-.71c-.33-.27-.49-.64-.31-.78s.65-.17 1.09-.16h8.82c.368.001.734-.046 1.09-.14z" fill="#EB996E"/>
  <path d="M168.69 377.543l-2.37 26.22-7.87 20.21a2.686 2.686 0 00.086 2.145 2.692 2.692 0 001.624 1.405 2.697 2.697 0 002.44-.42c4.43-3.37 20.66-15.87 20.73-17.8.08-2.23 4.36-27.54 4.36-27.54l-19-4.22z" fill="#2B2E4A"/>
  <path opacity=".6" d="M160.16 427.533l23.37-20-.12 1.11a4.1 4.1 0 01-1.26 2.51c-1.88 1.76-7.19 6.52-19.47 16a2.69 2.69 0 01-2.52.41v-.03zm18.96-29.04a1.638 1.638 0 00-.68 2.07 1.561 1.561 0 002 .69 1.718 1.718 0 00.72-2.19 1.628 1.628 0 00-2.21-.49" fill="#fff"/>
  <path d="M167.45 416.763c-.16.06-.59-1.38-2.07-2.3a8.277 8.277 0 00-2.94-.92c0-.06.34-.23 1-.25a4.198 4.198 0 012.3.69 4.1 4.1 0 011.57 1.8c.21.6.2.98.14.98zm-2.27 3.31c-.13.1-.88-.85-2.19-1.39a22.759 22.759 0 00-2.51-.62 2.992 2.992 0 012.74.09c1.47.61 2.11 1.87 1.96 1.92zm6.25-7.39a26.76 26.76 0 00-3.24-2.37c-1.94-1.05-3.79-1.17-3.77-1.35a6 6 0 014.05.84 6.005 6.005 0 012.96 2.88zm1.39-7.92c-.09.15-1.46-.62-3.34-.9s-3.41 0-3.45-.17a6.726 6.726 0 016.79 1.07zm.87-7.67a13.006 13.006 0 00-3.45-1 13.452 13.452 0 00-3.57.47c0-.06.28-.35.93-.63a5.679 5.679 0 012.68-.42 5.95 5.95 0 012.59.83c.62.35.89.69.82.75zm-3.21-2.49a2.2 2.2 0 01.08-1 7.009 7.009 0 011.08-2.5 3.14 3.14 0 011.47-1.31 1.097 1.097 0 011.19.38c.242.361.342.799.28 1.23a3.819 3.819 0 01-3.72 3.13 4.43 4.43 0 01-4.06-2.79 1.557 1.557 0 01.07-1.28 1.07 1.07 0 011.17-.43c.628.21 1.188.587 1.62 1.09a7.61 7.61 0 011.56 2.24c.163.293.266.616.3.95a12.373 12.373 0 00-2.14-2.9 3.474 3.474 0 00-1.44-.91.57.57 0 00-.64.23 1.067 1.067 0 000 .84 3.929 3.929 0 003.54 2.38 3.314 3.314 0 003.2-2.61 1.274 1.274 0 00-.16-.86.577.577 0 00-.65-.22 2.72 2.72 0 00-1.27 1.08 10.192 10.192 0 00-1.48 3.26z" fill="#2B2E4A"/>
  <path d="M192.83 392.933l19.63-155.45-6.28-36.14-37 2-4.63 186.72a2.833 2.833 0 002.3 2.87l21.56 3.33a3.88 3.88 0 002.911-.735 3.88 3.88 0 001.509-2.595z" fill="#2B2E4A"/>
  <path d="M211.89 242.693l35.71 35.34-51.37 12.49 3.65 25.92 69.54-9.46a21.91 21.91 0 0014.8-8.89 21.882 21.882 0 00.34-25.12l-54.18-79.52-24.2 7.89 5.71 41.35z" fill="#2B2E4A"/>
  <path d="M209.92 233.703a20.132 20.132 0 011.24 4.44 19.48 19.48 0 01.73 4.55 21.112 21.112 0 01-1.24-4.44 20.804 20.804 0 01-.73-4.55z" fill="#455A64"/>
  <path d="M204.69 293.763l.85-.28 2.5-.78 9.58-2.91 34.86-10.48-.09.33-42.86-45.65.45-.14c-.85 7.17-1.74 14.66-2.64 22.3-4.42 37-8.58 70.52-11.79 94.74-1.6 12.11-3 21.9-4 28.66-.57 3.36-1 6-1.34 7.75-.18.87-.33 1.53-.43 2-.1.47-.16.68-.16.68s0-.24.11-.69c.11-.45.22-1.14.38-2 .36-1.76.7-4.39 1.24-7.76 1-6.77 2.32-16.56 3.86-28.68 3.13-24.22 7.22-57.73 11.64-94.75.91-7.64 1.8-15.13 2.65-22.3l.06-.55.38.4 42.75 45.73.22.24-.31.09-34.91 10.32-9.62 2.81-2.51.72c-.54.2-.87.2-.87.2z" fill="#455A64"/>
  <path d="M193.16 390.003c-.14 0 3.94-33 9.11-73.69s9.48-73.64 9.62-73.62c.14.02-3.93 33-9.1 73.69s-9.48 73.63-9.63 73.62zm12.94-172.75c.358.772.633 1.58.82 2.41.44 1.5 1 3.61 1.5 5.95.5 2.34.89 4.48 1.12 6 .176.832.26 1.68.25 2.53a12.962 12.962 0 01-.61-2.47c-.37-1.71-.8-3.74-1.27-6s-1-4.26-1.34-6a12.001 12.001 0 01-.47-2.42zm2.29-3.05s.5-.49 1.45-.16a1.687 1.687 0 011.08 1.28 1.852 1.852 0 01-.81 1.9 1.788 1.788 0 01-2-.21 1.523 1.523 0 01-.46-1.61c.1-.372.34-.691.67-.89.23-.13.38-.13.39-.1-.344.27-.59.646-.7 1.07a1.146 1.146 0 00.41 1.16 1.357 1.357 0 001.48.13 1.419 1.419 0 00.6-1.37 1.34 1.34 0 00-.76-1 2.668 2.668 0 00-1.35-.2zm49.73 69.88c-.11.11-2.12-1.74-5-3.4s-5.48-2.52-5.43-2.67a15.546 15.546 0 015.7 2.22 15.752 15.752 0 014.73 3.85z" fill="#455A64"/>
  <path d="M180.94 95.373l-20.5 9.9 8.84 61.68-3.47 27.68a10.8 10.8 0 003.61 9.49l33.11-.65 23.16-12.71 10.65-1.8-4.36-21.07 2-29.89 24.23 12.93a8.432 8.432 0 006.09.73l44.39-11.53-2.31-17.12-40.22 4.55-30.63-27.06-22.8-5.13-4.04-6.71h-23.33l-1.67 1.22a4.936 4.936 0 00-1.69 2.31l-1.06 3.18z" fill="#2B2E4A"/>
  <path d="M160.44 105.273a24.607 24.607 0 00-9.23 12c-2.34 7.28-7.63 36.71-7.63 36.71l-23.29-14.42-13.42 14.11 31 27.38a15.79 15.79 0 0017.29 2.39 15.798 15.798 0 008.79-12.09l3.81-27.91-7.32-38.17z" fill="#2B2E4A"/>
  <path d="M230.38 193.453l-1.44-2.12-15.33 2.83-2.82 6.53 19.59-7.24z" fill="#FFBE9D"/>
  <path d="M169.42 204.123c13.7 5.51 28.33 3.48 41.37-3.43 3.94-2.09 7.59-4.68 11.55-6.74 3.96-2.06 8.34-3.57 12.79-3.26 4.45.31 8.93 2.76 10.71 6.85 1.78 4.09 0 9.65-4.19 11.18l1.48 1.32c6.15-2.86 9.07-11.14 6.07-17.23-2.3-4.66-7.14-7.45-10.68-11.26-5.21-5.6-5.75-16.44-5.79-24.88m-33.26-49.37a6.183 6.183 0 01-1 0 3.878 3.878 0 00-2.43 1.12 5.717 5.717 0 00-1.21 3.91 13.254 13.254 0 001.11 5.25l.39.86-.75-.56a40.368 40.368 0 01-5.17-4.57 38.09 38.09 0 01-7.94-12.16 27.759 27.759 0 01-1.29-4.22 10.786 10.786 0 01-.23-1.61 47.55 47.55 0 001.86 5.69 40.09 40.09 0 008 11.94 42.407 42.407 0 005.08 4.53l-.37.31a11.854 11.854 0 01-.85-2.81 12.335 12.335 0 01-.23-2.65 5.898 5.898 0 011.41-4.12 3.85 3.85 0 012.63-1.07c.335.015.667.069.99.16zm1.22 0c1.69-.73 4.19.34 5.4 1.72.8.92 1.25 2.18 2.3 2.78 1.05.6 4.39 1.07 5.36.33 0 0 .59-2.85.91-4a88.582 88.582 0 002.27-13.68c-3.22-1.57-2.33-3.63-8.14-3.23.838 2.653.911 5.488.21 8.18" fill="#2B2E4A"/>
  <path d="M209.01 99.373c-.06 0 .21-.77.33-2.19a16.053 16.053 0 00-.72-5.93l-.07-.24h.24a9.919 9.919 0 014.28.38c.751.345 1.43.83 2 1.43a7.845 7.845 0 002 1.38l.16.08v.17c-.26 2.43-.55 5.08-1 7.82-.3 1.79-.66 3.52-1.08 5.17-.42 1.65-.75 3.24-1.1 4.74v.1l-.06.05a3.18 3.18 0 01-1.72.41 10.24 10.24 0 01-3.1-.43 3.218 3.218 0 01-1.31-.71 13.245 13.245 0 01-1.54-2.12 5.411 5.411 0 00-1.58-1.43 5.64 5.64 0 00-2.88-.9 5.794 5.794 0 00-1.08.16c.328-.193.699-.3 1.08-.31a5.467 5.467 0 013 .8 5.573 5.573 0 011.71 1.48c.445.714.957 1.384 1.53 2a4.905 4.905 0 002.6.9 9.663 9.663 0 001.53.08c.5.017.997-.097 1.44-.33l-.09.14c.34-1.51.66-3.13 1.07-4.77.41-1.64.77-3.36 1.06-5.14.46-2.72.76-5.36 1-7.78l.14.25a8.487 8.487 0 01-2.16-1.47 5.892 5.892 0 00-1.83-1.36 9.818 9.818 0 00-4.08-.42l.17-.25a15.59 15.59 0 01.57 6.07 11.054 11.054 0 01-.34 1.63 2.325 2.325 0 01-.17.54zm34.16 94.39v-1.14a7.061 7.061 0 00-1-3.09 10.403 10.403 0 00-3.68-3.55 15.51 15.51 0 00-6.56-1.8c-2.54-.23-5.36-.09-8.39-.3a31.62 31.62 0 01-9.46-2 19.524 19.524 0 01-8.53-6.38 14.86 14.86 0 01-2.45-5.13 19.633 19.633 0 01-.56-5.83c.15-4 1.06-7.71 1.61-11.35a86.509 86.509 0 001-10.56 87.591 87.591 0 00-4.27-29.68c-.42-1.37-.81-2.41-1.06-3.12-.12-.34-.21-.61-.28-.82a1.194 1.194 0 01-.08-.28s.05.08.13.26.19.47.33.8c.28.7.7 1.73 1.16 3.1a83.042 83.042 0 013.12 11.76 86.978 86.978 0 011.43 18 85.668 85.668 0 01-1 10.63c-.54 3.66-1.44 7.4-1.59 11.29a16.242 16.242 0 002.9 10.64 18.997 18.997 0 008.3 6.23 31.196 31.196 0 009.31 2c3 .22 5.82.11 8.4.37a15.7 15.7 0 016.74 1.95 10.41 10.41 0 013.7 3.7c.562.969.878 2.061.92 3.18.014.291-.003.583-.05.87-.06.19-.08.25-.09.25z" fill="#2B2E4A"/>
  <path d="M228.21 175.553c-.345.435-.73.837-1.15 1.2-.38.37-.86.82-1.44 1.31-.58.49-1.22 1.08-2 1.65a54.7 54.7 0 01-5.53 3.83 56.53 56.53 0 01-15.16 6.35 53.763 53.763 0 01-6.61 1.25c-.95.15-1.81.2-2.57.26-.76.06-1.41.1-1.95.11a9.79 9.79 0 01-1.66 0 11.58 11.58 0 011.65-.19c.53 0 1.18-.09 1.93-.19s1.61-.16 2.55-.33a62.258 62.258 0 006.54-1.36 65.013 65.013 0 007.73-2.63 63.777 63.777 0 007.3-3.67 62.306 62.306 0 005.56-3.7c.77-.55 1.43-1.11 2-1.58.57-.47 1.09-.89 1.49-1.24.414-.388.855-.745 1.32-1.07zm-6.44-32.79a1.936 1.936 0 01-.09.55l-.35 1.56c-.173.825-.393 1.64-.66 2.44-.3.94-.59 2-1.06 3.18-.23.58-.46 1.19-.7 1.82-.24.63-.57 1.26-.86 1.93-.58 1.35-1.34 2.71-2.11 4.16a57.7 57.7 0 01-13.68 16.31c-1.3 1-2.51 2-3.74 2.8-.6.41-1.17.83-1.75 1.19l-1.67 1c-1 .67-2.07 1.15-2.95 1.61-.741.396-1.502.753-2.28 1.07l-1.48.62a3.093 3.093 0 01-.53.18c.152-.112.316-.206.49-.28l1.43-.7c.63-.29 1.39-.66 2.24-1.15.85-.49 1.86-1 2.89-1.66l1.64-1c.57-.36 1.13-.79 1.73-1.2 1.2-.81 2.39-1.8 3.67-2.82a65.332 65.332 0 007.51-7.48 66.446 66.446 0 006.06-8.69c.78-1.44 1.55-2.78 2.13-4.11.31-.66.63-1.29.89-1.91l.72-1.8c.5-1.13.81-2.2 1.13-3.13.32-.93.57-1.74.75-2.41l.44-1.53c.036-.192.1-.377.19-.55zm-42.17 66.38a5.997 5.997 0 01-1.83-1.36 13.827 13.827 0 01-4.17-9.93 6.264 6.264 0 01.3-2.25c.09 0 0 .87.07 2.24a15.67 15.67 0 004.07 9.69c.93 1.01 1.65 1.54 1.56 1.61zm-.73-7.79c.15 0-.13 1.33 0 2.9.13 1.57.62 2.8.48 2.87a6 6 0 01-.49-5.77h.01zm-9.87-35.8a1.595 1.595 0 01-.12-.47c-.07-.37-.15-.82-.25-1.36-.21-1.26-.5-3-.84-5-.7-4.23-1.7-10.07-2.9-16.5s-2.37-12.25-3.2-16.46c-.42-2-.77-3.72-1-5-.11-.54-.19-1-.26-1.35a1.505 1.505 0 01-.06-.49c.073.146.127.3.16.46.1.37.21.81.35 1.34.3 1.16.71 2.85 1.19 4.94 1 4.18 2.19 10 3.4 16.42 1.21 6.42 2.13 12.3 2.74 16.54.31 2.13.54 3.85.68 5 .06.55.11 1 .15 1.38.019.184.005.37-.04.55zm64 0a2.789 2.789 0 01-.05-.49v-6.65c0-4.41.24-10.5.75-17.21.51-6.71 1.18-12.77 1.7-17.15.27-2.13.49-3.88.66-5.18.08-.56.15-1.03.21-1.41.016-.163.05-.324.1-.48.026.166.026.334 0 .5 0 .38-.07.85-.11 1.41-.12 1.31-.29 3.06-.49 5.2-.43 4.38-1 10.44-1.55 17.15-.55 6.71-.76 12.78-.9 17.18-.06 2.14-.11 3.9-.15 5.22l-.05 1.42a1.622 1.622 0 01-.12.49zm-79.96 2.58c-.17.07-1.49-3.57-4-7.53-2.51-3.96-5.55-6.45-5.42-6.58a9.146 9.146 0 012 1.59 27.486 27.486 0 013.9 4.7 32.589 32.589 0 012.8 5.42c.339.767.581 1.573.72 2.4z" fill="#2B2E4A"/>
  <path d="M154.76 163.763a19.201 19.201 0 01-1.12-2 15.478 15.478 0 00-3.46-4 21.916 21.916 0 00-4.57-2.79 13.193 13.193 0 01-2-1c.75.107 1.481.323 2.17.64a17.492 17.492 0 014.76 2.73 13.43 13.43 0 013.45 4.27c.381.666.642 1.394.77 2.15z" fill="#2B2E4A"/>
  <path d="M165.06 139.763s-.05.16-.21.44c-.243.404-.55.766-.91 1.07a6.079 6.079 0 01-4.9 1.32 9.501 9.501 0 01-6.16-4.35 21.204 21.204 0 01-2-4c-.28-.73-.56-1.47-.8-2.25a6.222 6.222 0 01-.28-2.52 3.47 3.47 0 011.22-2.27 2.889 2.889 0 012.47-.44 4.866 4.866 0 013.29 3.12 4.686 4.686 0 01-.41 4.09 5.11 5.11 0 01-2.85 2.19 4.532 4.532 0 01-3-.14 5.003 5.003 0 01-1.85-1.26 3.902 3.902 0 01-.78-1.17c-.13-.3-.17-.46-.15-.47a6.396 6.396 0 001.07 1.5 5.061 5.061 0 001.81 1.13 4.335 4.335 0 002.75.06 4.73 4.73 0 002.59-2.06 4.247 4.247 0 00.33-3.7 4.356 4.356 0 00-3-2.79 2.372 2.372 0 00-2 .36 2.918 2.918 0 00-1 1.92c-.18 1.55.52 3.07 1 4.51a19.992 19.992 0 002 4 9.23 9.23 0 005.82 4.26 5.993 5.993 0 004.71-1.12 7.55 7.55 0 001.24-1.43zm39.32 15.33l-.28.23c-.2.17-.48.38-.83.65a22.097 22.097 0 01-3.44 2.16c-.888.444-1.834.761-2.81.94a7.353 7.353 0 01-3.51-.23 12.378 12.378 0 01-6.33-5.58 20.39 20.39 0 01.18-21.25 10.996 10.996 0 014.71-4.4 6.14 6.14 0 013.37-.43 4.612 4.612 0 013 1.71 4.9 4.9 0 01.94 3.41 7.679 7.679 0 01-1.08 3.4 11.111 11.111 0 01-5.56 4.51 14.313 14.313 0 01-7.14.74 14.644 14.644 0 01-6.43-2.67 22.058 22.058 0 01-7.57-10.6 12.887 12.887 0 01-.92-6.07 6.09 6.09 0 011.17-2.76 4.201 4.201 0 012.44-1.59 5.338 5.338 0 015 1.74 5.716 5.716 0 011.21 4.79 7.588 7.588 0 01-2.05 4 9.728 9.728 0 01-3.38 2.21 15.237 15.237 0 01-6.35 1 36.5 36.5 0 01-4-.41l-1.05-.17-.35-.07h.36l1.05.12c.92.09 2.28.27 4 .31 2.127.1 4.251-.24 6.24-1a9.368 9.368 0 003.25-2.17 7.27 7.27 0 001.93-3.87 5.365 5.365 0 00-1.15-4.47 4.999 4.999 0 00-4.64-1.58 4.6 4.6 0 00-3.25 4 12.169 12.169 0 00.92 5.84 21.602 21.602 0 007.4 10.35 14.273 14.273 0 006.22 2.56c2.313.354 4.678.11 6.87-.71a10.52 10.52 0 005.3-4.28 7.308 7.308 0 001-3.18 4.339 4.339 0 00-.83-3.05 4.15 4.15 0 00-2.7-1.53 5.667 5.667 0 00-3.1.39 10.53 10.53 0 00-4.49 4.2 19.574 19.574 0 00-3.05 11.1 19.835 19.835 0 002.77 9.7 12.101 12.101 0 006.11 5.49 8.261 8.261 0 006.14-.61 24.507 24.507 0 003.47-2.07l.86-.6c.118-.083.245-.15.38-.2zm-27.59-56.11a3.36 3.36 0 01-.32.89c-.358.789-.79 1.542-1.29 2.25a16.417 16.417 0 01-14.82 7.07 13.665 13.665 0 01-2.55-.41 3.005 3.005 0 01-.9-.32c0-.09 1.32.29 3.47.37a17.208 17.208 0 0014.51-6.92c1.29-1.72 1.8-2.98 1.9-2.93zm14.77 4.25a9.242 9.242 0 00-2.82 1.39 9.1 9.1 0 00-1.83 2.56c-.06 0-.08-.4.12-1a4.666 4.666 0 013.54-3c.61-.09.99-.01.99.05zm21.13 5.88a2.141 2.141 0 01-.85-.39 6.922 6.922 0 01-1.88-1.73 6.833 6.833 0 01-1.39-3.54c-.067-.8.153-1.597.62-2.25a2.307 2.307 0 012.31-1 2.553 2.553 0 011.82 1.75 2.397 2.397 0 01-.46 2.3 3.23 3.23 0 01-3.62 1 4.127 4.127 0 01-2-1.64 1.999 1.999 0 01-.37-.86s.18.29.54.74a4.175 4.175 0 001.93 1.41 2.867 2.867 0 003.13-.91 1.93 1.93 0 00.414-.88c.062-.323.04-.657-.064-.97a2.09 2.09 0 00-1.45-1.39 1.811 1.811 0 00-1.8.78 3.002 3.002 0 00-.54 1.91 6.677 6.677 0 001.21 3.36 10.363 10.363 0 002.45 2.31zm4-11.67a12.667 12.667 0 00-3.31-2.31 13.001 13.001 0 00-4-.68c0-.06.43-.24 1.2-.29a6.548 6.548 0 013 .49 6.808 6.808 0 012.46 1.73c.52.58.71 1.03.65 1.06zm27.5 11.64s-.06.05-.19.12l-.6.32c-.54.26-1.34.62-2.41 1a29.081 29.081 0 01-9.42 1.77 13.765 13.765 0 01-3.2-.31 7.001 7.001 0 01-3.15-1.54 4.671 4.671 0 01-1.55-3.42 5.811 5.811 0 011.33-3.76 7.727 7.727 0 018-2 9.301 9.301 0 016.38 6.18 9.129 9.129 0 01-1.91 8.67 14.001 14.001 0 01-7.4 4c-2.502.48-5.042.738-7.59.77-2.197.04-4.387.254-6.55.64a13.281 13.281 0 00-8.05 4.59 9.549 9.549 0 00-1.54 3.11.683.683 0 010-.23c0-.15.07-.38.16-.66a8.43 8.43 0 011.18-2.34 13.286 13.286 0 018.15-4.83 39.963 39.963 0 016.6-.71 42.651 42.651 0 007.5-.8 13.592 13.592 0 007.13-3.86 8.619 8.619 0 001.79-8.18 8.783 8.783 0 00-6-5.84 7.279 7.279 0 00-7.46 1.86 5.317 5.317 0 00-1.24 3.45 4.217 4.217 0 001.38 3.11 6.667 6.667 0 003 1.47c1.017.231 2.057.341 3.1.33a30.291 30.291 0 009.36-1.59c1.06-.37 1.87-.7 2.42-.93.25-.149.511-.279.78-.39zm-24.94 39.27c-.09 0-.43-.84-1.35-2a10.282 10.282 0 00-10.21-3.85c-1.45.28-2.29.7-2.33.62a5.407 5.407 0 012.25-1 9.87 9.87 0 0110.6 4c.514.653.87 1.416 1.04 2.23zm11.68 7.56a4.878 4.878 0 01-1.37 2 8.39 8.39 0 01-11 .87 5 5 0 01-1.67-1.78c.07-.07.64.68 1.88 1.47a8.791 8.791 0 005.39 1.4 8.89 8.89 0 005.11-2.23c1.13-.96 1.58-1.79 1.66-1.73zm3.04-19.9c0 .08-.65-.29-1.71-.57a7.343 7.343 0 00-7.66 2.45c-.7.85-1 1.49-1.06 1.46a3.537 3.537 0 01.77-1.68 7.002 7.002 0 018.06-2.58 3.562 3.562 0 011.6.92zm37.26-9.2c.078.242.138.489.18.74.067.302.107.61.12.92a7.28 7.28 0 010 1.27 12.601 12.601 0 01-2.87 7.45 13.136 13.136 0 01-4.27 3.57 13.289 13.289 0 01-6.24 1.43 16.79 16.79 0 01-12.85-6.35 10.118 10.118 0 01-1.81-3.47 6.585 6.585 0 01.06-3.81 4.908 4.908 0 012.34-2.86 5.342 5.342 0 013.52-.41 5.863 5.863 0 013 1.57 6.987 6.987 0 011.64 2.71 9.128 9.128 0 01-.05 5.58 10.525 10.525 0 01-2.36 4 11.013 11.013 0 01-2.75 2.12 10.55 10.55 0 01-2 .82 5.009 5.009 0 01-.76.14 14.85 14.85 0 002.7-1.13 10.802 10.802 0 004.86-6 8.815 8.815 0 000-5.33 6.378 6.378 0 00-1.55-2.52 5.448 5.448 0 00-2.74-1.43 4.93 4.93 0 00-3.2.38 4.383 4.383 0 00-2.08 2.58 5.999 5.999 0 00-.05 3.51c.35 1.2.935 2.318 1.72 3.29a16.417 16.417 0 0012.44 6.19 12.73 12.73 0 0010.27-4.74 12.793 12.793 0 002.95-7.23c.001-1.001-.072-2-.22-2.99zm7.71 20.71a2.81 2.81 0 01-.61-.69 7.196 7.196 0 01-1.09-2.26 9.237 9.237 0 01-.15-3.72c.235-1.494.569-2.97 1-4.42a31.71 31.71 0 013.58-7.38c.56-.88 1-1.59 1.38-2.06a3.6 3.6 0 01.57-.72 23.955 23.955 0 01-1.63 3 37.017 37.017 0 00-3.4 7.34 40.776 40.776 0 00-1 4.34 9.35 9.35 0 000 3.56 13.357 13.357 0 001.35 3.01zm18.94-23.01c.138.222.239.465.3.72.224.668.391 1.354.5 2.05a18.331 18.331 0 01-2.99 13.37 12.335 12.335 0 01-1.32 1.65c-.35.36-.55.55-.58.53-.03-.02.67-.89 1.59-2.38a20.909 20.909 0 002.57-6.31c.486-2.233.597-4.531.33-6.8-.17-1.75-.49-2.8-.4-2.83zm-65.44 46.77a2.279 2.279 0 01-.43-.23 12.805 12.805 0 00-1.22-.66 14.47 14.47 0 00-4.88-1.37 14.813 14.813 0 00-7.34 1.18 12.595 12.595 0 00-3.67 2.43 7.493 7.493 0 00-1.44 1.78c-.4.66-.576 1.432-.5 2.2a2.628 2.628 0 001.06 1.88 2.138 2.138 0 002 .09 3.581 3.581 0 001.86-3.51 7.115 7.115 0 00-3.71-6 7.272 7.272 0 00-4.9-.64 17.38 17.38 0 00-1.78.57 1.72 1.72 0 01.42-.27 6.99 6.99 0 011.31-.5 7.29 7.29 0 015.12.52 7.466 7.466 0 014 6.33 5.299 5.299 0 01-.43 2.26 3.368 3.368 0 01-1.7 1.73 2.652 2.652 0 01-2.53-.13 3.134 3.134 0 01-1.3-2.25 4 4 0 01.57-2.51c.41-.711.93-1.352 1.54-1.9a13 13 0 013.83-2.5 14.997 14.997 0 017.57-1.11c1.729.196 3.403.726 4.93 1.56.416.218.814.469 1.19.75.31.17.45.28.43.3zm3.62 8.27a6.507 6.507 0 01-1.21 2.29c-.79 1.19-1.52 2.09-1.64 2a6.507 6.507 0 011.21-2.29c.79-1.18 1.52-2.08 1.64-2zm12.7 14.31c-.08 0-.22-.35-.57-.87a5.162 5.162 0 00-4.07-2.26c-.62 0-1 .05-1 0s.35-.27 1-.34a4.551 4.551 0 014.4 2.45c.28.58.3 1.01.24 1.02zm-41.31-5.1c0 .07-1.2.68-3.13 1.79a27.049 27.049 0 00-6.8 5.25 14.51 14.51 0 00-3.61 7.64 18.048 18.048 0 00.06 3.57 3.001 3.001 0 01-.28-.94 9.063 9.063 0 01-.14-2.66 14 14 0 013.58-7.95 24.529 24.529 0 017-5.24c1-.51 1.82-.89 2.39-1.14.291-.155.605-.263.93-.32zm14.69 4.89s-.56-.33-1.09-1.2a6.693 6.693 0 01.63-7.47 2.929 2.929 0 011.27-1c.06.08-.43.45-1 1.23a7.177 7.177 0 00-.59 7.07c.43.85.85 1.31.78 1.37zm-22.96-18.12s-.18-.22-.58-.58a4.113 4.113 0 00-2.08-.92 5.194 5.194 0 00-3.49.72 10.663 10.663 0 00-3.31 3.5c-1 1.52-1.82 3.35-3.09 5.13a10.926 10.926 0 01-5.51 4.12 10.232 10.232 0 01-7.57-.44 10.839 10.839 0 01-5.57-5.94 6.467 6.467 0 01-.17-4.21 5.867 5.867 0 012.6-3.18 6 6 0 013.86-.89 6.4 6.4 0 013.43 1.63 8.386 8.386 0 012.71 6.29 10.365 10.365 0 01-1.86 5.71 11.628 11.628 0 01-3.62 3.4 14.611 14.611 0 01-3.43 1.5c-.757.216-1.529.376-2.31.48l-.61.07h-.22c.266-.076.536-.133.81-.17a17.564 17.564 0 002.27-.58 14.655 14.655 0 003.34-1.55c1.379-.857 2.559-2 3.46-3.35a10.066 10.066 0 001.74-5.51 8.01 8.01 0 00-2.6-5.93 5.862 5.862 0 00-3.17-1.49 5.539 5.539 0 00-3.54.82 5.472 5.472 0 00-2.37 2.91 6.002 6.002 0 00.17 3.88 10.39 10.39 0 005.3 5.65 9.71 9.71 0 007.2.44 10.47 10.47 0 005.31-3.92c1.25-1.71 2.11-3.54 3.13-5.07a10.851 10.851 0 013.48-3.55 5.35 5.35 0 013.66-.67 4.088 4.088 0 012.12 1c.209.202.382.439.51.7zm.33 15.58a4.595 4.595 0 01-1.61-1.27 10.998 10.998 0 01-2.77-9.28c.066-.707.288-1.39.65-2 .09 0-.15.77-.28 2a12.193 12.193 0 002.67 9c.79.99 1.4 1.48 1.34 1.55zm3.68-23.05s-.7-.34-2-.85a23.997 23.997 0 00-14.4-1.08 19.606 19.606 0 00-4.8 1.8 3.229 3.229 0 00-1.59 1.9 1.823 1.823 0 001 2c.18.038.367.029.542-.028.176-.056.333-.156.458-.292.292-.312.499-.695.6-1.11a9.155 9.155 0 00.23-2.66 11.9 11.9 0 00-1.28-4.91 11.478 11.478 0 00-2.82-3.63 11.28 11.28 0 00-3.49-2 12.237 12.237 0 00-5.79-.58c-1.38.22-2.11.53-2.12.48.158-.104.33-.185.51-.24a11.116 11.116 0 017.53 0 11.73 11.73 0 013.64 2 11.998 11.998 0 013 3.74 12.345 12.345 0 011.36 5.11 9.724 9.724 0 01-.24 2.82c-.13.5-.381.96-.73 1.34a1.6 1.6 0 01-1.56.45 2.011 2.011 0 01-1.19-1.07 2.626 2.626 0 01-.22-1.54 3.716 3.716 0 011.84-2.24 19.308 19.308 0 014.95-1.82 23.714 23.714 0 018.86-.33c1.977.3 3.904.865 5.73 1.68.508.224 1.002.478 1.48.76.347.18.513.28.5.3zm-77.93 2.87s.62-.48 1.61-1.48a13.885 13.885 0 003.14-5 10.853 10.853 0 00-.25-8.46 10.713 10.713 0 00-3.19-3.94 8.997 8.997 0 00-5-1.89 5.77 5.77 0 00-2.64.55 3.381 3.381 0 00-1.76 1.79c-.129.387-.163.8-.1 1.203.062.404.22.787.46 1.117a3.769 3.769 0 001.89 1.41 5.184 5.184 0 004.33-.74 7.283 7.283 0 002.63-3 15.147 15.147 0 001.25-5.74c0-.66 0-1.2.07-1.63a1.852 1.852 0 01.05-.56c.028.186.028.374 0 .56v1.63a14.494 14.494 0 01-1.06 6.01 7.641 7.641 0 01-2.72 3.18 5.602 5.602 0 01-4.71.83 4.18 4.18 0 01-2.16-1.58 3.054 3.054 0 01-.43-2.77 3.787 3.787 0 012-2.08 6.34 6.34 0 012.89-.61 9.463 9.463 0 015.33 2 11.152 11.152 0 013.32 4.15 10.492 10.492 0 011 4.69 12.044 12.044 0 01-.82 4.1 13.654 13.654 0 01-3.35 5c-.389.371-.81.706-1.26 1-.34.18-.51.28-.52.26zm20.73 14.88a3.727 3.727 0 01-.78-.83 16.126 16.126 0 01-1.72-2.6 18.447 18.447 0 011.29-19.57 16.486 16.486 0 012-2.35c.27-.273.576-.509.91-.7.07.08-1.18 1.14-2.62 3.29a18.993 18.993 0 00-1.27 19.19 39.259 39.259 0 002.19 3.57zm19.54-21.75c-.09 0-.51-1.5-1.75-3.71a20.563 20.563 0 00-15.8-10.45c-2.52-.28-4.1-.06-4.1-.16a4.244 4.244 0 011.1-.19 18.323 18.323 0 013 0 19.77 19.77 0 019.437 3.228 19.767 19.767 0 016.663 7.422c.473.897.864 1.834 1.17 2.8.142.339.236.695.28 1.06z" fill="#FAFAFA"/>
  <path opacity=".3" d="M192.86 192.053c-1 .41-.87 1.93-.07 2.59a4.277 4.277 0 003 .64 38.63 38.63 0 0029.63-16.64c-9 7.41-20.9 10.22-32.31 12.8m-2.04-9.59c-1-1.51-.32-3.63 1-4.91a16.766 16.766 0 014.62-2.75 29.178 29.178 0 0013.48-13.83c1.82-3.94 3.19-8.77 7.22-10.39a39.06 39.06 0 01-25.71 30.66m-28.99-50.63a101.478 101.478 0 01-2.3 32.68 27.504 27.504 0 00-1.11 6.89 9.156 9.156 0 003.32 6.47c1.66-3.83 1.69-7.52 2.39-11.64.63-3.71 1.69-12.38 1.69-12.51.15-7.58-1.64-14.08-4.56-20.91m19.41-33.81a39.916 39.916 0 0011.32 21.24c2.21 2.15 5 4.14 8.05 4a18.842 18.842 0 01-1.55-11.78 48.725 48.725 0 008.24 4.48 16.35 16.35 0 009.2 1l1.9-16.53a3.088 3.088 0 00-.17-1.86 1.071 1.071 0 00-1.59-.38 1.59 1.59 0 00-.31.73c-1.12 4.85-1.75 9.2-2.88 14.06-.81.8-3.3.47-4.94-.14-1.43-.53-2-1.71-2.92-2.9-.92-1.19-.78-1-2.18-1.58-2.58-1.09-7.53-.22-8.61 2.09-1.08 2.31-.26 5.36.46 7.64a34.65 34.65 0 01-14.59-20.24m55.1 23.63c-.2.4 6.23 22.08 6.23 22.08l-8.33-4.75 2.1-17.33z" fill="#000"/>
  <path d="M184.3 57.763v34.51a8.35 8.35 0 002 5.39 25.078 25.078 0 006.94 5.74l7 3.93 5.76-5.15a8.379 8.379 0 002.79-5.91c.1-2.52.09-5 .09-5s9.76-.7 10.68-10.32c.43-4.54.57-13.82.59-22.37a18.72 18.72 0 00-17.26-18.82h-.27a17.89 17.89 0 00-18.32 18z" fill="#FFBE9D"/>
  <path d="M208.8 91.193a23.349 23.349 0 01-12.23-4.75s2.52 7.3 12.21 7.23l.02-2.48z" fill="#EB996E"/>
  <path d="M217.22 64.693a1.381 1.381 0 01-1.44 1.28 1.314 1.314 0 01-.941-.404 1.316 1.316 0 01-.369-.956 1.381 1.381 0 011.44-1.28 1.31 1.31 0 011.31 1.36zm.39-2.3c-.18.16-1.16-.7-2.64-.82-1.48-.12-2.63.54-2.77.34-.14-.2.12-.39.63-.7a3.79 3.79 0 012.23-.49 3.62 3.62 0 012.09.87c.43.39.54.72.46.8zm-14.35 1.6a1.381 1.381 0 01-1.44 1.28 1.332 1.332 0 01-1.32-1.36 1.391 1.391 0 011.44-1.28 1.322 1.322 0 011.32 1.36zm-.22-2.53c-.19.16-1.17-.69-2.65-.81-1.48-.12-2.62.53-2.77.33-.15-.2.13-.39.63-.7a3.85 3.85 0 012.24-.52 3.68 3.68 0 012.09.87c.42.42.55.75.46.83zm4.46 11.42c.8-.184 1.62-.265 2.44-.24.38 0 .75 0 .83-.3a1.914 1.914 0 00-.16-1.14c-.28-1-.57-1.94-.88-3-1.21-4.23-2-7.69-1.88-7.74.12-.05 1.29 3.34 2.5 7.57.29 1 .57 2 .83 3 .204.475.232 1.006.08 1.5a1.007 1.007 0 01-.67.5 2.508 2.508 0 01-.65 0 10.325 10.325 0 01-2.44-.15zm-4.44.66c.24 0 .11 1.62 1.39 2.87 1.28 1.25 3 1.22 3 1.44 0 .22-.4.29-1.13.25a4 4 0 01-2.51-1.12 3.491 3.491 0 01-1.06-2.4c-.01-.67.2-1.06.31-1.04zm.84-17.85c-.18.39-1.64.08-3.39.14-1.75.06-3.2.42-3.4 0-.09-.18.18-.54.78-.88a5.893 5.893 0 015.18-.14c.62.35.91.69.83.88zm13.52 2.37c-.29.31-1.28-.12-2.5-.24s-2.28 0-2.49-.33c-.1-.18.1-.51.58-.79a3.638 3.638 0 014 .46c.43.38.54.74.41.9zm-21.79-10.03h-.06a7.598 7.598 0 00-3.22 4.73v.2c-.61 2.71-.77 5.51-1.4 8.22-.63 2.71-.51 4.78-3.23 5.39a3.602 3.602 0 01-3.78-1.53 2.463 2.463 0 01-.25-1.28c0-6.68-1.3-9.27-.72-16.2a5.885 5.885 0 012.82-4.56c1.54-.92 3.4-1.86 5-1 1.6.86 3.4 4.09 4.54 5.48" fill="#2B2E4A"/>
  <path d="M187.18 62.353c-.15-.08-6.45-2.5-6.79 4.1-.34 6.6 6.37 5.58 6.39 5.39.02-.19.4-9.49.4-9.49z" fill="#FFBE9D"/>
  <path d="M184.89 69.233s-.12.08-.32.16a1.117 1.117 0 01-.86 0 2.84 2.84 0 01-1.19-2.63 3.7 3.7 0 01.41-1.63 1.333 1.333 0 01.91-.84.589.589 0 01.66.35c.08.19 0 .32.06.33.06.01.15-.1.11-.37a.701.701 0 00-.24-.43.823.823 0 00-.62-.2 1.612 1.612 0 00-1.26 1 4 4 0 00-.49 1.82 3 3 0 001.53 2.94 1.257 1.257 0 001.06-.12c.22-.22.26-.36.24-.38z" fill="#EB996E"/>
  <path d="M190.41 43.003c-1.41-2.77 3.35-6.18 6.68-6.94 3.33-.76 7.49 1.19 10.64 2.53 2 .84 3.94 2 6.09 2a14.742 14.742 0 004.26-.71 10.83 10.83 0 014.29-.49 3.997 3.997 0 013.32 2.53c.11.343.144.706.099 1.064a2.486 2.486 0 01-2.099 2.156 3.25 3.25 0 11.36 6.07c1-.64 2.34.65 2.12 1.81a3.419 3.419 0 01-2.45 2.31c-2.85 1-6 .33-8.78-.86-2.78-1.19-5.28-2.9-8-4.16-2.72-1.26-7.3-3.5-10.21-2.73-2.15.56-3.8 2.95-4.93 2.29a4.007 4.007 0 01-1.83-3.11 11.612 11.612 0 01.44-3.74" fill="#2B2E4A"/>
  <path d="M224.52 45.033c-.05 0-.38.45-1.15 1.16a9.058 9.058 0 01-3.86 2.06 8.35 8.35 0 01-6.26-.78c-2.15-1.18-3.9-3.35-5.95-5.43a13.74 13.74 0 00-7.11-4.16 7.623 7.623 0 00-6.5 1.66 5.718 5.718 0 00-1.84 4.13c-.001.417.06.831.18 1.23.037.142.098.278.18.4a9.869 9.869 0 01-.11-1.62 5.643 5.643 0 011.9-3.8 7.221 7.221 0 016.06-1.41 13.328 13.328 0 016.76 4c2 2 3.81 4.25 6.12 5.49a9 9 0 0010.58-1.62c.289-.31.55-.644.78-1 .17-.17.24-.3.22-.31zm-38.99 16.9s.3-.16.59-.66a4.45 4.45 0 00.53-2.36c0-2.14-1.66-4.57-1.66-7.52a6.674 6.674 0 011.06-3.87 4.999 4.999 0 012.64-1.91 4.341 4.341 0 012.22-.12c.53.13.8.28.83.23.03-.05-.22-.26-.75-.47a4.11 4.11 0 00-2.42-.09 5.34 5.34 0 00-3 2 6.999 6.999 0 00-1.22 4.23c.051 1.461.366 2.901.93 4.25.451 1.048.76 2.15.92 3.28a5.14 5.14 0 01-.67 3.01z" fill="#455A64"/>
  <path d="M212.69 252.643h-1.49l-4.36.06c-3.84.06-9.5.21-16.78.56-7.28.35-16.18 1-26.47 2.2-5.13.62-10.63 1.32-16.42 2.28-5.79.96-11.89 2.08-18.24 3.53-6.35 1.45-13 3.17-19.72 5.38a131.588 131.588 0 00-20.45 8.43 65.993 65.993 0 00-9.8 6.27 31.224 31.224 0 00-8 8.78c-.25.44-.51.87-.74 1.32l-.56 1.41-.29.71c-.08.24-.12.49-.19.74l-.35 1.48a14.838 14.838 0 00.3 6.11c1 4.05 3.65 7.54 6.72 10.48 6.26 5.89 14.25 10 22.54 13.42a185.86 185.86 0 0026.27 8.31 345.792 345.792 0 0057.33 8.44 457.219 457.219 0 0058 .23 365.786 365.786 0 0053.56-7 226.073 226.073 0 0024.28-6.55 120.553 120.553 0 0021.71-9.46 60.127 60.127 0 009.15-6.51 26.413 26.413 0 006.62-8.44l.5-1.22c.178-.399.319-.815.42-1.24l.3-1.26c.05-.21.12-.42.15-.63v-.65a12.563 12.563 0 00-.38-5 17.698 17.698 0 00-2.11-4.51 27.257 27.257 0 00-3.1-3.81 46.503 46.503 0 00-7.32-6 75.378 75.378 0 00-7.76-4.62 133.235 133.235 0 00-15.12-6.74 230.258 230.258 0 00-25.36-7.82c-7.07-1.76-12.62-2.88-16.39-3.6-1.88-.37-3.33-.61-4.29-.8l-1.47-.28s2 .29 5.78 1c3.78.71 9.33 1.77 16.42 3.51a224.952 224.952 0 0125.41 7.74 133.646 133.646 0 0115.18 6.71 77.098 77.098 0 017.8 4.63 47.065 47.065 0 017.39 6.07 28.016 28.016 0 013.14 3.85 17.998 17.998 0 012.19 4.61c.483 1.688.619 3.457.4 5.2l-.05.66c0 .22-.1.43-.15.65l-.31 1.29a6.958 6.958 0 01-.43 1.27l-.5 1.25a26.929 26.929 0 01-6.71 8.58 60.034 60.034 0 01-9.22 6.58 120.856 120.856 0 01-21.76 9.52 225.312 225.312 0 01-24.33 6.59 365.486 365.486 0 01-53.63 7 456.28 456.28 0 01-58.07-.22 345.823 345.823 0 01-57.42-8.47 184.578 184.578 0 01-26.34-8.34c-8.31-3.46-16.34-7.57-22.68-13.53-3.11-3-5.84-6.54-6.85-10.72a15.359 15.359 0 01-.3-6.29l.37-1.53c.06-.26.11-.51.19-.76l.29-.73.59-1.44c.23-.46.5-.91.75-1.36a31.72 31.72 0 018.15-8.9 67.135 67.135 0 019.88-6.3 131.248 131.248 0 0120.52-8.43c6.78-2.2 13.4-3.92 19.76-5.36 6.36-1.44 12.48-2.58 18.28-3.49 5.8-.91 11.3-1.65 16.44-2.25 10.3-1.15 19.21-1.76 26.49-2.11 7.28-.35 12.95-.44 16.79-.47h5.85v-.01z" fill="#2B2E4A"/>
  <path d="M130.97 176.873s-.57.13-1.68.35c-1.11.22-2.77.54-4.94 1-4.34.9-10.73 2.29-18.84 4.51a193.044 193.044 0 00-28.82 10.21c-2.71 1.24-5.49 2.61-8.26 4.18a78.74 78.74 0 00-8.29 5.32 46.356 46.356 0 00-7.65 7 24.148 24.148 0 00-5.19 9.52 17.44 17.44 0 00.83 11.19 28.764 28.764 0 006.92 9.69c5.92 5.67 13.43 10 21.42 13.67 16.11 7.32 34.5 12.23 54 15.89a451.58 451.58 0 0062 6.84 534.823 534.823 0 0067-1.19c22.86-1.91 45.11-5.27 66.05-10.77a197.722 197.722 0 0030.08-10.32 103.777 103.777 0 0013.49-7.2 51.87 51.87 0 0011.45-9.66c3.19-3.73 5.54-8.3 5.68-13.12.02-.597 0-1.195-.06-1.79a12.977 12.977 0 00-.19-1.77l-.39-1.74a12.726 12.726 0 00-.57-1.68 25.44 25.44 0 00-3.43-6.13 47.14 47.14 0 00-10.15-9.37 92.91 92.91 0 00-11.61-6.79 164.62 164.62 0 00-23.78-9.33c-7.84-2.45-15.48-4.4-22.82-6a439.426 439.426 0 00-70.61-9c-8.4-.43-14.94-.45-19.37-.56l-5-.11-1.71-.06h1.71l5 .06c4.43.08 11 .06 19.38.47a434.72 434.72 0 0170.68 8.85c7.35 1.62 15 3.55 22.86 6a163.56 163.56 0 0123.85 9.34 92.037 92.037 0 0111.68 6.74 47.715 47.715 0 0110.25 9.45 25.732 25.732 0 013.5 6.25c.238.557.432 1.132.58 1.72l.41 1.78c.109.601.172 1.209.19 1.82.068.607.092 1.219.07 1.83a18.653 18.653 0 01-1.74 7.16 26.572 26.572 0 01-4 6.26 52.066 52.066 0 01-11.56 9.76 102.808 102.808 0 01-13.65 7.3 199.076 199.076 0 01-30.15 10.37c-21 5.51-43.25 8.88-66.14 10.79a533.872 533.872 0 01-67 1.18 452.563 452.563 0 01-62-6.87c-19.55-3.69-38-8.62-54.12-16-8-3.73-15.55-8.05-21.52-13.79a29.231 29.231 0 01-7-9.82 17.85 17.85 0 01-.82-11.44 24.38 24.38 0 015.27-9.64 46.245 46.245 0 017.73-7.08 78.243 78.243 0 018.33-5.32c2.78-1.57 5.57-2.94 8.29-4.18a192.245 192.245 0 0128.93-10.13 288.93 288.93 0 0118.88-4.42c4.35-.87 6.55-1.22 6.55-1.22zm35.06 150.89l-5 .79c-3.27.52-8.08 1.35-14.23 2.69a182.378 182.378 0 00-22 6.21 103.955 103.955 0 00-13.1 5.7 55.942 55.942 0 00-6.64 4.06 34.356 34.356 0 00-6.11 5.44 19.815 19.815 0 00-2.42 3.48 13.913 13.913 0 00-1.49 4c-.05.36-.14.72-.17 1.09l-.07 1.1c0 .73.1 1.47.16 2.21.155.733.348 1.457.58 2.17l.42 1.05.21.53.28.49a24.658 24.658 0 006 7.07 49.317 49.317 0 008.06 5.41 107.095 107.095 0 0018.85 7.87 193.886 193.886 0 0021 5.37 311.852 311.852 0 0046.26 5.53c16.667.822 33.371.531 50-.87 17.08-1.48 33.7-4.09 49.27-8.49a123.99 123.99 0 0022.2-8.46 55.877 55.877 0 009.65-6.23c.76-.57 1.41-1.27 2.11-1.9.7-.63 1.27-1.38 1.91-2.06a18.146 18.146 0 002.84-4.75 12.742 12.742 0 00-.44-10.55 25.344 25.344 0 00-6.88-8c-5.51-4.38-11.77-7.33-17.88-9.78a151.143 151.143 0 00-18.19-5.83c-5.94-1.53-11.71-2.74-17.24-3.71a341.93 341.93 0 00-53-4.85l-19.53-.1s6.95-.09 19.53 0a338.685 338.685 0 0153 4.75c5.55 1 11.32 2.17 17.27 3.7a150.339 150.339 0 0118.28 5.87c6.12 2.45 12.4 5.4 17.95 9.81a25.652 25.652 0 017 8.11 13.006 13.006 0 01.45 10.77 18.687 18.687 0 01-2.88 4.83c-.65.69-1.24 1.44-1.94 2.09-.7.65-1.35 1.34-2.12 1.91a55.87 55.87 0 01-9.71 6.28 124.407 124.407 0 01-22.25 8.49 266.95 266.95 0 01-49.32 8.5 376.244 376.244 0 01-50.06.87 313.618 313.618 0 01-46.29-5.55 196.253 196.253 0 01-21-5.4 106.206 106.206 0 01-18.9-7.9 50.034 50.034 0 01-8.09-5.45 24.723 24.723 0 01-6.06-7.15l-.29-.5-.21-.54-.43-1.06c-.27-.72-.38-1.48-.58-2.21-.2-.73-.16-1.51-.16-2.26l.07-1.12c0-.37.12-.73.18-1.1a13.992 13.992 0 011.51-4.11 20.222 20.222 0 012.45-3.51 34.33 34.33 0 016.15-5.47 57.296 57.296 0 016.68-4.07 102.619 102.619 0 0113.02-5.71 180.509 180.509 0 0122.07-6.17c6.15-1.32 11-2.13 14.24-2.63s5.03-.75 5.03-.75z" fill="#2B2E4A"/>
  <path d="M296.61 419.233a10.364 10.364 0 00-.83-3.65c-.93-2.29-3.42-5.14-7.33-7.72-7.85-5.17-21-9.51-37.52-12.17a227.793 227.793 0 00-27.24-2.67 262.157 262.157 0 00-31.45.58c-5.53.43-11.18 1.07-16.91 2a159.804 159.804 0 00-17.36 3.67c-2.91.78-5.82 1.69-8.69 2.74a69.773 69.773 0 00-8.49 3.7 34.338 34.338 0 00-7.69 5.33c-2.27 2.12-4.12 5-4.17 8.2-.05 3.2 1.89 6.08 4.16 8.21a34.289 34.289 0 007.6 5.31 68.355 68.355 0 008.49 3.7c2.87 1.06 5.78 2 8.69 2.75a160.03 160.03 0 0017.37 3.67c5.73.91 11.38 1.55 16.91 2a260.461 260.461 0 0031.46.58 227.89 227.89 0 0027.32-2.7c16.54-2.66 29.67-7 37.53-12.17 3.91-2.58 6.39-5.43 7.32-7.72.495-1.153.777-2.386.83-3.64 0 .15 0 .4-.07.95a4.918 4.918 0 01-.21 1.16 7.351 7.351 0 01-.52 1.54c-.92 2.31-3.4 5.18-7.31 7.78-7.86 5.2-21 9.57-37.55 12.25a229.856 229.856 0 01-27.3 2.7 262.654 262.654 0 01-31.48-.56c-5.53-.44-11.18-1.07-16.92-2a157.62 157.62 0 01-17.39-3.66c-2.92-.78-5.83-1.69-8.71-2.75a71.18 71.18 0 01-8.52-3.71 34.91 34.91 0 01-7.74-5.36 15.516 15.516 0 01-2.94-3.75 9.004 9.004 0 010-9.22 15.57 15.57 0 013-3.74 34.91 34.91 0 017.74-5.36 71.596 71.596 0 018.51-3.71c2.89-1.06 5.8-2 8.72-2.75a160.358 160.358 0 0117.38-3.66c5.74-.91 11.39-1.55 16.92-2a260.585 260.585 0 0131.48-.56 227.768 227.768 0 0127.3 2.69c16.54 2.68 29.69 7.05 37.55 12.25 3.91 2.6 6.39 5.47 7.31 7.78.228.493.403 1.009.52 1.54.116.377.187.766.21 1.16-.01.58.01.84.02.99zm-220.92-155.1a3.19 3.19 0 11-6.378-.02 3.19 3.19 0 016.378.02zm285.52 5.35a3.19 3.19 0 100-6.38 3.19 3.19 0 000 6.38zm-127.02 114.45a3.194 3.194 0 01-1.971 2.964 3.196 3.196 0 01-4.368-2.332 3.202 3.202 0 015.405-2.888c.598.599.934 1.41.934 2.256zm-96.95-82.04a1.6 1.6 0 11-3.2 0 1.6 1.6 0 013.2 0zm198.51 38.68a1.6 1.6 0 11-3.201 0 1.6 1.6 0 013.201 0z" fill="#2B2E4A"/>
  <path d="M209.69 414.403a1.6 1.6 0 11-3.201 0 1.6 1.6 0 013.201 0zm-83.28-278.67a.8.8 0 100-1.6.8.8 0 000 1.6zm143.93 122.03c-38.77 10.26-76.14 9.48-116.87 0l-4.78-74.48c42.09 8.19 84.34 7.15 121.63-1.76l.02 76.24z" fill="#2B2E4A"/>
  <path opacity=".8" d="M270.34 257.763c-38.77 10.26-76.14 9.48-116.87 0l-4.78-74.48c42.09 8.19 84.34 7.15 121.63-1.76l.02 76.24z" fill="#fff"/>
  <path d="M264.33 246.413a.993.993 0 01-.25.12l-.73.31c-.65.26-1.59.68-2.84 1.13a107.268 107.268 0 01-10.73 3.36 140.261 140.261 0 01-36.78 4.2 214.839 214.839 0 01-36.86-3.94c-4.67-.89-8.42-1.71-11-2.31-1.29-.29-2.29-.54-3-.71l-.77-.2c-.17-.05-.26-.08-.25-.09h.27l.78.15 3 .61c2.59.54 6.36 1.31 11 2.14a226.373 226.373 0 0036.8 3.79c12.35.235 24.68-1.109 36.69-4 4.59-1.16 8.25-2.32 10.75-3.21 1.26-.41 2.21-.8 2.87-1l.75-.26a.757.757 0 01.3-.09z" fill="#2B2E4A"/>
  <path d="M207.36 249.443a25.392 25.392 0 01-14.92-.5v-26.5c4.923-1 9.997-1 14.92 0v27zm24.1-1.57a1.053 1.053 0 010-.21v-.57c0-.54 0-1.28-.07-2.22 0-1.95-.09-4.74-.16-8.23-.1-7-.25-16.87-.42-28.28l.2.24a40.317 40.317 0 00-15.45 0l.21-.25v.52c.16 15.66.31 29.81.41 39.91l-.15-.18c2.141.465 4.32.733 6.51.8a24.502 24.502 0 004.91-.41 22.987 22.987 0 003-.79l.75-.26c.089-.039.183-.066.28-.08l-.24.11-.76.33c-.977.37-1.979.668-3 .89a23.513 23.513 0 01-4.95.49 34.166 34.166 0 01-6.58-.72h-.14v-.2c-.15-10.1-.35-24.24-.57-39.9v-.75h.22a40.313 40.313 0 0115.64 0l.2.05v.2c.09 11.46.16 21.35.22 28.41v10.92c0 .15-.05.18-.06.18zm22.94-3.11c-4 2.16-9.25 2.45-14.93 2.12v-43.78a31.926 31.926 0 0114.93 0v41.66zm-70.71 2.52s0-.41-.05-1.13 0-1.79-.06-3.06c0-2.66-.07-6.35-.11-10.74l.14.21a33.346 33.346 0 00-14.37-2.39l.24-.26v14.93l-.13-.2a27.87 27.87 0 005.76 1.64c1.77.32 3.32.5 4.61.63l3 .25c.355.02.709.06 1.06.12a7.812 7.812 0 01-1.06 0c-.7 0-1.71 0-3-.13s-2.86-.24-4.64-.53a26.793 26.793 0 01-5.88-1.59l-.13-.06v-15.32h.26c4.986-.279 9.97.572 14.58 2.49l.15.05v.16c0 4.45-.09 8.19-.12 10.89 0 1.25 0 2.25-.06 3-.033.352-.096.7-.19 1.04zm7-38.73c-.965.155-1.943.215-2.92.18-1.81 0-4.31 0-7.06-.17s-5.23-.42-7-.66a14.814 14.814 0 01-2.88-.52c.973-.024 1.946.029 2.91.16 1.8.14 4.28.34 7 .5 2.72.16 5.23.26 7 .32.987-.012 1.973.052 2.95.19zm-2.23 3.26c-.851.085-1.709.085-2.56 0-1.58-.08-3.76-.22-6.17-.4-2.41-.18-4.59-.38-6.16-.55a12.646 12.646 0 01-2.53-.38 12.882 12.882 0 012.56 0c1.59.08 3.76.22 6.17.4 2.41.18 4.58.38 6.15.55.857.043 1.708.17 2.54.38z" fill="#2B2E4A"/>
  <path d="M193.92 216.083v-.93c0-.59.05-1.5.1-2.58.1-2.26.25-5.44.44-9.35l.19.21c-9.234.084-18.463-.43-27.63-1.54l.29-.24v.82l-.05.84c0 .56-.06 1.12-.1 1.67-.06 1.11-.12 2.2-.19 3.27-.13 2.15-.25 4.23-.37 6.22l-.21-.26c8 1 14.89 1.4 19.78 1.59l5.73.17 1.5.05h.55a2.981 2.981 0 01-.5 0c-.34 0-.88 0-1.55.05h-5.74c-4.9-.1-11.82-.46-19.83-1.41h-.23v-.24c.11-2 .23-4.07.35-6.22.06-1.07.12-2.16.19-3.27l.09-1.67v-1.66l.29-.24a236.078 236.078 0 0027.67 1.69h.2v.2c-.27 3.94-.49 7.16-.65 9.44-.08 1.06-.15 1.91-.2 2.53-.012.29-.052.578-.12.86zm3.41 5.61a11.833 11.833 0 01-1.93-2.67 9.583 9.583 0 01-1.48-2.94 11.833 11.833 0 011.93 2.67 9.583 9.583 0 011.48 2.94zm-162-96.93L48 201.443s19.35 36.22 70.75 44.38l-8.29-68.44s-47.54-14.72-75.13-52.62z" fill="#2B2E4A"/>
  <path opacity=".8" d="M35.33 124.763L48 201.443s19.35 36.22 70.75 44.38l-8.29-68.44s-47.54-14.72-75.13-52.62z" fill="#fff"/>
  <path d="M112.12 240.343l-.32-.08-1-.27-3.62-1.11c-1.57-.5-3.52-1-5.69-1.9l-3.49-1.33c-1.25-.47-2.56-1-3.89-1.6-2.67-1.22-5.64-2.48-8.66-4.18-3.02-1.7-6.24-3.53-9.52-5.62a95.3 95.3 0 01-19.1-16.55 56.631 56.631 0 01-6.89-9.61l-5.8-37.5c-.7-4.68-1.27-8.43-1.66-11.06l-.42-3-.1-.77a1.089 1.089 0 010-.27.973.973 0 01.06.26l.15.77.51 3c.43 2.62 1 6.37 1.81 11 1.5 9.42 3.6 22.54 6 37.47v-.07a57.284 57.284 0 006.82 9.5 95.997 95.997 0 0019 16.49c3.26 2.1 6.37 4.07 9.45 5.64 3.08 1.57 5.95 3 8.61 4.22 1.32.65 2.63 1.16 3.86 1.63l3.46 1.36c2.15.91 4.09 1.45 5.64 2l3.59 1.2.93.32c.092.011.182.031.27.06z" fill="#2B2E4A"/>
  <path d="M107.6 218.083s0 .06-.17.16l-.55.44-2.13 1.66-8.06 6.19-.12.1-.1-.14c-2.72-3.75-6.07-8.39-9.87-13.66l.3.05-7.57 5.4-.25.18-.11-.3c-3-8-6.27-17-9.76-26.47l-1.4-3.81h.47l-6.16 12.24-.27.53-.19-.56c-5.37-15.46-9.92-28.6-12.88-37.13h.27c-.81 3.42-1.45 6.11-1.89 8-.22.9-.4 1.6-.52 2.1l-.14.54a.624.624 0 01-.07.18v-.19c0-.14.06-.32.1-.54l.45-2.12c.41-1.89 1-4.59 1.76-8l.11-.48.17.47c3 8.51 7.63 21.62 13.08 37.05h-.46l6.15-12.24.27-.54.21.56 1.4 3.81c3.47 9.48 6.77 18.47 9.71 26.49l-.36-.11 7.6-5.36.17-.12.13.17 9.77 13.68h-.23l8.17-6.07 2.18-1.6.57-.4.22-.16zm-1.77-36.77a4.7 4.7 0 01-1.08-.24c-.68-.19-1.67-.49-2.87-.89a94.036 94.036 0 01-9.19-3.62 98.081 98.081 0 01-8.83-4.53c-1.09-.64-2-1.18-2.56-1.57a4.548 4.548 0 01-.89-.65c.351.119.687.281 1 .48l2.64 1.42c2.23 1.19 5.34 2.79 8.86 4.38 3.52 1.59 6.77 2.86 9.14 3.75 1.11.4 2 .75 2.81 1 .343.112.669.27.97.47zm2.04 3.18a10.353 10.353 0 01-2.48-.44 57.396 57.396 0 01-5.83-1.74 58.081 58.081 0 01-5.61-2.35 10.755 10.755 0 01-2.19-1.23c.81.227 1.596.528 2.35.9 1.43.59 3.41 1.39 5.63 2.19 2.22.8 4.26 1.43 5.75 1.88.816.19 1.613.454 2.38.79z" fill="#2B2E4A"/>
  <path d="M87.62 212.853c0 .64-.39 1.15-.87 1.15s-.86-.51-.86-1.15c0-.64.39-1.15.86-1.15s.87.52.87 1.15zm-19.67-23.09c.475 0 .86-.515.86-1.15 0-.635-.385-1.15-.86-1.15s-.86.515-.86 1.15c0 .635.385 1.15.86 1.15zm-18.13-26.44c0 .63-.39 1.15-.86 1.15s-.86-.52-.86-1.15c0-.63.38-1.15.86-1.15s.86.52.86 1.15zm320.87-24.92l-6.35 77.9s-18.57 33.31-69.65 34.58l6.31-78.43s44.57-1.81 69.69-34.05z" fill="#2B2E4A"/>
  <path d="M369.69 134.343c-1.66-5.39-5.7-13.08-15.3-14.68l-11.32 104.78s21.31-4.25 21.88-15.93c.05-1 4.31-53.09 5.38-66a21.116 21.116 0 00-.64-8.17z" fill="#2B2E4A"/>
  <path opacity=".8" d="M370.69 138.403l-6.35 77.9s-18.57 33.31-69.65 34.58l6.31-78.43s44.57-1.81 69.69-34.05z" fill="#fff"/>
  <path d="M369.14 158.263a46.14 46.14 0 00-8.13 25.19c-.05 2.59.1 5.26-.89 7.65-.99 2.39-3.55 4.39-6 3.71-2.45-.68-3.77-3.8-6.05-5.24a6.75 6.75 0 00-6.85.15 11.53 11.53 0 00-4.5 5.47c-1.85 4.27-2 9.09-3.34 13.54-1.34 4.45-4.72 8.94-9.38 9.14-1.7.07-3.38-.44-5.08-.39-3.59.11-6.71 2.78-8.38 6-1.67 3.22-2.18 6.83-2.66 10.39 0 0 27.22 2.6 57.77-33.48l3.49-42.13z" fill="#2B2E4A"/>
  <path d="M325.87 205.513c0 1-.48 1.75-1.07 1.75-.59 0-1.06-.78-1.06-1.75s.47-1.75 1.06-1.75c.59 0 1.07.79 1.07 1.75zm12.82-32.38c0 1-.48 1.75-1.07 1.75-.59 0-1.06-.79-1.06-1.75s.47-1.75 1.06-1.75c.59 0 1.07.78 1.07 1.75z" fill="#2B2E4A"/>
  <path d="M368.53 162.023a2.397 2.397 0 01-.17.44l-.58 1.27c-.54 1.13-1.29 2.73-2.24 4.75l-8.12 16.91-.11.23-.22-.14-19.25-12.18.38-.12c-.25.62-.53 1.29-.8 2l-12.43 30.41-.09.21-.19-.11c-4.8-2.7-8.72-4.87-11.44-6.35-1.37-.74-2.43-1.31-3.16-1.68l-.83-.4-.29-.13a23.21 23.21 0 014.38 2c2.76 1.42 6.7 3.54 11.53 6.2l-.28.1 12.32-30.49c.27-.67.55-1.34.8-2l.12-.29.26.17 19.22 12.24-.33.09c3.41-6.93 6.27-12.72 8.29-16.82l2.39-4.67.64-1.23c.055-.142.122-.279.2-.41z" fill="#2B2E4A"/>
</svg>
