<svg width="553" height="383" fill="none" xmlns="http://www.w3.org/2000/svg">
  <path d="M552.48 364.83H97.78V.13l454.7 1.74v362.96z" fill="#263238"/>
  <path d="M534.76 17.03H115.51v330.06h419.25V17.03z" fill="#455A64"/>
  <path opacity=".1" d="M291 335.93c-53.31.95-103.86-28.1-117.16-40.37-13.3-12.27-21.38-31.87-14.67-48.38 5.08-12.5 17.29-20.66 29.47-26.8 12.18-6.14 25.3-11.21 35.08-20.61 5.56-5.36 10-13 7.92-20.48-3-10.64-16.42-13.7-26.34-18.9-17.32-9.09-27-29.41-25.72-48.58 1.28-19.17 12.17-36.83 27-49.21 14.83-12.38 33.28-19.92 52.13-24.83a228.79 228.79 0 01147 11.4c23.89 10.32 46.58 25.39 60.61 47.07 14.58 22.53 18.55 50.34 16.56 76.84-2.69 35.93-16.11 71.36-40.32 98.18-37.08 41.08-95.41 67.2-151.52 64.67" fill="#fff"/>
  <path d="M310.82 51.51a9.23 9.23 0 01-6.55 1.41c0-.15 1.51-.21 3.3-.6 1.79-.39 3.18-.95 3.25-.81zm-43.21-2.39a3.05 3.05 0 01-.79.34c-.52.19-1.28.44-2.26.7a37.31 37.31 0 01-8.08 1.23.259.259 0 01-.26-.24.338.338 0 010-.11L258 46.9c1.7-4 3.25-7.67 4.41-10.3.55-1.23 1-2.27 1.39-3.1.147-.388.338-.757.57-1.1-.091.405-.222.8-.39 1.18l-1.23 3.16a645.21 645.21 0 01-4.27 10.36c-.61 1.45-1.19 2.84-1.74 4.13l-.24-.34a43.716 43.716 0 008-1c1.95-.47 3.09-.83 3.11-.77z" fill="#FAFAFA"/>
  <path d="M274.87 31.88c0 .15-3.07.16-6.83.42-3.76.26-6.8.64-6.83.49a7.992 7.992 0 012-.46 46.984 46.984 0 014.82-.55c1.9-.13 3.62-.14 4.86-.1a7 7 0 011.98.2zm-7.57 9.97a10.83 10.83 0 01-3.85 1.14 11.14 11.14 0 01-4 .19 27.019 27.019 0 013.93-.7c1.29-.303 2.6-.513 3.92-.63zm12.51 8.88c-.792.342-1.621.59-2.47.74a34.435 34.435 0 01-6.43.84.259.259 0 01-.26-.25.228.228 0 01.11-.21 15.565 15.565 0 002.05-1.74 14.778 14.778 0 002.63-3.63 6.114 6.114 0 00.68-1.79 1.546 1.546 0 00-.35-1.44 1.517 1.517 0 00-1.21-.31 3 3 0 00-1 .36 5.588 5.588 0 01-.8.45s.2-.27.7-.62a2.69 2.69 0 011-.47 1.78 1.78 0 011.5.31 1.934 1.934 0 01.54 1.78 6.278 6.278 0 01-.68 2 14.71 14.71 0 01-2.69 3.78 13.963 13.963 0 01-2.14 1.78l-.15-.46a45.17 45.17 0 006.38-.64 20.494 20.494 0 012.59-.48zm9.92-8.28a9.859 9.859 0 01-4 .94c-1.357.205-2.743.13-4.07-.22a38.72 38.72 0 014-.29 38.512 38.512 0 014.07-.43zm12.82 2.91s.11.08.3.31c.01.011.015.025.015.04a.059.059 0 01-.015.04c-.63.16-2.12.45-4.14.81l-3.4.59-.95.16a1.797 1.797 0 01-.58 0 .628.628 0 01-.51-.59c.006-.189.033-.377.08-.56l.1-.51.2-1c.65-3.29 1.26-6.25 1.73-8.4.202-1.167.493-2.317.87-3.44a24.161 24.161 0 01-.51 3.51 424.183 424.183 0 01-1.78 9.43l-.11.5a3.847 3.847 0 00-.07.44c0 .08 0 .08.1.11.132.024.268.024.4 0l.95-.15 3.41-.51c2-.29 3.54-.48 4.19-.53v.1c-.24-.22-.3-.34-.28-.35z" fill="#FAFAFA"/>
  <path d="M300.71 40.52a8.78 8.78 0 01-3.61.71 9.239 9.239 0 01-3.67-.29 24.13 24.13 0 013.64-.23 25.205 25.205 0 013.64-.19zm3.13-8.12a27.845 27.845 0 01-5.22 1.29 28.28 28.28 0 01-5.32.78 27.845 27.845 0 015.22-1.29 28.171 28.171 0 015.32-.78zm3.87 20.27a8.47 8.47 0 01-.32-2.31 46.793 46.793 0 010-5.63c.05-.8.11-1.56.18-2.27l.49.1a8.829 8.829 0 01-2.13 3.54 3.726 3.726 0 01-1.29 1c-.05-.06.42-.43 1.06-1.19a9.711 9.711 0 001.88-3.47.25.25 0 01.49.09c-.06.7-.11 1.46-.16 2.25-.12 2.18-.13 4.15-.12 5.59a12.72 12.72 0 01-.08 2.3zm12.6-11.59a20.89 20.89 0 01-8.46.91c2.807-.417 5.629-.72 8.46-.91z" fill="#FAFAFA"/>
  <path d="M317 46.31a18.453 18.453 0 01-1.1-4.19 18.39 18.39 0 01-.6-4.29c.537 1.347.91 2.754 1.11 4.19a17.96 17.96 0 01.59 4.29zm16.1.04a9.91 9.91 0 01-2.46.62 30 30 0 01-6.34.41.244.244 0 01-.177-.077.238.238 0 01-.063-.183c.07-.84.14-1.72.22-2.62.28-3.16.56-6 .78-8.08.072-1.12.233-2.234.48-3.33a22.444 22.444 0 01-.11 3.36c-.13 2.07-.35 4.93-.63 8.09-.08.91-.16 1.78-.24 2.62l-.24-.27c2.096.098 4.197.021 6.28-.23a21.95 21.95 0 012.5-.31z" fill="#FAFAFA"/>
  <path d="M333.67 32.89a18.99 18.99 0 01-4.36.49 18.358 18.358 0 01-4.39 0c2.889-.49 5.826-.64 8.75-.45v-.04zm-3.25 7.37a9.199 9.199 0 01-3 .72 9.53 9.53 0 01-3.09.2 9.623 9.623 0 013-.72 9.469 9.469 0 013.09-.2zm16.45.22c-.13-.07-.07-.41.13-.75 0-.06.07-.12.11-.17a.241.241 0 01.33 0 .2.2 0 01.08.12c.1.29.11.53 0 .58-.11.05-.3-.11-.45-.38h.44a.994.994 0 01-.09.17c-.17.28-.42.5-.55.43zm-2.3 11.94a33.532 33.532 0 001.93-3.85c.404-1.382.722-2.788.95-4.21a9.318 9.318 0 01-2.88 8.06zm-11.2-2.33s-.07.17-.27.41a.109.109 0 01-.075.03.109.109 0 01-.075-.03.118.118 0 010-.14 32.96 32.96 0 013.29-4 21.436 21.436 0 014.24-3.8c.1.11-1.73 1.87-3.86 4.15-1.58 1.69-2.89 3.2-3.5 3.82l-.16-.13c.247-.227.383-.33.41-.31z" fill="#FAFAFA"/>
  <path d="M339.07 50.5a30.799 30.799 0 01-2.13-5.2 31.396 31.396 0 01-1.64-5.39 30.701 30.701 0 012.13 5.21 30.004 30.004 0 011.64 5.38zM187.33 82.79a3.01 3.01 0 01-.4-.84 14.566 14.566 0 01-.69-2.45 18.01 18.01 0 014.36-15.67 14.1 14.1 0 011.86-1.74 3.07 3.07 0 01.78-.52c.06.07-1 .88-2.36 2.5a18.999 18.999 0 00-4.28 15.37c.33 2.09.82 3.32.73 3.35zm8.27-2.91a7.092 7.092 0 01-.46-1.92 37.122 37.122 0 01-.45-4.73 37.656 37.656 0 01.13-4.75 6.22 6.22 0 01.33-1.95c.15 0-.07 3 .06 6.68.13 3.68.55 6.64.39 6.67zm11.79-.29a1.22 1.22 0 01-.57.41 2.57 2.57 0 01-2-.07 3.447 3.447 0 01-1.17-.8 3.605 3.605 0 01-.82-1.43 8.814 8.814 0 01-.16-3.82.241.241 0 01.48.06 9.669 9.669 0 01-2.08 4.92 3.552 3.552 0 01-2.69 1.49 1.644 1.644 0 01-1.34-.82 2.465 2.465 0 01-.3-1.43 4.502 4.502 0 012.67-3.78 4.3 4.3 0 013.16-.07c.379.106.724.31 1 .59 0 0-.36-.2-1.06-.4a4.27 4.27 0 00-2.95.22 4.118 4.118 0 00-2.34 3.46c-.028.401.055.803.24 1.16a1.153 1.153 0 00.95.56 3.115 3.115 0 002.25-1.31 9.436 9.436 0 002-4.65l.48.06a8.578 8.578 0 00.07 3.63 3.166 3.166 0 001.72 2.09 2.49 2.49 0 001.78.19c.46-.13.65-.3.68-.26zm2.87 2a10.052 10.052 0 01-.47-2.36c-.2-1.47-.41-3.52-.51-5.79-.1-2.27-.06-4.32 0-5.8a9.845 9.845 0 01.27-2.4c.11.795.143 1.599.1 2.4 0 1.48 0 3.53.13 5.78.13 2.25.25 4.29.36 5.77.122.794.162 1.598.12 2.4zm6.01-4.94c0 .14-.76.3-1.71.36s-1.73 0-1.73-.15.75-.31 1.7-.37 1.73.01 1.74.16zm10.12-5.98c0 .14-.9.49-2.09.79a4.999 4.999 0 01-2.21.28c0-.14.9-.49 2.09-.79a5.001 5.001 0 012.21-.28z" fill="#FAFAFA"/>
  <path d="M218.87 80.07a6.248 6.248 0 003 .57 5.07 5.07 0 002.94-1.26 3.63 3.63 0 001-1.53c.225-.62.225-1.3 0-1.92a1.5 1.5 0 00-.92-.82 2.17 2.17 0 00-1.26 0 5.791 5.791 0 00-2 1.39.22.22 0 01-.31 0 .223.223 0 01-.022-.095c0-.033.008-.065.022-.095.28-1.53.52-2.8.71-3.68a6.39 6.39 0 01.36-1.38c.029.476-.004.953-.1 1.42-.12.9-.3 2.18-.53 3.72l-.38-.2a6.07 6.07 0 012.19-1.55 2.66 2.66 0 011.56 0 2.002 2.002 0 011.24 1.1 3.615 3.615 0 01-1.17 4 5.24 5.24 0 01-3.24 1.26 4.72 4.72 0 01-2.29-.45 1.885 1.885 0 01-.8-.48zm8.19 2.86a28.93 28.93 0 001.89-2.46 11.68 11.68 0 00-.87-13.81 29.672 29.672 0 00-2.18-2.21c.269.097.519.24.74.42a9.895 9.895 0 011.72 1.55 11.459 11.459 0 01.9 14.25 9.69 9.69 0 01-1.52 1.75c-.196.208-.426.38-.68.51zm12.87-13.4a5.12 5.12 0 01-1.67.64 15.85 15.85 0 01-4.5.54.25.25 0 01-.24-.26.335.335 0 010-.1c.32-.71.65-1.49.94-2.31.402-1.058.736-2.14 1-3.24a1.39 1.39 0 00-.21-1.22 1.48 1.48 0 00-1-.44c-.6.018-1.181.213-1.67.56-.37.23-.59.36-.61.33-.02-.03.15-.21.49-.5a3 3 0 011.8-.76 1.88 1.88 0 011.33.51 1.812 1.812 0 01.36 1.6 22.888 22.888 0 01-.94 3.33 22.485 22.485 0 01-1 2.35l-.22-.35a27.338 27.338 0 006.14-.68zm-2.58 17.66c0 .14-12.52.26-28 .26s-28-.12-28-.26 12.52-.26 28-.26 28 .12 28 .26zm-34 3.64a6.75 6.75 0 01-3.22 1.21 6.82 6.82 0 01-3.45 0c0-.15 1.53-.15 3.36-.49 1.83-.34 3.25-.86 3.31-.72zm-9.84 10.39c.168.266.362.514.58.74a3.102 3.102 0 002.32.72 6.479 6.479 0 003.31-1.66 19.352 19.352 0 001.7-1.5 4.006 4.006 0 001.15-2 2.443 2.443 0 00-.46-1.876 2.436 2.436 0 00-1.68-.954 2.518 2.518 0 00-2.54 1.8.2.2 0 01-.029.07.189.189 0 01-.201.08.189.189 0 01-.15-.19v-3a4.428 4.428 0 01.07-1.12c.098.362.148.735.15 1.11.06.71.13 1.75.2 3h-.38a2.849 2.849 0 015.56 1.21 4.457 4.457 0 01-1.3 2.23 19.46 19.46 0 01-1.76 1.51 6.515 6.515 0 01-3.59 1.66 3.195 3.195 0 01-2.49-1 1.34 1.34 0 01-.46-.83zm15.87 2.32a45.484 45.484 0 01.43-6.81c.14-2.275.458-4.535.95-6.76a45.355 45.355 0 01-.43 6.81 44.911 44.911 0 01-.95 6.76zm16.04-6.1c-.173.264-.385.5-.63.7a5.704 5.704 0 01-2.23 1.41 2.85 2.85 0 01-1.9-.1A3.522 3.522 0 01219 98c-.85-1.37-.76-3.17-.58-4.88l.49.14a7.455 7.455 0 00-.52 1.94c-.08.5-.203.992-.37 1.47a3.31 3.31 0 01-.85 1.28 2.44 2.44 0 01-1.35.67 1.66 1.66 0 01-1.4-.52 2.517 2.517 0 01-.37-2.53 8.557 8.557 0 011-1.93 3.36 3.36 0 011.37-1.2 2 2 0 011.38-.09c.77.23.9.75.88.73a1.862 1.862 0 00-.93-.54 2 2 0 00-1.21.16 3.28 3.28 0 00-1.19 1.14 8.947 8.947 0 00-.91 1.86 2.12 2.12 0 00.31 2.07 1.185 1.185 0 001 .36 2 2 0 001.06-.55 4.047 4.047 0 001.05-2.47c.098-.712.29-1.408.57-2.07a.26.26 0 01.34-.13.265.265 0 01.114.107c.027.047.04.1.036.153-.19 1.71-.26 3.38.46 4.6a3.11 3.11 0 001.39 1.33 2.51 2.51 0 001.65.14 6.167 6.167 0 002.2-1.22c.244-.223.512-.417.8-.58zm1.8 4.56c-.15 0 .55-2.87 1-6.43.45-3.56.41-6.47.57-6.47a29.884 29.884 0 01-1.54 12.9h-.03zm-85.73 104.37l-.12.09a1.772 1.772 0 01-.37.22 3.303 3.303 0 01-1.61.35 5.214 5.214 0 01-2.5-.75 5.765 5.765 0 01-2.27-2.61 10.49 10.49 0 01-.82-4.11c0-1.51.17-3.1.3-4.76.205-1.71.089-3.442-.34-5.11a5.936 5.936 0 00-3.38-3.95l-.4-.12a.26.26 0 01-.092-.442.247.247 0 01.132-.058 3.725 3.725 0 002.25-1.28 5.78 5.78 0 001.22-2.29 13.1 13.1 0 000-5 24.733 24.733 0 01-.3-4.7 9.64 9.64 0 011-4 6 6 0 014.76-3.28 4.008 4.008 0 011.6.21c.18.056.352.136.51.24a5.594 5.594 0 00-2.1-.25 5.862 5.862 0 00-4.45 3.24 9.44 9.44 0 00-.91 3.85 24.14 24.14 0 00.35 4.61c.34 1.73.34 3.51 0 5.24a6.13 6.13 0 01-1.33 2.5 4.132 4.132 0 01-2.56 1.44v-.51l.45.14a6.416 6.416 0 013.7 4.29 14.17 14.17 0 01.33 5.3c-.15 1.68-.36 3.24-.34 4.71a10.086 10.086 0 00.72 4A5.55 5.55 0 00137 206c.709.455 1.52.727 2.36.79.734.045 1.468-.1 2.13-.42zm-.09-13.68a58.292 58.292 0 004.85-6.77 56.089 56.089 0 003.33-7.64 8.989 8.989 0 01-.51 2.42 27.318 27.318 0 01-5.86 10.3 9.126 9.126 0 01-1.81 1.69z" fill="#FAFAFA"/>
  <path d="M151.79 190.78a8.967 8.967 0 01-1.66-1.62 57.06 57.06 0 01-6.58-9 9.289 9.289 0 01-1.05-2.07c.517.574.973 1.201 1.36 1.87.79 1.18 1.9 2.8 3.18 4.55 1.28 1.75 2.49 3.28 3.38 4.4.52.574.979 1.201 1.37 1.87zm14.21 4.14s.07.11.11.33a2.12 2.12 0 01-.08 1 2.873 2.873 0 01-.89 1.31 2.75 2.75 0 01-2 .66 3.33 3.33 0 01-2.24-1.22 3.897 3.897 0 01-.71-1.26c-.144-.49-.205-1-.18-1.51 0-1 .18-2.08-.51-2.8a1.093 1.093 0 00-1.19-.42 1.762 1.762 0 00-.85 1.15 19.192 19.192 0 00-.93 6.69.238.238 0 01-.06.169.237.237 0 01-.16.081.231.231 0 01-.24-.19c-.55-2.82-1-5.22-1.3-6.9l-.33-2a2.359 2.359 0 01-.07-.71c.097.218.167.446.21.68.13.54.28 1.18.47 1.95.38 1.67.89 4.05 1.48 6.87l-.47.06A18.702 18.702 0 01157 192a2.188 2.188 0 011.16-1.46 1.586 1.586 0 011.75.56c.39.445.616 1.009.64 1.6v1.55a3.3 3.3 0 002.69 3.62 2.421 2.421 0 001.77-.53c.396-.295.704-.693.89-1.15.118-.412.152-.844.1-1.27zm3.86-9.98c-1.298.62-2.712.961-4.15 1a10.398 10.398 0 01-4.26-.25c0-.15 1.91-.06 4.22-.27 2.31-.21 4.15-.62 4.19-.48z" fill="#FAFAFA"/>
  <path d="M168.12 190.79a24.6 24.6 0 01-2.73-10.93c.16 0 .48 2.49 1.24 5.5s1.63 5.37 1.49 5.43zm8.4 5.88s0 .16.21.4c.233.359.589.622 1 .74a2.678 2.678 0 001.92-.08 3.378 3.378 0 001.64-1.93c.355-1.026.563-2.096.62-3.18.108-1.254.135-2.513.08-3.77a28.46 28.46 0 00-1.65-8.42c-.23-.63-.48-1.24-.73-1.81a.281.281 0 01.13-.35.259.259 0 01.33.11 12.995 12.995 0 011.71 3.86 4.677 4.677 0 01-.79 3.85 2.996 2.996 0 01-3.34 1 4.444 4.444 0 01-2.39-1.93 7.773 7.773 0 01-.86-4.26c0-.51 0-.9.08-1.17.001-.136.025-.271.07-.4.036.523.036 1.047 0 1.57a8.106 8.106 0 001 4.08 4.173 4.173 0 002.22 1.71 2.564 2.564 0 002.85-.92 4.22 4.22 0 00.67-3.47 12.773 12.773 0 00-1.66-3.7l.46-.23c.25.58.51 1.2.74 1.84a28.214 28.214 0 011.64 8.59 27.844 27.844 0 01-.13 3.82 11.496 11.496 0 01-.71 3.28 3.682 3.682 0 01-1.87 2.06 2.904 2.904 0 01-2.1 0 1.853 1.853 0 01-1-.88.937.937 0 01-.14-.41zm18.75-2.23s.19.31-.06.84a1.784 1.784 0 01-2.1.87 3.535 3.535 0 01-2.15-2.77c-.16-.66-.26-1.36-.43-2.05a4.002 4.002 0 00-1-1.89l.4-.06a15.47 15.47 0 00-1.74 8.53.252.252 0 01-.219.239.253.253 0 01-.271-.179c-.5-2.75-.92-5.11-1.2-6.79a17.016 17.016 0 01-.35-2.67c.279.857.497 1.732.65 2.62.36 1.65.84 4 1.38 6.75l-.48.07a15.556 15.556 0 01.39-5.23 15.149 15.149 0 011.4-3.58.25.25 0 01.33-.11l.06.05c.551.6.924 1.341 1.08 2.14.17.73.25 1.43.39 2.06a3.238 3.238 0 001.83 2.56 1.506 1.506 0 001.399-.157 1.504 1.504 0 00.661-1.243h.03z" fill="#FAFAFA"/>
  <path d="M195.65 210.33a4.669 4.669 0 002.07.08 6.188 6.188 0 004.07-3.69 9.998 9.998 0 00.64-3.87c0-1.44-.21-3-.34-4.61a14.422 14.422 0 01.33-5.19 8.44 8.44 0 011.16-2.54 5.71 5.71 0 012.23-1.89.269.269 0 01.35.13.238.238 0 01-.06.29 3.09 3.09 0 01-1.1.72 4.159 4.159 0 01-3-.11 5.137 5.137 0 01-2.31-1.82 9.665 9.665 0 01-1.36-5.25c0-3.43.11-6.49.16-9.07a7.501 7.501 0 00-.47-3.34 2.597 2.597 0 00-1.88-1.52 1.996 1.996 0 00-1.54.22c-.3.21-.4.4-.43.38.082-.182.209-.341.37-.46a2.007 2.007 0 011.64-.34 2.784 2.784 0 012.1 1.59 7.668 7.668 0 01.58 3.48c0 2.57-.08 5.66-.05 9a9.182 9.182 0 001.3 5 4.655 4.655 0 002.08 1.62 3.628 3.628 0 002.65.12c.342-.14.654-.344.92-.6l.29.42a6.065 6.065 0 00-3.11 4.09 14.013 14.013 0 00-.35 5c.12 1.63.31 3.18.29 4.65a10.289 10.289 0 01-.73 4 6.333 6.333 0 01-4.36 3.74 3.942 3.942 0 01-1.6-.07 2.413 2.413 0 01-.54-.16zm201.41 56.34c-.12-.09 1.87-2.72 4-6.17 2.13-3.45 3.64-6.38 3.78-6.31a8.12 8.12 0 01-.81 2 48.466 48.466 0 01-2.53 4.58 46.996 46.996 0 01-3 4.28 7.878 7.878 0 01-1.44 1.62z" fill="#FAFAFA"/>
  <path d="M406.8 265.8a56.588 56.588 0 01-5.93-4.85 55.822 55.822 0 01-5.59-5.25 58.854 58.854 0 015.93 4.86 56.402 56.402 0 015.59 5.24zm13.67-6.67a9.997 9.997 0 01-7.28 1.3c0-.15 1.67-.1 3.67-.47s3.55-.96 3.61-.83z" fill="#FAFAFA"/>
  <path d="M416.75 264.1a10.314 10.314 0 01-1.41-4.45 10.44 10.44 0 01.21-4.68c.16 0 0 2.09.3 4.61.3 2.52 1.05 4.47.9 4.52zm7.25-13.43s.31.25.92.57a4.44 4.44 0 002.75.52 3.21 3.21 0 001.71-.82 3.396 3.396 0 001-1.92 2.286 2.286 0 00-.74-2.11 2.566 2.566 0 00-2.37-.45c-.41.122-.763.384-1 .74l-.18-.39a2.085 2.085 0 001.814-.954 2.08 2.08 0 00.116-2.046 2.776 2.776 0 00-3.1-1.35 3.753 3.753 0 00-2 1.42c-.36.49-.47.81-.51.8a1.82 1.82 0 01.35-.9 3.69 3.69 0 012.09-1.65 3.128 3.128 0 013.6 1.46 2.477 2.477 0 01-.06 2.47 2.45 2.45 0 01-2.35 1.26.267.267 0 01-.176-.097.26.26 0 01-.054-.193.338.338 0 010-.11c.3-.454.749-.79 1.27-.95a2.996 2.996 0 012.86.55 2.782 2.782 0 01.89 2.57 3.708 3.708 0 01-1.15 2.16 3.47 3.47 0 01-1.95.87 4.41 4.41 0 01-2.91-.71c-.63-.41-.82-.72-.82-.74zm24.52-1.81a.752.752 0 01-.08.29c-.104.27-.253.52-.44.74a3.676 3.676 0 01-2.8 1.39 3.81 3.81 0 01-3.63-2.74 7.83 7.83 0 00-.79-2.49 1.548 1.548 0 00-1-.65 1.089 1.089 0 00-1 .54 13.13 13.13 0 00-1.69 5.62.237.237 0 01-.081.16.238.238 0 01-.299.013.227.227 0 01-.08-.113 27.626 27.626 0 01-1.1-6v-1.73a1.855 1.855 0 01.07-.62c.06 0 .09.86.26 2.33a31.53 31.53 0 001.26 5.89h-.46a12.998 12.998 0 011.74-5.89 1.593 1.593 0 011.48-.76 2.062 2.062 0 011.35.87c.437.829.721 1.73.84 2.66a3.434 3.434 0 003.17 2.5 3.569 3.569 0 002.65-1.15c.44-.48.58-.88.63-.86zm6.84-3.95a6.873 6.873 0 01-3.36 1.29 7.072 7.072 0 01-3.65-.09c0-.16 1.63-.09 3.56-.42 1.93-.33 3.39-.92 3.45-.78zm8.57.14s-.13.22-.43.54a7.976 7.976 0 01-1.44 1.19 3.663 3.663 0 01-2.77.53 2.45 2.45 0 01-1.46-1 3.784 3.784 0 01-.57-1.75 51.516 51.516 0 01-.08-6.1 10.54 10.54 0 01.26-2.51c.111.835.147 1.678.11 2.52 0 1.54.05 3.71.23 6 .033.534.194 1.052.47 1.51.277.399.689.683 1.16.8.843.19 1.726.05 2.47-.39a10.7 10.7 0 001.48-1c.34-.22.54-.39.57-.34z" fill="#FAFAFA"/>
  <path d="M464.73 252.36a7.753 7.753 0 01-.47-2.06 45.632 45.632 0 01-.48-5.06 45.254 45.254 0 01.07-5.09 8.342 8.342 0 01.29-2.09c.16 0 0 3.21.16 7.16s.58 7.12.43 7.14zm32.21 6.77c0 .15-16.18.26-36.15.26s-36.16-.11-36.16-.26c0-.15 16.19-.26 36.16-.26 19.97 0 36.15.13 36.15.26zm-63.48 13.73s0 .55-.7 1a2 2 0 01-1.44.19 2.578 2.578 0 01-1.49-1.22 4.865 4.865 0 01-.62-2.23c.003-.841-.064-1.68-.2-2.51a1.814 1.814 0 00-.62-1 .893.893 0 00-1.06.08 5.28 5.28 0 00-.92 1.08c-.29.4-.57.83-.84 1.27a21.194 21.194 0 00-2.3 5.29.242.242 0 01-.29.17.23.23 0 01-.18-.19 50.877 50.877 0 00-1.58-6.46c-.48-1.57-.82-2.46-.76-2.49.134.188.242.393.32.61.19.41.43 1 .72 1.78a40.959 40.959 0 011.77 6.47h-.47a20.695 20.695 0 012.32-5.43c.28-.45.57-.89.87-1.31a5.43 5.43 0 011-1.18 1.38 1.38 0 011.64-.08c.413.329.696.793.8 1.31.136.86.193 1.73.17 2.6.002.72.173 1.429.5 2.07.265.52.714.923 1.26 1.13.421.121.871.089 1.27-.09.372-.177.667-.482.83-.86zm5.54-5.52a15.47 15.47 0 01-3.38 1.16.261.261 0 01-.3-.16 2.791 2.791 0 01.18-1.84 6.061 6.061 0 00.59-1.87c0-.57-.21-1-.62-1.1a.93.93 0 00-.9.2c-.15.17-.13.33-.17.34-.04.01-.14-.16 0-.46a1.115 1.115 0 011.14-.44 1.087 1.087 0 01.77.5c.192.297.283.647.26 1a5.736 5.736 0 01-.58 2 2.442 2.442 0 00-.2 1.51l-.3-.17a15.71 15.71 0 013.51-.67zm7 4.28a5.212 5.212 0 01-4.42.78 9.999 9.999 0 012.21-.4 9.37 9.37 0 012.21-.38zm13 2.27c-.193.136-.41.234-.64.29-.607.212-1.229.379-1.86.5-2.146.42-4.354.42-6.5 0a.26.26 0 01-.164-.107.261.261 0 01-.038-.093.259.259 0 01.002-.1.202.202 0 01.035-.093.219.219 0 01.075-.067c.53-.36 1.09-.74 1.62-1.15a6.368 6.368 0 002.45-3.25 3.073 3.073 0 00-.63-3.08 2.693 2.693 0 00-2-.81c-.28.047-.557.111-.83.19.21-.224.495-.363.8-.39a2.796 2.796 0 012.31.75 3.44 3.44 0 01.84 3.46 6.75 6.75 0 01-2.6 3.54c-.55.43-1.12.81-1.66 1.16l-.09-.46c2.091.421 4.238.482 6.35.18 1.53-.24 2.45-.54 2.53-.47zm15.17-2.12s0 .11-.16.29a3.297 3.297 0 01-.68.67 3.702 3.702 0 01-3.39.52 3.905 3.905 0 01-1.91-1.52 4.333 4.333 0 01-.62-2.73 4.413 4.413 0 00-.45-2.75 1.614 1.614 0 00-1.09-.75 1.165 1.165 0 00-1.1.63 6.426 6.426 0 00-.63 2 18.742 18.742 0 00-.29 2c-.102 1.246-.072 2.5.09 3.74a.214.214 0 01-.005.087.21.21 0 01-.038.078.216.216 0 01-.147.085.218.218 0 01-.25-.18c-.44-2.33-.79-4.28-1-5.65a12.574 12.574 0 01-.29-2.16c.238.688.422 1.393.55 2.11.3 1.36.72 3.29 1.2 5.62l-.45.07a17.808 17.808 0 01-.14-3.84c.054-.702.151-1.4.29-2.09a6.595 6.595 0 01.69-2.14 1.67 1.67 0 011.6-.87 2.129 2.129 0 011.45 1 3.12 3.12 0 01.52 1.56c.025.496.025.994 0 1.49-.103.86.076 1.73.51 2.48.401.634.988 1.13 1.68 1.42.517.187 1.07.253 1.616.193a3.588 3.588 0 001.534-.543c.321-.253.625-.527.91-.82zm3.35.88a19.637 19.637 0 01-.92-4.52 20.922 20.922 0 01-.4-4.59c.477 1.467.786 2.983.92 4.52.302 1.511.436 3.05.4 4.59z" fill="#FAFAFA"/>
  <path d="M482.12 266.41a12.064 12.064 0 01-4.12 1.89 12.195 12.195 0 01-4.47.72c0-.16 2-.5 4.32-1.22 2.32-.72 4.2-1.52 4.27-1.39zm11.97 4.96c-.881.33-1.787.588-2.71.77-1.7.43-4.09 1-6.83 1.6a.236.236 0 01-.192-.029.246.246 0 01-.108-.161.268.268 0 01.004-.129.267.267 0 01.066-.111 16.87 16.87 0 003.85-5.86 2.217 2.217 0 000-1.83 1.826 1.826 0 00-1.36-.79 3.85 3.85 0 00-2.38.68c-.259.189-.537.35-.83.48 0 0 .22-.27.72-.65a3.873 3.873 0 012.53-.88 2.21 2.21 0 011.69.93 2.648 2.648 0 01.13 2.2 15.588 15.588 0 01-2.32 4.24 17.146 17.146 0 01-1.63 1.85l-.24-.43c2.74-.6 5.14-1.1 6.87-1.43a16.82 16.82 0 012.74-.45zM387.58 150a7.486 7.486 0 01-1.1.31l-3.1.7-10.71 2.29a.269.269 0 01-.098.003.27.27 0 01-.092-.035.27.27 0 01-.071-.068.26.26 0 01-.038-.201.263.263 0 01.049-.099l3.9-4.67 2.77-3.29 1.32-1.57.64-.75c.23-.25.39-.5.31-.56-.08-.06-.36-.14-.65-.09l-.92.07-1.76.15-3.15.27-4.56.34c-.558.061-1.12.078-1.68.05a9.417 9.417 0 011.66-.26l4.55-.5 3.14-.33 1.76-.17.91-.09c.173-.021.347-.021.52 0a.772.772 0 01.59.32.694.694 0 010 .7 2.638 2.638 0 01-.32.43c-.21.25-.42.51-.64.76-.42.52-.86 1-1.31 1.58l-2.76 3.3-3.91 4.65-.24-.41 10.75-2.1 3.13-.57c.364-.09.736-.144 1.11-.16zm6.78 7.85c-.07 0-.05-1-.24-2.69a23.287 23.287 0 00-1.78-6.67h.42a22.695 22.695 0 00-2.77 5.31c-.51 1.4-.879 2.847-1.1 4.32a.261.261 0 01-.29.22.27.27 0 01-.21-.23 59.352 59.352 0 010-8.09c.07-1 .16-1.79.23-2.34.01-.28.064-.557.16-.82.06 0 0 1.18-.08 3.17a77.644 77.644 0 00.17 8h-.5c.22-1.51.592-2.995 1.11-4.43a22.026 22.026 0 012.87-5.41.24.24 0 01.33-.05c.04.023.071.058.09.1a21.539 21.539 0 011.62 6.83c.038.666.038 1.334 0 2 .033.26.023.523-.03.78zM406 147.19a21.253 21.253 0 01-6.52 1.19 11.06 11.06 0 013.22-.85 10.766 10.766 0 013.3-.34zm9.46 20.74c.05 0 .31.85 1 2.29a7.925 7.925 0 001.7 2.33 3.705 3.705 0 003.47.89 5.439 5.439 0 003.34-2.93 19.811 19.811 0 001.55-5.12 37.677 37.677 0 00-1.39-19.63h.49a8.604 8.604 0 01-2.21 4.66 4.566 4.566 0 01-2.17 1.21 4.36 4.36 0 01-2.36-.23 3.524 3.524 0 01-1.75-1.42 2.733 2.733 0 01-.26-2.1 4.519 4.519 0 012.44-2.68 7.062 7.062 0 015.07-.39c.441.135.867.316 1.27.54.14.08.274.17.4.27a13.22 13.22 0 00-1.71-.64 6.997 6.997 0 00-4.89.51 4.24 4.24 0 00-2.21 2.49 2.34 2.34 0 00.25 1.79c.368.566.913.995 1.55 1.22.682.265 1.428.32 2.142.156a3.657 3.657 0 001.858-1.076 8.122 8.122 0 002-4.4.26.26 0 01.29-.21.268.268 0 01.2.17 37.684 37.684 0 011.47 19.85 20.32 20.32 0 01-1.63 5.24 5.902 5.902 0 01-3.63 3.08 3.999 3.999 0 01-3.77-1 8.005 8.005 0 01-1.68-2.46c-.27-.567-.5-1.152-.69-1.75a2.295 2.295 0 01-.14-.66zm24.12-4.72c.039-1.955.25-3.902.63-5.82a31.984 31.984 0 011.15-5.74 32.709 32.709 0 01-.64 5.82 33.691 33.691 0 01-1.14 5.74zm-257.34-23.5a4.05 4.05 0 01-.23-1.07 90.4 90.4 0 01-.44-2.94c-.17-1.24-.36-2.75-.57-4.36-.13-.79-.11-1.78-.62-2.29a.678.678 0 00-.92.08 4.451 4.451 0 00-.8 1.05 10.434 10.434 0 00-1.51 5.17.24.24 0 01-.24.24.261.261 0 01-.24-.21c-.3-2.42-.54-4.47-.7-5.91a13.94 13.94 0 01-.16-2.3c.211.74.362 1.496.45 2.26.23 1.44.54 3.48.88 5.89h-.47a10.664 10.664 0 011.55-5.43c.238-.443.549-.842.92-1.18a1.4 1.4 0 01.76-.34 1.16 1.16 0 01.82.28c.34.37.55.84.6 1.34.07.45.1.86.15 1.27.17 1.62.33 3.09.47 4.38.14 1.29.22 2.25.27 3 .047.355.057.713.03 1.07zm30.17-13.86s-.15.05-.45.09l-1.33.16-5 .52-16.81 1.58.23-.27c.12 1.73.18 3.52.18 5.36a72.896 72.896 0 01-2.56 19 .18.18 0 01-.23.14.19.19 0 01-.1-.05 14.26 14.26 0 01-3.46-6.35 13.258 13.258 0 01-.32-1.95 2.747 2.747 0 010-.69c.05 0 .08.95.54 2.59a14.544 14.544 0 003.53 6.13l-.33.08a77.148 77.148 0 002.42-18.87c0-1.82-.06-3.61-.17-5.32a.244.244 0 01.059-.183.242.242 0 01.171-.087l16.83-1.41 5-.37 1.34-.07c.151-.03.306-.04.46-.03z" fill="#FAFAFA"/>
  <path d="M202.74 138.81s-.37.59-1.35 1.15a6.58 6.58 0 01-4.37.77.25.25 0 01-.21-.28l.17-1.35c.26-2 .52-3.9.74-5.24.07-.732.225-1.453.46-2.15a9.21 9.21 0 01-.1 2.2 151.3 151.3 0 01-.59 5.26c-.06.46-.11.91-.17 1.34l-.21-.28a6.997 6.997 0 004.12-.56c.97-.46 1.46-.92 1.51-.86z" fill="#FAFAFA"/>
  <path d="M203.32 151.59a12.018 12.018 0 01-.51-2.54 81.84 81.84 0 01-.64-6.22c-.16-2.44-.19-4.65-.17-6.25-.036-.867.024-1.736.18-2.59.137.853.201 1.716.19 2.58.07 1.6.17 3.8.32 6.22s.35 4.63.49 6.22a13.1 13.1 0 01.14 2.58zm19.86-18.45a17.76 17.76 0 00-1.92-4.48h.37a11.702 11.702 0 00-2 3.53c-.09.26-.16.51-.23.76a.263.263 0 01-.32.18.279.279 0 01-.19-.23c-.15-2.33-.27-4.4-.32-5.9a12.766 12.766 0 010-2.41c.203.782.321 1.583.35 2.39.15 1.48.32 3.56.49 5.88h-.51c.07-.25.15-.52.24-.79a11.174 11.174 0 012.12-3.66.25.25 0 01.33 0 11.188 11.188 0 011.38 3.35c.157.443.228.911.21 1.38zm41.47-11.48a3.612 3.612 0 01-.73.12l-2.09.23-7.69.77-25.42 2.35-1.21.11.24-.24c-.24 4.84-.63 9.44-1.09 13.59-.23 2.08-.48 4-.73 5.89-.14.92-.23 1.8-.41 2.67a3.152 3.152 0 01-1.33 2.18c-.381.2-.817.267-1.24.19a2.39 2.39 0 01-1-.53 4.096 4.096 0 01-1.12-1.72 5.415 5.415 0 01-.25-1.76v-1.46a6.003 6.003 0 00-.29-2c-.15-.43-.29-.64-.26-.65.151.184.272.389.36.61.248.638.377 1.316.38 2 0 .453.02.943.06 1.47.003.565.097 1.126.28 1.66a3.807 3.807 0 001.07 1.57 1.62 1.62 0 001.82.29 2.79 2.79 0 001.12-1.95c.16-.82.25-1.72.37-2.64.24-1.83.47-3.8.69-5.88.43-4.15.8-8.73 1-13.57a.258.258 0 01.23-.25l1.22-.11 25.42-2.19 7.71-.61 2.1-.14a4.17 4.17 0 01.79 0z" fill="#FAFAFA"/>
  <path d="M234.24 146.2a43.708 43.708 0 01-.93-6.65 42.294 42.294 0 01-.41-6.7c.48 2.189.791 4.413.93 6.65.314 2.219.451 4.459.41 6.7zm3.84-3.09s.38.11 1.07.19a5.49 5.49 0 002.83-.48 4.517 4.517 0 002.64-3.09 2.995 2.995 0 00-.54-2.29 2.096 2.096 0 00-2.18-.9 1.996 1.996 0 00-1.62 1.86h-.51a3.477 3.477 0 011.15-2.09 4.842 4.842 0 001.15-1.59 1.614 1.614 0 00-.31-1.54 1.633 1.633 0 00-1.24-.64 1.85 1.85 0 00-1.64 1.16 3.658 3.658 0 00-.17.78s-.15-.3 0-.84a2.001 2.001 0 013.77 1.22 5.164 5.164 0 01-1.21 1.78 3 3 0 00-1 1.78.258.258 0 01-.08.177.258.258 0 01-.18.073.26.26 0 01-.25-.24 2.472 2.472 0 012-2.4 2.601 2.601 0 012.7 1.11 3.485 3.485 0 01.6 2.68 4.208 4.208 0 01-1.16 2.18 5.356 5.356 0 01-1.77 1.19 5.289 5.289 0 01-3 .34 2.154 2.154 0 01-1.05-.42zm16.63-5.64a10.05 10.05 0 01-.62-1.8c-.34-1.15-.8-2.79-1.33-4.73l.41.1a12.59 12.59 0 00-3 6.36.237.237 0 01-.034.093.234.234 0 01-.067.073.23.23 0 01-.09.041.236.236 0 01-.099.003.26.26 0 01-.21-.25 21.166 21.166 0 00-.95-6.12c-.45-1.48-.85-2.33-.79-2.36.06-.03.16.18.36.56.284.55.531 1.118.74 1.7a18.707 18.707 0 011.14 6.22h-.5c.138-.896.373-1.774.7-2.62a12.363 12.363 0 012.48-4 .23.23 0 01.33 0c.038.03.063.073.07.12.49 2 .89 3.6 1.15 4.78.162.599.266 1.211.31 1.83zm53.03-31.65a1.569 1.569 0 01-1.35.32 3.056 3.056 0 01-1.49-.74 3.422 3.422 0 01-1.11-1.91 8.071 8.071 0 010-2.65c.165-.97.272-1.948.32-2.93a4.192 4.192 0 00-.89-2.91 10.427 10.427 0 01-1.22-1.3 1.371 1.371 0 01-.17-1.06 1.48 1.48 0 01.66-.84 11.89 11.89 0 011.71-.68c.501-.21.934-.557 1.25-1a6.21 6.21 0 001-2.94c.18-2 0-4 .81-5.54a3.67 3.67 0 013.11-2.08c.35.006.694.1 1 .27.2.13.29.22.28.23a2.87 2.87 0 00-1.29-.29 3.49 3.49 0 00-2.78 2 7.058 7.058 0 00-.54 2.46c-.07.92 0 1.91-.14 3a6.446 6.446 0 01-1.12 3.2c-.369.509-.87.907-1.45 1.15a11.32 11.32 0 00-1.63.64.815.815 0 00-.429.523.806.806 0 00.109.667 9.89 9.89 0 001.15 1.23 4.67 4.67 0 011 3.25 24.8 24.8 0 01-.37 3 7.667 7.667 0 000 2.52 3.17 3.17 0 002.28 2.52 2.6 2.6 0 001.3-.11zm4.17-7.31c-.13-.1 1.61-2.23 3.13-5.23 1.52-3 2.27-5.64 2.43-5.6a20.52 20.52 0 01-5.56 10.83z" fill="#FAFAFA"/>
  <path d="M320 96.89a37.513 37.513 0 01-5-3.53 37.8 37.8 0 01-4.73-3.93 35.08 35.08 0 015 3.52 35.638 35.638 0 014.73 3.94zm7.83 5.9a20.208 20.208 0 01-1.12-2.2 34.786 34.786 0 00-3.27-5.3h.43a17.018 17.018 0 00-1 3.25 16.716 16.716 0 00-.34 4.09.241.241 0 01-.059.179.24.24 0 01-.171.081.25.25 0 01-.25-.21c-.31-2.33-.55-4.32-.7-5.74a12.749 12.749 0 01-.17-2.25c.229.719.383 1.46.46 2.21.24 1.4.55 3.39.89 5.71l-.48.05c-.085-1.418.019-2.84.31-4.23.236-1.15.602-2.271 1.09-3.34a.239.239 0 01.32-.13.269.269 0 01.1.08 29.748 29.748 0 013.16 5.46c.351.731.619 1.499.8 2.29zm1.5 6.34c.438.273.936.434 1.45.47a3.384 3.384 0 001.72-.48 3.457 3.457 0 001.51-1.76 6.544 6.544 0 00.4-2.86 28.54 28.54 0 00-.5-3.38 10.221 10.221 0 01-.08-3.87 4.624 4.624 0 012.55-3.3 3.86 3.86 0 01.86-.21.249.249 0 01.28.23.233.233 0 01-.09.23 1.899 1.899 0 01-2.17 0 2.88 2.88 0 01-1.29-1.64 8.193 8.193 0 01.26-3.73c.396-2.01.213-4.09-.53-6a11.602 11.602 0 00-2.13-3.48c-.65-.71-1.08-1-1.05-1.08.03-.08.12.06.33.21.304.226.591.473.86.74a10.56 10.56 0 012.32 3.48 10.784 10.784 0 01.66 6.17 8.197 8.197 0 00-.23 3.51c.175.563.553 1.04 1.06 1.34a1.4 1.4 0 001.59 0l.18.46c-.24.028-.476.089-.7.18a4.108 4.108 0 00-2.26 2.92 9.934 9.934 0 00.07 3.69c.218 1.133.369 2.279.45 3.43a7.07 7.07 0 01-.49 3 3.84 3.84 0 01-1.71 1.87 3.54 3.54 0 01-1.87.42 2.252 2.252 0 01-1.14-.39 1.054 1.054 0 01-.31-.17zm21.09-11.55c-.229.09-.473.138-.72.14-.663.085-1.332.115-2 .09a8.689 8.689 0 01-2.94-.53 6.002 6.002 0 01-2.92-2.24 4.133 4.133 0 01-.46-3.66 5.001 5.001 0 011.79-2.42 3.869 3.869 0 011.89-.74 1.56 1.56 0 01.74.05 5.197 5.197 0 00-2.4 1 4.819 4.819 0 00-1.57 2.28 3.737 3.737 0 00.44 3.22 5.83 5.83 0 002.67 2.09 9.463 9.463 0 002.78.61c1.66.09 2.7.02 2.7.11zm13.88.73a6.123 6.123 0 01-.84-.54l-2.27-1.63-8-5.92a.228.228 0 01.034-.388.23.23 0 01.106-.022 6.356 6.356 0 004.93-2.49 6.115 6.115 0 001.15-5.93 4.126 4.126 0 00-1.5-2 2.995 2.995 0 00-2.3-.41 2.39 2.39 0 00-1.61 1.5 6.264 6.264 0 00-.36 2.27 79.74 79.74 0 00.63 8.3c.3 2.36.64 4.25.89 5.55.11.61.2 1.11.28 1.51.046.173.069.351.07.53a1.803 1.803 0 01-.17-.51c-.1-.33-.23-.84-.38-1.48-.31-1.3-.7-3.19-1.06-5.55a72.745 72.745 0 01-.74-8.35c-.029-.837.1-1.671.38-2.46a2.875 2.875 0 011.94-1.8 3.42 3.42 0 012.71.46 4.538 4.538 0 011.7 2.23 5.992 5.992 0 01.23 3.46 7.47 7.47 0 01-1.47 3 6.754 6.754 0 01-5.33 2.62l.14-.41 7.91 6.07 2.2 1.74c.262.194.507.412.73.65zM271.4 206.9a6.415 6.415 0 01-1.73 1 20.775 20.775 0 01-9.44 1.95 6.21 6.21 0 01-2-.26A54.237 54.237 0 00265 209a52.666 52.666 0 006.4-2.1z" fill="#FAFAFA"/>
  <path d="M259.34 217.89a51.754 51.754 0 014.55-5.84 52.666 52.666 0 014.95-5.5 54.266 54.266 0 01-4.55 5.84 53.875 53.875 0 01-4.95 5.5z" fill="#FAFAFA"/>
  <path d="M271.79 216.13a44.567 44.567 0 01-6.74 1 45.788 45.788 0 01-6.79.49 44.293 44.293 0 016.73-1 45.777 45.777 0 016.8-.49zm110.81-18.35a44.992 44.992 0 013.62-5.81 46.724 46.724 0 014.06-5.53 44.642 44.642 0 01-3.62 5.82 46.013 46.013 0 01-4.06 5.52z" fill="#FAFAFA"/>
  <path d="M390.28 197.78a31.197 31.197 0 01-4.89-4.83c-2.56-2.76-5.1-4.53-5-4.68.617.28 1.192.644 1.71 1.08a25.04 25.04 0 013.65 3.25c1.29 1.41 2.39 2.71 3.23 3.62a9.47 9.47 0 011.3 1.56zM272.38 96.21c.397.31.899.454 1.4.4a2.6 2.6 0 001.53-.77 3.4 3.4 0 00.82-2.11 15.596 15.596 0 00-.18-2.88c-.12-1.06-.24-2.17-.38-3.35-.25-2.36-.53-4.95-.83-7.67-.19-1.86-.38-3.67-.56-5.35a.248.248 0 01.22-.27.263.263 0 01.25.11 3.796 3.796 0 01.31 3.12 4.29 4.29 0 01-1.69 2.3 3.32 3.32 0 01-2.5.49 3.92 3.92 0 01-1.92-1 4 4 0 01-1.27-2.75 2.67 2.67 0 01.1-.81c.05-.18.09-.27.1-.26.01.01-.08.38 0 1.06a4 4 0 001.31 2.53 3.81 3.81 0 001.78.9 3 3 0 002.19-.48 3.899 3.899 0 001.48-2.08 3.323 3.323 0 00-.29-2.71l.46-.16c.18 1.68.38 3.48.58 5.35.28 2.72.55 5.3.79 7.67.12 1.18.23 2.3.33 3.35.139.993.18 1.998.12 3a3.64 3.64 0 01-1 2.28 2.8 2.8 0 01-1.71.76 1.75 1.75 0 01-1.14-.3 1.006 1.006 0 01-.3-.37zm11.47 88.04c-.15 0-.26-24.24-.26-54.13 0-29.89.11-54.13.26-54.13.15 0 .26 24.23.26 54.13 0 29.9-.11 54.13-.26 54.13zm-.13.75a10.54 10.54 0 01-1.35 1c-.88.64-2.19 1.51-3.83 2.57-3.27 2.11-7.89 4.86-13.06 7.78l-13.24 7.46-4 2.29c-.475.305-.974.572-1.49.8a9.12 9.12 0 011.39-1c.91-.6 2.25-1.43 3.91-2.44 3.33-2 8-4.67 13.17-7.59s9.81-5.62 13.13-7.65l3.91-2.42c.466-.303.954-.57 1.46-.8z" fill="#FAFAFA"/>
  <path d="M384.43 185c0 .14-22.55.26-50.35.26s-50.36-.12-50.36-.26 22.54-.26 50.36-.26 50.35.1 50.35.26zM267 143.9a6.102 6.102 0 01-.26-2.5 6.261 6.261 0 01.26-2.5c.259.806.348 1.658.26 2.5a6.315 6.315 0 01-.26 2.5zm0 10a12.382 12.382 0 010-5c.259.806.344 1.658.25 2.5.085.842 0 1.692-.25 2.5zm-.13 10a6.437 6.437 0 01-.24-2.51 6.13 6.13 0 01.29-2.49c.246.809.324 1.66.23 2.5a6.32 6.32 0 01-.28 2.5zm-.1 9.99a12.33 12.33 0 01.05-5 6.33 6.33 0 01.24 2.5 6.093 6.093 0 01-.29 2.5zm-.08 10a6.33 6.33 0 01-.24-2.5 6.107 6.107 0 01.28-2.5c.245.813.326 1.666.24 2.51a5.992 5.992 0 01-.28 2.49zm-.04 10a6.426 6.426 0 01-.25-2.5 5.987 5.987 0 01.27-2.5c.247.809.332 1.658.25 2.5a5.987 5.987 0 01-.27 2.5zm4.99 1.5a12.104 12.104 0 01-5 0 12.104 12.104 0 015 0zm9.98 0a12.104 12.104 0 01-5 0 12.104 12.104 0 015 0zm10 0a12.138 12.138 0 01-5 0 12.138 12.138 0 015 0zm10 0a12.138 12.138 0 01-5 0 12.138 12.138 0 015 0zm10 0a12.138 12.138 0 01-5 0 12.138 12.138 0 015 0zm10 0a12.138 12.138 0 01-5 0 12.138 12.138 0 015 0zm6.85 0c0 .14-.41.26-.92.26s-.92-.12-.92-.26.41-.26.92-.26.92.11.92.26z" fill="#FAFAFA"/>
  <path d="M328.47 195.39c-.14 0-.26-12.81-.26-28.61 0-15.8.12-28.62.26-28.62s.26 12.81.26 28.62-.12 28.61-.26 28.61zm-56.81-57.23a11.71 11.71 0 01-5 0 12.138 12.138 0 015 0zm10 0a11.71 11.71 0 01-5 0 12.138 12.138 0 015 0zm10 0a11.71 11.71 0 01-5 0 12.138 12.138 0 015 0zm10 0a11.71 11.71 0 01-5 0 12.138 12.138 0 015 0zm10 0a11.71 11.71 0 01-5 0 12.138 12.138 0 015 0zm10 0a11.71 11.71 0 01-5 0 12.138 12.138 0 015 0z" fill="#FAFAFA"/>
  <path d="M328.47 138.16c0 .15-.41.27-.91.27s-.9-.12-.9-.27c0-.15.4-.26.9-.26s.91.1.91.26z" fill="#FAFAFA"/>
  <path d="M332.16 134.79c.1.11-.65 1-1.67 1.88-1.02.88-1.92 1.6-2 1.49-.08-.11.65-.94 1.67-1.87 1.02-.93 1.9-1.61 2-1.5zm7.38-6.79c.09.11-.65 1-1.67 1.88-1.02.88-1.93 1.6-2 1.49-.07-.11.65-.94 1.67-1.87 1.02-.93 1.9-1.57 2-1.5zm6.12-5.56c.1.1-.37.69-1 1.3-.63.61-1.3 1-1.39.92-.09-.08.36-.69 1-1.3.64-.61 1.29-1.03 1.39-.92zm.25 57.56c.253.807.342 1.658.26 2.5a6.102 6.102 0 01-.26 2.5 6.315 6.315 0 01-.26-2.5 6.102 6.102 0 01.26-2.5zm-.03-10c.254.807.346 1.657.27 2.5a6.102 6.102 0 01-.26 2.5 6.411 6.411 0 01-.27-2.5 6.102 6.102 0 01.26-2.5zm-.06-10c.266.805.361 1.656.28 2.5a6.204 6.204 0 01-.25 2.5 6.209 6.209 0 01-.27-2.5 6.33 6.33 0 01.24-2.5zm-.06-10c.266.805.361 1.656.28 2.5a5.997 5.997 0 01-.25 2.5 6.411 6.411 0 01-.27-2.5 6.33 6.33 0 01.24-2.5zm-.05-10c.254.807.346 1.657.27 2.5a5.997 5.997 0 01-.25 2.5 6.411 6.411 0 01-.27-2.5 5.997 5.997 0 01.25-2.5zm-.04-10a12.138 12.138 0 010 5 5.987 5.987 0 01-.27-2.5 6.209 6.209 0 01.27-2.5z" fill="#FAFAFA"/>
  <path d="M345.66 122.44c.14 0 .26.57.26 1.27 0 .7-.12 1.27-.26 1.27s-.26-.57-.26-1.27c0-.7.12-1.27.26-1.27zm-12.9 70.39c.08.12-.82.79-2 1.5a6.351 6.351 0 01-2.28 1.06c-.07-.13.83-.8 2-1.51a6.2 6.2 0 012.28-1.05zm8.59-5.13a6.383 6.383 0 01-2 1.51 6.2 6.2 0 01-2.28 1.05c-.08-.12.82-.79 2-1.5a6.351 6.351 0 012.28-1.06zm4.56-2.7c.07.12.07.26 0 .3-.07.04-.19 0-.27-.14-.08-.14-.07-.26 0-.3.07-.04.2 0 .27.14zm-74.8-50.45c.1.1-.59 1-1.54 2-.95 1-1.81 1.73-1.92 1.62-.11-.11.59-1 1.54-2 .95-1 1.81-1.72 1.92-1.62zm6.78-7.35c.11.1-.56 1-1.5 2s-1.78 1.76-1.88 1.67c-.1-.09.56-1 1.5-2s1.78-1.77 1.88-1.67zm4.86-5.13c.1.1-.13.52-.53.92s-.8.66-.9.56c-.1-.1.13-.51.53-.92.4-.41.8-.63.9-.56zm5 0a12.138 12.138 0 01-5 0 12.138 12.138 0 015 0zm10 0a12.138 12.138 0 01-5 0 12.138 12.138 0 015 0zm10 0a12.138 12.138 0 01-5 0 12.138 12.138 0 015 0zm10 0a12.138 12.138 0 01-5 0 12.138 12.138 0 015 0zm10 0a12.138 12.138 0 01-5 0 12.138 12.138 0 015 0zm10 0a12.138 12.138 0 01-5 0 12.138 12.138 0 015 0zm9.01 0c0 .15-.9.26-2 .26s-2-.11-2-.26a7.859 7.859 0 014 0zm-40.97 27.82c-.14 0-.26-4.67-.26-10.43s.12-10.44.26-10.44c.264 3.473.35 6.958.26 10.44.09 3.479.004 6.96-.26 10.43zm-8.17 9.49c0 .14-6.22.26-13.9.26-7.68 0-13.9-.12-13.9-.26s6.23-.26 13.9-.26 13.9.11 13.9.26zm8.17 30.35c-.14 0-.26-5.41-.26-12.07s.12-12.07.26-12.07.26 5.4.26 12.07-.11 12.07-.26 12.07zm28.34-31c-3.407.258-6.824.344-10.24.26-3.416.084-6.833-.003-10.24-.26 3.407-.257 6.824-.344 10.24-.26 3.416-.084 6.833.002 10.24.26z" fill="#FAFAFA"/>
  <path d="M304.31 150.09a5.277 5.277 0 012.06-.2 8.468 8.468 0 017.23 5.62 7.116 7.116 0 010 4.51 7.762 7.762 0 01-1.12 2.2 8.25 8.25 0 01-1.77 1.87 7.459 7.459 0 01-10-.33 8.375 8.375 0 01-1.64-2 7.902 7.902 0 01-1-2.26 7.24 7.24 0 01.25-4.51 8.162 8.162 0 012.32-3.17 8.348 8.348 0 015.22-2 5.415 5.415 0 012.05.3 16.913 16.913 0 00-2-.1 8.417 8.417 0 00-5 2.1 8.002 8.002 0 00-2.16 3.06 6.721 6.721 0 00-.18 4.22 7.29 7.29 0 00.93 2.13 7.908 7.908 0 001.57 1.86 6.998 6.998 0 009.32.31 8.227 8.227 0 001.68-1.76 7.523 7.523 0 001.07-2.06 6.811 6.811 0 00.08-4.23 7.843 7.843 0 00-2-3.17 8.313 8.313 0 00-4.86-2.38 13.489 13.489 0 00-2.05-.01zm80.9 161.48c0 .15-33.14.26-74 .26s-74-.11-74-.26c0-.15 33.13-.26 74-.26s74 .12 74 .26z" fill="#FAFAFA"/>
  <path d="M363.09 311.2a1.885 1.885 0 01-.14-.42c-.08-.3-.2-.71-.34-1.24-.31-1.09-.77-2.7-1.43-4.76a91.73 91.73 0 00-7.2-16.72 66.576 66.576 0 00-17.39-20.42 54.356 54.356 0 00-13.84-7.77 46.732 46.732 0 00-16.75-3.08 52.578 52.578 0 00-30.87 10.1 51.754 51.754 0 00-10.31 10 57.618 57.618 0 00-6.63 10.65 60.854 60.854 0 00-5.31 17.36c-.3 2.13-.48 3.8-.53 4.93 0 .55-.07 1-.09 1.29-.02.29-.05.44-.05.44a2.937 2.937 0 010-.44v-1.3c0-1.13.17-2.81.44-4.95a59.662 59.662 0 015.18-17.49 57.447 57.447 0 016.62-10.76 51.822 51.822 0 0110.37-10.13A52.82 52.82 0 01306 256.27a47.267 47.267 0 0116.89 3.12 54.504 54.504 0 0113.95 7.87 66.376 66.376 0 0117.42 20.62 88.719 88.719 0 017.08 16.84c.62 2.07 1.06 3.69 1.33 4.79.12.54.22 1 .29 1.26.056.139.1.283.13.43z" fill="#FAFAFA"/>
  <path d="M253.78 309.59c.11.1-.14.61-.56 1.15-.42.54-.86.91-1 .83-.14-.08.13-.6.56-1.15.43-.55.89-.92 1-.83zm7.09-7.2c.09.12-.66 1-1.68 1.91a6.42 6.42 0 01-2 1.53c-.1-.1.65-.95 1.68-1.91 1.03-.96 1.91-1.64 2-1.53zm8.32-5.71a7.55 7.55 0 01-2.05 1.48 7.069 7.069 0 01-2.26 1.16c-.08-.12.79-.87 2-1.6a5.499 5.499 0 012.31-1.04zm9.4-3.68a6.29 6.29 0 01-2.34 1 7.177 7.177 0 01-2.47.57 5.935 5.935 0 012.32-1.07 6.266 6.266 0 012.49-.5zm9.84-2.34a12.402 12.402 0 01-4.95 1 12.402 12.402 0 014.95-1zm10.02-1.32a6.172 6.172 0 01-2.48.52 6.33 6.33 0 01-2.55 0 6.52 6.52 0 012.49-.52 6.463 6.463 0 012.54 0zm10.12-.07a6.35 6.35 0 01-2.54.18 6.892 6.892 0 01-2.52-.3 5.89 5.89 0 012.53-.22 6.668 6.668 0 012.53.34zm10.08.8a6.618 6.618 0 01-2.54 0 6.418 6.418 0 01-2.49-.51 6.141 6.141 0 012.54 0 6.269 6.269 0 012.49.51zm9.96 1.69c-1.717.01-3.419-.33-5-1a6.238 6.238 0 012.53.22 6.414 6.414 0 012.47.78zm9.75 2.67a6.568 6.568 0 01-2.49-.5 7.376 7.376 0 01-2.35-1 5.521 5.521 0 012.5.47 6.128 6.128 0 012.34 1.03zm9.27 4.03a6.371 6.371 0 01-2.39-.86 6.51 6.51 0 01-2.17-1.34 12.704 12.704 0 014.56 2.2zm8.49 5.48a6.61 6.61 0 01-2.22-1.25c-1.13-.8-2-1.55-1.91-1.67a6.297 6.297 0 012.21 1.25c1.15.81 2.01 1.56 1.92 1.67zm5.65 5.06c-.1.1-.58-.21-1.08-.69-.5-.48-.81-.95-.71-1.06.1-.11.58.21 1.08.69.5.48.81.92.71 1.06z" fill="#FAFAFA"/>
  <path d="M255.33 315.57c-.1.1-1-.63-1.82-1.74a4.654 4.654 0 01-1.18-2.24c.12-.07.76.84 1.59 1.92.83 1.08 1.52 1.96 1.41 2.06zm7.74 6.3a6.337 6.337 0 01-2.18-1.25c-1.13-.81-2-1.56-1.88-1.67a6.348 6.348 0 012.19 1.25c1.11.8 1.95 1.54 1.87 1.67zm8.84 4.67a6.117 6.117 0 01-2.37-.84c-1.25-.6-2.22-1.18-2.15-1.31a6.234 6.234 0 012.37.84 6.442 6.442 0 012.15 1.31zm9.54 2.93a6.267 6.267 0 01-2.49-.33 5.581 5.581 0 01-2.35-.89 7.134 7.134 0 012.48.38 6.003 6.003 0 012.36.84zm9.83 1.86a6.27 6.27 0 01-2.51-.16 6.34 6.34 0 01-2.42-.68 12.008 12.008 0 014.93.84zm9.94 1.08a5.9 5.9 0 01-2.51 0 6.296 6.296 0 01-2.47-.47 6.1 6.1 0 012.51 0 6.431 6.431 0 012.47.47zm9.99.2a5.906 5.906 0 01-2.49.27 6.01 6.01 0 01-2.51-.25 6.509 6.509 0 012.5-.27 6.426 6.426 0 012.5.25zm9.97-.81c-1.61.528-3.314.712-5 .54a6.34 6.34 0 012.45-.53 6.105 6.105 0 012.55-.01zm9.82-1.96a6.1 6.1 0 01-2.38.82c-.8.271-1.648.376-2.49.31a6.18 6.18 0 012.37-.82 6.275 6.275 0 012.5-.31zm9.44-3.2c-.668.52-1.433.9-2.25 1.12a6.067 6.067 0 01-2.43.64 6.322 6.322 0 012.25-1.13 6.08 6.08 0 012.43-.63zm8.91-4.51a6.29 6.29 0 01-2.06 1.44 6.22 6.22 0 01-2.31 1c-.07-.13.85-.77 2.06-1.44a6.358 6.358 0 012.31-1zm8.15-5.77c.1.11-.72.88-1.82 1.73s-2.06 1.43-2.15 1.31c-.09-.12.74-.89 1.83-1.73a6.363 6.363 0 012.14-1.31zm5.59-5.16c.1.1-.23.6-.74 1.11-.51.51-1 .83-1.11.73-.11-.1.23-.6.74-1.1.51-.5 1.02-.84 1.11-.74zm-58.24 30.29c-.14 0-.26-23.27-.26-52s.12-52 .26-52 .27 23.27.27 52-.12 52-.27 52z" fill="#FAFAFA"/>
  <path d="M351.77 261.22c.1.1-10.31 11.15-23.25 24.67-12.94 13.52-23.52 24.42-23.63 24.32-.11-.1 10.31-11.14 23.25-24.68s23.53-24.41 23.63-24.31z" fill="#FAFAFA"/>
  <path d="M348.93 260.89A12.336 12.336 0 01351 260c1.34-.49 3.24-1.16 5.46-1.91l.39-.13-.07.41c-.18 1.12-.37 2.32-.58 3.58-.18 1.09-.36 2.14-.52 3.12l-.05.27-.26-.06a13.796 13.796 0 01-5.5-2.76 11.106 11.106 0 01-1.28-1.24c-.28-.32-.4-.51-.38-.53.02-.02.65.63 1.86 1.52a14.723 14.723 0 005.42 2.52l-.31.2c.16-1 .33-2 .51-3.12.21-1.26.41-2.46.6-3.58l.33.27a282.3 282.3 0 01-5.53 1.73c-.699.27-1.422.47-2.16.6zm14.76 9.79a53.171 53.171 0 013.63-6.66 57.07 57.07 0 014.09-6.4 55.147 55.147 0 01-3.64 6.66 56.25 56.25 0 01-4.08 6.4z" fill="#FAFAFA"/>
  <path d="M372.16 274.22a65.68 65.68 0 01-4.54-6.79 64.05 64.05 0 01-4.09-7.06 64.91 64.91 0 014.54 6.78 62.578 62.578 0 014.09 7.07zm6.99-2.8a19.401 19.401 0 00-3.59-5.62l.4-.07a10.003 10.003 0 00-.38 6.6l-.45.09c-.09-1.56-.15-2.87-.18-3.79a5.753 5.753 0 010-1.46c.139.468.22.952.24 1.44.1.91.23 2.22.36 3.77l.18 2.06-.63-2a10 10 0 01-.37-4.29 9.47 9.47 0 01.74-2.65l.15-.35.25.27a13.774 13.774 0 012.7 4.11c.313.587.51 1.229.58 1.89zm-56.98 38.31c0-.05.27-.11.71-.35a3.684 3.684 0 001.42-1.48 4.905 4.905 0 00.56-3 11.627 11.627 0 00-1.17-3.65l-.42-.87.45-.25a2.818 2.818 0 01-.74 3.55 2.319 2.319 0 01-1.6.51 2.755 2.755 0 01-2.45-2.15 1.084 1.084 0 010-.72s0 .26.15.68a2.642 2.642 0 001.11 1.41c.353.219.755.346 1.17.37a1.91 1.91 0 001.28-.46 2.378 2.378 0 00.6-2.92l.46-.25.42.88a11.379 11.379 0 011.18 3.82 5.157 5.157 0 01-.72 3.21 3.732 3.732 0 01-1.65 1.48 1.6 1.6 0 01-.76.19zm20.39-38.09a10.66 10.66 0 01-1.53.2c-1 .11-2.42.22-4.19.34-3.53.24-8.43.45-13.84.47-5.41.02-10.3-.17-13.84-.39-1.77-.11-3.2-.22-4.19-.32a7.566 7.566 0 01-1.52-.2 10.15 10.15 0 011.54 0l4.19.15c3.53.13 8.42.25 13.82.24 5.4-.01 10.29-.17 13.82-.32l4.19-.17a7.72 7.72 0 011.55 0zM315 262.25a6.914 6.914 0 01-5.26 0 13.92 13.92 0 012.63 0 13.92 13.92 0 012.63 0zm-5.25 5.75s.2.16.51.48c.427.443.919.817 1.46 1.11a2.58 2.58 0 002.5 0 2.322 2.322 0 001.19-2.62 2.179 2.179 0 00-2-1.73 2.3 2.3 0 00-2.05 1.05l-.15.25-.17-.22a1.997 1.997 0 01-.15-2.26c.3-.48.62-.58.63-.55.01.03-.23.2-.43.65a1.784 1.784 0 00.25 1.9h-.32a2.71 2.71 0 014.71 2.66 2.998 2.998 0 01-1.27 1.26 2.898 2.898 0 01-1.58.32 3.213 3.213 0 01-1.32-.42 5.05 5.05 0 01-1.43-1.31c-.3-.33-.41-.57-.38-.57zm8.77 1.26a11.65 11.65 0 011.52-3.13 11.404 11.404 0 012-2.87 11.983 11.983 0 01-1.53 3.13 11.8 11.8 0 01-1.99 2.87z" fill="#FAFAFA"/>
  <path d="M323 270.75a13.26 13.26 0 01-5.25-6c.13-.08 1.1 1.42 2.55 3.06 1.45 1.64 2.79 2.82 2.7 2.94zm-45.76-18.37c.317.358.71.642 1.15.83a3.323 3.323 0 003.52-.89c1.16-1.18 1.67-3.2 1.87-5.39a31.48 31.48 0 00-.36-7.21c-.11-.74-.22-1.48-.32-2.17l.51-.07c.15 1.142.15 2.298 0 3.44a4.63 4.63 0 01-1.55 2.84 2.94 2.94 0 01-2.84.59 3.803 3.803 0 01-1.92-1.62 6.71 6.71 0 01-.79-3.44 5.387 5.387 0 01.09-1.28c.062.421.096.845.1 1.27a7.007 7.007 0 00.89 3.26 3.439 3.439 0 001.76 1.42 2.489 2.489 0 002.41-.56 4.152 4.152 0 001.36-2.56 13.189 13.189 0 000-3.31l.51-.06c.1.69.22 1.43.33 2.18.399 2.422.507 4.883.32 7.33-.23 2.22-.79 4.34-2.09 5.6a3.595 3.595 0 01-2.1 1.05 3.324 3.324 0 01-1.76-.23 2.242 2.242 0 01-.88-.68.825.825 0 01-.21-.34zm17.12-1.19s-.22.33-.87.32a2.175 2.175 0 01-1.203-.49 2.176 2.176 0 01-.707-1.09c-.17-.57-.228-1.168-.17-1.76a17.19 17.19 0 00.14-1.91 1.736 1.736 0 00-.26-.88 1.136 1.136 0 00-.72-.5c-.58-.11-1 .59-1.18 1.31a15.833 15.833 0 00-.36 5.3l-.45.05c-.15-1.81-.26-3.33-.32-4.39a7.49 7.49 0 010-1.68 7.64 7.64 0 01.29 1.65c.14 1.06.31 2.57.5 4.38l-.45.05a14.948 14.948 0 01.31-5.49c.091-.418.268-.813.52-1.16a1.318 1.318 0 011.25-.52 1.842 1.842 0 011.37 1.85c-.015.67-.079 1.339-.19 2a4.72 4.72 0 00.09 1.62 2.003 2.003 0 001.58 1.48 2.1 2.1 0 00.83-.14zM400.63 96.33c-.076.139-.17.267-.28.38-.295.35-.608.684-.94 1a14.787 14.787 0 01-4.15 2.74 7.7 7.7 0 01-3.41.68A3.854 3.854 0 01388.5 99a7.36 7.36 0 01-.4-4.39 15.44 15.44 0 014.24-8.3c.279-.316.619-.57 1-.75a1.18 1.18 0 011.27.29c.293.302.467.7.49 1.12.017.369-.013.739-.09 1.1a13.006 13.006 0 01-7.33 9.49 10.33 10.33 0 01-1.28.45 1.273 1.273 0 01-.46.1s.61-.23 1.65-.74a13.13 13.13 0 003.85-3 12.63 12.63 0 003.1-6.4 1.995 1.995 0 00-.28-1.79.662.662 0 00-.74-.18c-.294.164-.555.38-.77.64a15.01 15.01 0 00-2.67 3.7 14.845 14.845 0 00-1.43 4.32 6.88 6.88 0 00.32 4.1 3.409 3.409 0 002.95 1.9 7.547 7.547 0 003.24-.59 16.427 16.427 0 004.16-2.55c.84-.74 1.28-1.22 1.31-1.19z" fill="#FAFAFA"/>
  <path d="M403.59 97.8a3.765 3.765 0 01-1 1.54 2.723 2.723 0 01-1.85.89 1.92 1.92 0 01-1.24-.34 1.882 1.882 0 01-.73-1.19 13.553 13.553 0 01.23-4.4 4.78 4.78 0 01.55-1.73 8.973 8.973 0 01-.19 1.79 18.586 18.586 0 00-.08 4.23c.055.35.237.666.51.89.277.188.606.282.94.27a2.48 2.48 0 001.61-.68c.79-.73 1.18-1.33 1.25-1.27zM400.18 87c-.05.06-.32-.36.05-.9a.93.93 0 011-.33 1.06 1.06 0 01.69 1.17.997.997 0 01-1.12.77.86.86 0 01-.75-.81.82.82 0 01.25-.67c.13-.11.23-.11.24-.09.01.02-.23.28-.12.71a.46.46 0 00.43.38.561.561 0 00.56-.4.589.589 0 00-.35-.61.55.55 0 00-.6.12c-.27.3-.21.66-.28.66zM418 101.72s-.09-.1-.23-.32a8.84 8.84 0 01-.51-1 13.51 13.51 0 01-1.06-4.06c-.13-.86.1-2-.6-2.61a.85.85 0 00-1.2 0c-.399.375-.736.81-1 1.29a15.22 15.22 0 00-2.43 7.18.26.26 0 11-.52 0 17.466 17.466 0 00-.84-4.81 8.11 8.11 0 00-.73-1.71.92.92 0 00-1.3-.38c-.48.312-.886.725-1.19 1.21a11.407 11.407 0 00-2.13 5.89.212.212 0 01-.21.2.226.226 0 01-.14-.067.225.225 0 01-.06-.143c.17-2.55.32-4.67.42-6.24l.15-1.71a.3.3 0 11.12 0v1.72c-.06 1.57-.14 3.69-.24 6.25h-.41a11.658 11.658 0 012.14-6.16 4.51 4.51 0 011.35-1.37 1.413 1.413 0 011.09-.14c.358.118.665.354.87.67.343.58.612 1.202.8 1.85a17.593 17.593 0 01.87 4.95h-.52A15.622 15.622 0 01413 94.8a6.33 6.33 0 011.15-1.39 1.49 1.49 0 01.88-.34c.322 0 .633.121.87.34.388.403.607.94.61 1.5 0 .51 0 1 .05 1.39.107 1.37.41 2.717.9 4 .34.93.59 1.4.54 1.42zm-21.07 11.17a.736.736 0 01-.09.3 3.23 3.23 0 01-.47.77 1.27 1.27 0 01-1.35.52c-.65-.21-.93-.94-1.09-1.59a42.306 42.306 0 01-.89-4.75 3.552 3.552 0 00-.1-.64c-.05-.19-.17-.38-.26-.4-.09-.02-.16 0-.28.18-.12.18-.22.41-.33.62-.416.905-.715 1.86-.89 2.84-.233 1.493-.363 3-.39 4.51a.25.25 0 01-.408.185.236.236 0 01-.082-.135 71.879 71.879 0 01-1.19-7.51c-.09-.94-.15-1.68-.17-2.19a2.976 2.976 0 010-.8c.209.974.366 1.959.47 2.95.27 1.85.69 4.45 1.36 7.44l-.49.05c.01-1.541.137-3.078.38-4.6.176-1.038.492-2.047.94-3 .12-.23.23-.44.37-.67a.924.924 0 01.34-.34.644.644 0 01.56 0c.133.077.249.18.341.304.091.124.155.266.189.416.057.236.094.477.11.72.177 1.589.434 3.167.77 4.73.13.64.37 1.23.82 1.39a1.065 1.065 0 001.11-.37c.51-.54.67-.96.72-.93zm13.12-2.38c-1.407.442-2.86.72-4.33.83a18.983 18.983 0 01-4.4.32 18.615 18.615 0 014.33-.83 18.344 18.344 0 014.4-.32z" fill="#FAFAFA"/>
  <path d="M406.25 113.71c.187-.46.474-.874.84-1.21a8.999 8.999 0 012.94-2.11v.48l-.58-.21a11.069 11.069 0 01-4.69-3.12 37.768 37.768 0 004.88 2.63l.56.21a.272.272 0 01.15.34.266.266 0 01-.14.14 16.263 16.263 0 00-3.96 2.85zm18.24-6.13a.816.816 0 01.25-.32 1.74 1.74 0 011.09-.38 2.066 2.066 0 011.66.76 2.478 2.478 0 01.28 2.39 3.22 3.22 0 01-.873 1.227 3.228 3.228 0 01-1.337.693 5.26 5.26 0 01-3.35-.23 10.23 10.23 0 01-3.1-2c-.93-.81-1.91-1.76-3.14-1.85a2.702 2.702 0 00-2.64 2 2.468 2.468 0 001.27 2.77c.443.264.956.386 1.47.35a3.075 3.075 0 001.38-.52 14.972 14.972 0 002.14-1.81 21.344 21.344 0 002.63-3.14c.55-.79.83-1.26.86-1.24.03.02 0 .13-.14.37s-.3.56-.55 1a18.887 18.887 0 01-2.54 3.29 14.939 14.939 0 01-2.17 1.92 3.604 3.604 0 01-1.56.61 3.122 3.122 0 01-1.76-.39 3.331 3.331 0 01-1.32-1.36 2.67 2.67 0 01-.2-2 3.19 3.19 0 013.16-2.33 3.94 3.94 0 011.95.75c.521.387 1.022.801 1.5 1.24a10 10 0 002.93 1.93 4.922 4.922 0 003.07.26 2.85 2.85 0 002-1.64 2.216 2.216 0 00-.17-2.09 1.878 1.878 0 00-1.43-.73 1.909 1.909 0 00-1.36.47zm44.64-7.06c0 .14-8.25.26-18.42.26-10.17 0-18.43-.12-18.43-.26s8.25-.26 18.43-.26 18.42.12 18.42.26zm-30.2-5.01a17.322 17.322 0 01-1.39-2.82c-.21-.45-.42-.94-.65-1.45-.23-.51-.43-1.2-.84-1.33-.19-.06-.39.06-.57.3a4.6 4.6 0 00-.46.86 19.272 19.272 0 00-1.33 4.06.258.258 0 01-.107.164.252.252 0 01-.193.036.26.26 0 01-.2-.2c-.49-2.38-1.06-4.43-1.51-5.89a17.114 17.114 0 01-.67-2.35 9.974 9.974 0 011 2.25 45.111 45.111 0 011.69 5.89h-.5c.143-.717.33-1.425.56-2.12.229-.683.499-1.35.81-2 .14-.33.314-.646.52-.94a1.058 1.058 0 011.11-.46 1.396 1.396 0 01.76.8c.11.28.23.56.34.83.21.51.4 1 .59 1.47.423.938.771 1.907 1.04 2.9zm10.98-6.23c-.73.095-1.451.242-2.16.44a6.42 6.42 0 01-2.46.34 3.15 3.15 0 01-1.45-.5 2 2 0 01-.91-1.44c-.06-1.25.75-2.08 1-2.86a1.407 1.407 0 00-.41-1.87 1.46 1.46 0 00-1.36.31c-.31.22-.47.35-.5.33-.03-.02.09-.21.38-.49.177-.17.38-.312.6-.42a1.28 1.28 0 011-.07 1.787 1.787 0 01.71 2.37c-.32.91-1 1.72-.95 2.65.05.93 1.08 1.41 1.9 1.52a6.799 6.799 0 002.31-.23 3.88 3.88 0 012.3-.08zm6.35 4.09a12.166 12.166 0 01-4.31 1 12.3 12.3 0 01-4.42-.13 43.565 43.565 0 014.37-.39 42.737 42.737 0 014.36-.48zm2.44 3.85a24.808 24.808 0 012.7-4.29 25.626 25.626 0 013.13-4 24.252 24.252 0 01-2.7 4.3 24.584 24.584 0 01-3.13 3.99z" fill="#FAFAFA"/>
  <path d="M467.27 96.47a21.128 21.128 0 01-9.27-8.38c.13-.09 1.78 2.2 4.35 4.5 2.57 2.3 5 3.74 4.92 3.88zm-23.58 17.95c.297.025.59.089.87.19.77.225 1.568.336 2.37.33a3.665 3.665 0 002.94-1.44 2.444 2.444 0 00.32-1.86 1.601 1.601 0 00-1.37-1.25 1.474 1.474 0 00-.84.098 1.474 1.474 0 00-.65.542l-.32-.35a6.123 6.123 0 001.62-.89c.21-.163.385-.367.516-.598.13-.232.213-.488.244-.752a1.248 1.248 0 00-.59-1.16 2.128 2.128 0 00-1.19-.33 4.173 4.173 0 00-1.78.61 3.43 3.43 0 01-.64.33s.16-.21.54-.48a3.855 3.855 0 011.86-.79c.499-.028.993.105 1.41.38a1.7 1.7 0 01.82 1.52 2.462 2.462 0 01-.89 1.7 6.773 6.773 0 01-1.74 1 .258.258 0 01-.363-.245c0-.039.008-.079.023-.115a1.997 1.997 0 012-.91c.444.05.86.239 1.19.54.305.302.52.683.62 1.1a2.938 2.938 0 01-.42 2.24 4.005 4.005 0 01-3.34 1.55 7.466 7.466 0 01-2.43-.5 2.73 2.73 0 01-.78-.46zM309.8 214.71s.09-.07.29-.16a3.42 3.42 0 01.93-.21 4.58 4.58 0 014.52 3.32 5.304 5.304 0 01-.05 2.82 6.517 6.517 0 01-1.57 2.68 5.657 5.657 0 01-2.9 1.65 3.656 3.656 0 01-3.27-.71 3.702 3.702 0 01-1.07-2.94 7.777 7.777 0 01.72-2.7c.34-.79.67-1.51 1-2.16a5.111 5.111 0 012.42-2.48c.295-.125.61-.2.93-.22a.699.699 0 01.34 0 5.65 5.65 0 00-1.18.39 5.145 5.145 0 00-2.19 2.46c-.31.64-.62 1.38-.94 2.16a7.434 7.434 0 00-.64 2.55 2.873 2.873 0 001.015 2.603c.376.312.825.523 1.305.613.481.091.976.058 1.44-.096a5.793 5.793 0 004.11-4 4.805 4.805 0 00.09-2.57 4.12 4.12 0 00-1.12-1.93 4.44 4.44 0 00-3-1.3 8.172 8.172 0 00-1.18.23zm18.2 9.93a10.108 10.108 0 01-2.08-1c-1.26-.67-3-1.63-4.9-2.72l-.25-.15.18-.23c.087-.128.18-.252.28-.37a39.241 39.241 0 014-4.42 9.367 9.367 0 011.9-1.56 15.91 15.91 0 01-1.73 1.81c-1 1.1-2.41 2.66-3.81 4.48l-.28.36-.08-.38c1.91 1.1 3.61 2.11 4.82 2.86.697.367 1.351.81 1.95 1.32z" fill="#FAFAFA"/>
  <path d="M336.62 219.79a16 16 0 01-9.58.43c0-.16 2.16.12 4.8 0 2.64-.12 4.75-.58 4.78-.43z" fill="#FAFAFA"/>
  <path d="M335.8 225a8.228 8.228 0 011.56-2.08 21.912 21.912 0 014.92-4v.45l-.66-.39a26.099 26.099 0 00-6.27-2.5c-1.68-.42-2.76-.55-2.75-.64a9.184 9.184 0 012.83.29 21.484 21.484 0 016.44 2.4l.68.39.37.22-.38.23a25.97 25.97 0 00-4.93 3.82c-1.13 1.1-1.75 1.86-1.81 1.81zm10.2 8.82a3.05 3.05 0 00.93 1.58 3.395 3.395 0 001.93.85 3.998 3.998 0 002.65-.84 6.272 6.272 0 002.05-2.74c.48-1.268.815-2.587 1-3.93.488-3.079.518-6.212.09-9.3a32.29 32.29 0 00-1.52-6.21l.47-.16a7.883 7.883 0 01.45 3.76 4.5 4.5 0 01-1.79 3 3.235 3.235 0 01-3.06.45 4.25 4.25 0 01-2-1.76 7.54 7.54 0 01-.89-3.62v-1a1.61 1.61 0 010-.34c.085.435.132.877.14 1.32a7.768 7.768 0 001 3.46 3.902 3.902 0 001.87 1.57 2.834 2.834 0 002.67-.44 4.006 4.006 0 001.57-2.7 7.518 7.518 0 00-.45-3.53l.47-.17a30.847 30.847 0 011.56 6.3 31.68 31.68 0 01-.12 9.46 18.091 18.091 0 01-1.06 4 6.568 6.568 0 01-2.24 2.88 4.206 4.206 0 01-2.89.83 3.535 3.535 0 01-2-1 2.734 2.734 0 01-.74-1.23 1.368 1.368 0 01-.09-.49zm20.3-1.54s.05.05.05.18a.597.597 0 01-.27.48 1 1 0 01-.87.19 1.455 1.455 0 01-.86-.81c-.61-1.6-1.2-3.81-2-6.41l.45.07a14.22 14.22 0 00-2.31 7.95h-.48c-.32-2.39-.57-4.44-.74-5.88a12.325 12.325 0 01-.17-2.31c.218.739.375 1.495.47 2.26.24 1.44.56 3.47.92 5.86h-.48a14.183 14.183 0 012.37-8.23l.3-.45.15.52c.74 2.58 1.29 4.88 1.78 6.4a1.25 1.25 0 00.65.72.931.931 0 00.71-.09c.39-.15.28-.46.33-.45zm10.86-6.09a47.49 47.49 0 01-1.13-6.91 46.771 46.771 0 01-.6-7 48.062 48.062 0 011.12 6.91c.375 2.315.579 4.655.61 7z" fill="#FAFAFA"/>
  <path d="M382.87 219.86c-1.706.574-3.483.91-5.28 1a19.87 19.87 0 01-5.37 0 46.086 46.086 0 015.32-.55 46.855 46.855 0 015.33-.45zm4.24 4.64a34.161 34.161 0 01-1.22-5.8 34.507 34.507 0 01-.71-5.88 32.818 32.818 0 011.22 5.8c.405 1.936.643 3.903.71 5.88z" fill="#FAFAFA"/>
  <path d="M387.25 226.4c0-.09 1.13-.59 2.85-1.64a8.873 8.873 0 002.57-2.35 4.82 4.82 0 00.87-3.94 5.341 5.341 0 00-2.54-3.17 7.312 7.312 0 00-3.33-.87c-1.091.023-2.18.113-3.26.27.258-.154.543-.259.84-.31.79-.208 1.603-.319 2.42-.33a7.316 7.316 0 013.56.82 5.66 5.66 0 012.84 3.46 5.211 5.211 0 01-1 4.35 8.72 8.72 0 01-2.76 2.38c-.706.405-1.441.756-2.2 1.05-.269.14-.56.234-.86.28zm35.92-18.99c-.12-.09 2.76-4.17 6.43-9.11 3.67-4.94 6.74-8.88 6.86-8.8.12.08-2.77 4.17-6.44 9.11-3.67 4.94-6.74 8.88-6.85 8.8z" fill="#FAFAFA"/>
  <path d="M437.45 209.16c-.11.09-3.41-4.06-7.37-9.27s-7.06-9.51-6.95-9.59c.11-.08 3.41 4.06 7.37 9.27s7.07 9.51 6.95 9.59zm7.84-4.91s-.09 0-.24-.08a1.31 1.31 0 01-.55-.49 4.476 4.476 0 01-.43-2.61 10.67 10.67 0 00-.07-1.76 2.077 2.077 0 00-.91-1.54c-1.11-.64-2.94.4-3.22 1.89-.28 1.49.43 3.22 1 4.56l-.41.22a9.703 9.703 0 01-1.43-5.07 8.568 8.568 0 01.13-1.5 1.66 1.66 0 01.15-.52c.07 0-.07.75 0 2a10.186 10.186 0 001.54 4.83l-.42.23a16.74 16.74 0 01-.91-2.22 5.345 5.345 0 01-.18-2.65 3.156 3.156 0 011.55-2.07 2.437 2.437 0 012.42-.13c.314.214.576.496.767.824.19.329.304.697.333 1.076.05.612.05 1.228 0 1.84a4.678 4.678 0 00.23 2.49c.36.51.69.62.65.68zm53.84-4.25s.24-.31.87-.42a2.37 2.37 0 012.33 1v.12a1.782 1.782 0 01-.24.842 1.781 1.781 0 01-.61.628 2.678 2.678 0 01-1.81.36 1.877 1.877 0 01-1.29-.77 1.704 1.704 0 01-.2-1.41 2.385 2.385 0 011.68-1.47 1.737 1.737 0 011.48.19c.3.21.36.42.35.42-.01 0-.16-.12-.45-.24a1.647 1.647 0 00-1.27 0 2.065 2.065 0 00-1.33 1.26 1.197 1.197 0 00.17 1 1.352 1.352 0 00.94.55 2.262 2.262 0 001.46-.28 1.282 1.282 0 00.66-1v.12a2.21 2.21 0 00-1.92-1c-.275.02-.548.054-.82.1zm-50.79-3.18s.13-.13.44-.12a1.607 1.607 0 011.1.56 1.843 1.843 0 01.45 1.8 1.511 1.511 0 01-.81.87c-.388.17-.822.202-1.23.09a1.766 1.766 0 01-1.43-1.54 1.95 1.95 0 01.76-1.34 2.197 2.197 0 011.1-.45c.68-.05 1 .24 1 .27 0 .03-.37-.1-.93 0a1.812 1.812 0 00-1.43 1.52 1.297 1.297 0 001.07 1.06 1.179 1.179 0 001.47-.61c.071-.24.082-.494.033-.739a1.541 1.541 0 00-.313-.671 1.82 1.82 0 00-.566-.485 1.833 1.833 0 00-.714-.215zm14.18-10.4c.04.529.04 1.061 0 1.59-.07 1.12-.17 2.58-.28 4.34-.11 1.76-.29 4-.47 6.43 0 .61-.1 1.23-.15 1.87a2 2 0 01-.37 1 .996.996 0 01-1.2.2 2.676 2.676 0 01-.82-.74l-.62-.81c-.41-.55-.81-1.11-1.21-1.7a41.04 41.04 0 01-3.88-7.27l.45-.11c.27 3.48.5 6.46.67 8.68l.15 2.48a4.62 4.62 0 010 .88 3.57 3.57 0 01-.16-.87c-.07-.65-.17-1.48-.28-2.47-.22-2.21-.52-5.19-.86-8.66l-.15-1.56.61 1.44a42.262 42.262 0 003.87 7.17c.393.58.793 1.14 1.2 1.68a5.646 5.646 0 001.25 1.41.468.468 0 00.59-.08c.153-.225.243-.488.26-.76 0-.63.11-1.25.16-1.85l.59-6.42.43-4.32c.026-.522.1-1.041.22-1.55zm16.48 9.04a44.628 44.628 0 01-6.63 1.74c-2.212.58-4.465.991-6.74 1.23a44.628 44.628 0 016.63-1.74 45.187 45.187 0 016.74-1.23z" fill="#FAFAFA"/>
  <path d="M475 200.82c.464-.557.984-1.067 1.55-1.52 1-.91 2.44-2.15 4.08-3.55l.07.43-1.68-.67c-2.41-1-4.57-1.89-6.13-2.57a14.84 14.84 0 01-2.48-1.2c.898.205 1.775.493 2.62.86 1.59.59 3.78 1.45 6.18 2.42l1.68.69.4.16-.33.27c-1.66 1.38-3.13 2.58-4.19 3.41-.543.486-1.136.912-1.77 1.27zm23.29 3.47a6.63 6.63 0 01-.91-.68c-.58-.45-1.43-1.11-2.55-1.89a47.17 47.17 0 00-9.84-5.27l-.78-.3.79-.15a17.536 17.536 0 005.32-1.48 5.5 5.5 0 003.19-4.6 3.29 3.29 0 00-3.23-3.25 2.698 2.698 0 00-2 1.22 5.99 5.99 0 00-.82 2.25 21.384 21.384 0 00-.1 4.58c.05 1.45.1 2.8.14 4 .07 2.41.13 4.4.17 5.86v1.59a2.1 2.1 0 010 .56 2.465 2.465 0 01-.08-.56c0-.42-.06-.94-.11-1.59-.08-1.45-.2-3.43-.33-5.85-.07-1.24-.13-2.59-.21-4a21.758 21.758 0 01.06-4.69 6.202 6.202 0 01.88-2.44 3.197 3.197 0 012.34-1.45 3.276 3.276 0 012.63 1.07 3.996 3.996 0 011.16 2.68A4.998 4.998 0 01493 193a6.998 6.998 0 01-2.39 2 17.94 17.94 0 01-5.48 1.5v-.45a44.4 44.4 0 019.83 5.47c1.1.82 1.93 1.52 2.49 2 .307.226.588.484.84.77z" fill="#FAFAFA"/>
  <path opacity=".1" d="M487.28 259.66c-8.74.61-15.56 9.37-15.55 18.13a20.817 20.817 0 0012.54 18.84 19.997 19.997 0 0021.93-5c5.3-6 7.44-16.48 3.17-23.24-4.27-6.76-14.53-11.34-22.09-8.72" fill="#fff"/>
  <path d="M552.48 1.87a21.415 21.415 0 01-2.41 2.43c-1.54 1.45-3.7 3.41-6.14 5.52-2.44 2.11-4.69 4-6.36 5.26-.85.64-1.53 1.15-2 1.48a2.92 2.92 0 01-.8.47 30.031 30.031 0 012.59-2.24c1.61-1.36 3.82-3.25 6.25-5.36l6.23-5.4a23.212 23.212 0 012.64-2.16zm0 362.96c-.1.1-4.19-3.8-9.14-8.72-4.95-4.92-8.87-9-8.76-9.1.11-.1 4.19 3.81 9.13 8.73s8.87 8.99 8.77 9.09zM116.06 17c-.1.11-4.05-3.53-8.83-8.11S98.66.51 98.76.41c.1-.1 4.06 3.52 8.83 8.11 4.77 4.59 8.57 8.41 8.47 8.48z" fill="#455A64"/>
  <path d="M512.74 16.88c0 .15-88 .26-196.59.26s-196.62-.14-196.62-.26 88-.26 196.62-.26 196.59.12 196.59.26zm23.44 317.47c-.15 0-.26-65.92-.26-147.22s.11-147.24.26-147.24c.15 0 .26 65.91.26 147.24 0 81.33-.12 147.22-.26 147.22z" fill="#fff"/>
  <path d="M248.55 162.92l-14.75 8a9.343 9.343 0 00-2.65 1.87 2.748 2.748 0 00.562 4.457c.52.277 1.115.38 1.698.293a8.988 8.988 0 003.51-1l18.19-8.14a12.754 12.754 0 004.23-2.6 4.354 4.354 0 001.08-4.59 3.47 3.47 0 00-4.15-1.92 54.053 54.053 0 00-7.72 3.69" fill="#FAFAFA"/>
  <path d="M248.55 162.92a3.38 3.38 0 01.64-.41c.42-.25 1.06-.61 1.88-1.06.82-.45 1.85-1 3.06-1.54a15.468 15.468 0 012-.81 3.914 3.914 0 012.46.06 3.683 3.683 0 012 1.84 3.88 3.88 0 01.11 2.94 5.767 5.767 0 01-1.81 2.55 12.79 12.79 0 01-2.83 1.69l-13.15 5.91-6.83 3a6.072 6.072 0 01-3.61.52 3.595 3.595 0 01-1.62-.86 2.518 2.518 0 01-.78-1.64 3.753 3.753 0 011.4-3 13.13 13.13 0 012.63-1.64l4.84-2.58 7-3.7 1.93-1c.215-.127.443-.231.68-.31-.2.149-.41.283-.63.4l-1.92 1.11-7 3.84-4.81 2.64c-.898.435-1.744.972-2.52 1.6a3.302 3.302 0 00-1.23 2.64 2.417 2.417 0 002 2 5.563 5.563 0 003.31-.51l6.81-3 13.16-5.87a12.216 12.216 0 002.73-1.61 5.233 5.233 0 001.7-2.34 3.428 3.428 0 00-.06-2.62 3.259 3.259 0 00-1.76-1.67c-1.54-.63-3 .17-4.2.66-1.2.49-2.24 1.05-3.08 1.46l-1.93 1a5.415 5.415 0 01-.57.31z" fill="#263238"/>
  <path d="M64.81 103.32l-1 78.08c-.16 13.28 2.31 32.82 23.31 32.12 18.18-2 23-19.19 23.15-31.58.06-5.88.13-10.78.18-11.38 0 0 19.9-1.62 21.58-21.28.81-9.5.89-29.2.75-47A36.748 36.748 0 0098.7 65.93l-1.9-.14c-20.52-.32-32.26 16.98-31.99 37.53z" fill="#876760"/>
  <path d="M110.48 170.56s-12.46-.18-25.06-9.44c0 0 5.19 14.82 25 14.48l.06-5.04z" fill="#664D49"/>
  <path d="M99.21 110.31c-.39.4-2.66-1.42-6-1.51-3.34-.09-5.75 1.52-6.09 1.1-.17-.19.23-.92 1.31-1.67a8.223 8.223 0 014.89-1.39c1.72.05 3.38.653 4.73 1.72 1.03.83 1.35 1.58 1.16 1.75zm-.1 6.82a2.66 2.66 0 01-2.76 2.49 2.54 2.54 0 01-2.56-2.6 2.66 2.66 0 012.75-2.49 2.559 2.559 0 012.57 2.6zm8.35 16.09c0-.17 1.9-.36 5-.53.78 0 1.52-.12 1.69-.64.122-.791 0-1.6-.35-2.32-.59-1.92-1.2-3.94-1.85-6-2.56-8.6-4.35-15.65-4-15.75.35-.1 2.71 6.79 5.27 15.39.61 2.12 1.2 4.14 1.75 6.08a4.46 4.46 0 01.18 3.06 1.932 1.932 0 01-1.35 1 5.3 5.3 0 01-1.33.09c-3.11-.08-5.01-.21-5.01-.38zm-9.65-35.29c-.32.73-3 .18-6.11.35-3.11.17-5.76.85-6.12.15-.16-.33.33-1 1.4-1.66a10.35 10.35 0 019.32-.38c1.11.61 1.7 1.2 1.51 1.54zm31.27 6.07c-.34.59-2.91-.07-6-.17s-5.7.31-6-.32c-.15-.29.36-.83 1.45-1.3a10.99 10.99 0 014.61-.76c1.589.051 3.15.436 4.58 1.13 1.02.6 1.51 1.17 1.36 1.42z" fill="#263238"/>
  <path d="M65.35 118c-.32-.17-13.22-5-13.77 8.49-.55 13.49 13.09 11.26 13.13 10.87.04-.39.64-19.36.64-19.36z" fill="#876760"/>
  <path d="M60.8 132.09c-.05 0-.24.16-.64.32a2.322 2.322 0 01-1.76 0c-1.4-.58-2.51-2.89-2.47-5.32.01-1.158.28-2.3.79-3.34a2.723 2.723 0 011.84-1.73 1.189 1.189 0 011.36.7c.17.38.07.65.14.68.07.03.3-.22.21-.78a1.53 1.53 0 00-.49-.87 1.8 1.8 0 00-1.29-.39 3.308 3.308 0 00-2.54 2 7.998 7.998 0 00-1 3.72c0 2.72 1.27 5.32 3.19 6a2.503 2.503 0 002.16-.26c.47-.4.55-.7.5-.73z" fill="#664D49"/>
  <path d="M104.28 142.56c.14-.34-2.5-1.14-4.35-3.61a15.006 15.006 0 01-1.87-3.52c-.39-1-.69-1.6-.84-1.55-.15.05-.1.7.12 1.77a9.841 9.841 0 001.73 3.94 8.078 8.078 0 003.44 2.64c1.03.42 1.73.44 1.77.33zm54.63-57.94a3.14 3.14 0 00-1.49-1.86c-1.54-.91-3.31-.79-5-.82a28.35 28.35 0 01-14.78-4.49 66.15 66.15 0 00-6.88-8.34c-5.95-6.14-10.86-10.32-15.93-12.36-6.56-2.64-17.53-3.71-24.37-1.92s-13 7.34-13.93 14.35c-3.83-3.24-9.59-3.22-14.26-1.34l-.12-.05c-5.2 1.86-8.16 7.35-9.69 12.66-1.53 5.31-2.19 11-5 15.73-.59 1-1.29 2.19-.77 3.22a2.182 2.182 0 002.29 1 6.44 6.44 0 002.43-1.1l-1.74 4.17c1.887.32 3.823.19 5.65-.38.956 4.735 2.192 9.41 3.7 14 2.18 0 4.17.15 5.51 1.36 1.82 1.64 2.64 4.72 5.67 3.55 1.54-.6 2.94-3.83 3.46-5.4A76.7 76.7 0 0077 84.12a24.67 24.67 0 017.61-5.5l-.23.21c5.49-1.9 11.71-3.78 16.92-1.2 4 2 6.42 6.19 9.44 9.54a30.861 30.861 0 0022 10.16c.29 5.54-.18 13.36.11 18.89l4.66-8.86a21.31 21.31 0 001-2l.11-.2c.461-1.078.982-2.13 1.56-3.15l.05.05c3 2.64 7.42-1.4 5-4.63a7.816 7.816 0 00-1.67-1.68 5.441 5.441 0 005.21 1.35 4.296 4.296 0 003-4.24 3.684 3.684 0 00-2.18-2.93 12.32 12.32 0 007-1.54c1.41-.73 2.79-2.03 2.32-3.77z" fill="#263238"/>
  <path d="M82.69 71.44a17.5 17.5 0 00-2 1.8 14 14 0 00-3 6.53 24.827 24.827 0 00-.5 5c0 1.81.14 3.75.27 5.79a50.51 50.51 0 01.15 6.45 22.3 22.3 0 01-.44 3.4 7.107 7.107 0 01-1.39 3.3 3.005 3.005 0 01-2.77.93 4.4 4.4 0 01-2.5-1.41 10.23 10.23 0 01-1.9-5l.42.05a16.614 16.614 0 01-2.4 4.12 5.783 5.783 0 01-3.82 2.08 3.778 3.778 0 01-2-.35 3.21 3.21 0 01-1.37-1.36A3.317 3.317 0 0159 101a2.41 2.41 0 01.63-1.53l.21.18a12.606 12.606 0 01-4.23 3.17c-.422.197-.856.368-1.3.51-.153.053-.31.093-.47.12 0 0 .14-.08.44-.19s.73-.3 1.27-.57a13.146 13.146 0 004.08-3.22l.2.19a2.52 2.52 0 00-.13 2.92c.285.518.72.937 1.25 1.2.572.273 1.21.377 1.84.3a5.51 5.51 0 003.55-2 16.556 16.556 0 002.3-4l.28-.63.13.68a9.862 9.862 0 001.81 4.78 3.999 3.999 0 002.23 1.26 2.525 2.525 0 002.36-.79 6.75 6.75 0 001.28-3.09c.23-1.098.376-2.21.44-3.33a51.79 51.79 0 00-.12-6.39c-.13-2.05-.26-4-.23-5.83.01-1.701.199-3.397.56-5.06a13.94 13.94 0 013.21-6.58 7.88 7.88 0 012.1-1.66zm60.83 19.13l-.16.13-.49.36a6.182 6.182 0 01-.84.53c-.38.24-.778.451-1.19.63a17.5 17.5 0 01-8.42 1.52 22.33 22.33 0 01-11.86-4.38 38.717 38.717 0 01-10.2-11.75c-1.43-2.38-2.59-4.83-3.88-7.08a26.634 26.634 0 00-4.39-6 13.463 13.463 0 00-5.67-3.43 9.669 9.669 0 00-3-.35 10.41 10.41 0 00-2.73.53 11.43 11.43 0 00-6.32 5.34 13.677 13.677 0 00-1 3v-.2c0-.13.06-.36.09-.61.166-.766.417-1.51.75-2.22a11 11 0 012.2-3A11.641 11.641 0 0190.58 61c.913-.318 1.865-.51 2.83-.57a9.76 9.76 0 013.1.33 13.693 13.693 0 015.86 3.5 26.203 26.203 0 014.49 6.07c1.3 2.27 2.47 4.7 3.89 7.06a38.52 38.52 0 0010 11.64 22.111 22.111 0 0011.64 4.4 17.57 17.57 0 008.32-1.35 29.57 29.57 0 002.81-1.51z" fill="#455A64"/>
  <path d="M145.31 81.93a3.298 3.298 0 01-.71.49c-.668.407-1.367.761-2.09 1.06a20.92 20.92 0 01-3.3 1.09 24.4 24.4 0 01-4.23.56 23.905 23.905 0 01-4.26-.29 20.759 20.759 0 01-3.37-.87 16.242 16.242 0 01-2.15-.93 3.198 3.198 0 01-.73-.44c0-.08 1.12.48 3 1.06 1.09.333 2.203.587 3.33.76 1.381.2 2.775.283 4.17.25a25.692 25.692 0 004.15-.52 23.361 23.361 0 003.28-1c1.81-.67 2.86-1.3 2.91-1.22z" fill="#455A64"/>
  <path d="M129.23 111.56c-.39.39-2.66-1.43-5.95-1.52-3.29-.09-5.76 1.52-6.1 1.1-.17-.19.23-.91 1.31-1.67a8.238 8.238 0 014.89-1.39 8.005 8.005 0 014.73 1.72c.99.83 1.31 1.58 1.12 1.76zm-.54 6.52a2.674 2.674 0 01-.872 1.811 2.674 2.674 0 01-1.888.689 2.538 2.538 0 01-2.56-2.6 2.658 2.658 0 012.75-2.5 2.559 2.559 0 012.57 2.6z" fill="#263238"/>
  <path d="M219.43 242.38l-1.12-.2 22.92-40.06-3.63-11.54s-4.2-16.45-.7-20.65c0 0 7.66-9 10.14-8.89 2.48.11 4.47.63 5 2.49 0 0 4.22-.5 5.34.87a21.588 21.588 0 012 3s4.6-.38 5.84 3.6c0 0 4.34 2.23 4.71 5.46.37 3.23-.86 18.25-2.23 22.1-1.37 3.85-6.46 11.92-7.95 23.84-1.49 11.92-6.8 27.48-11.47 44.9l-12.61-2.82-16.24-22.1z" fill="#876760"/>
  <path d="M13.59 224.3s-14 79.76-13.37 87.22c.63 7.46 4.42 19.33 12.89 21.36a37.368 37.368 0 0016.27 0l-10.17-98-5.62-10.58z" fill="#2B2E4A"/>
  <path d="M54.71 183.16S37.9 195.1 34.19 198.62c-15.54 14.69-18.79 20.71-20.6 25.68-1.81 4.97 10.79 120.46 10.79 120.46l2.55 20.18 1.84 17.45 116.13-.59a69.402 69.402 0 01-.85-11.3l.85-108.35-17.72-72.55-10.91-3.11-2.2-8.64s-13.55-10-35.9-10.3c-6.88-.09-16.6 2.62-22 6.83l-1.46 8.78z" fill="#2B2E4A"/>
  <path d="M114 189.9s13.15-.71 14.9.24a189.855 189.855 0 0127.21 17.74c12.26 9.81 47.2 32.27 47.2 32.27s4.85-4.67 9.35.64l10.09-8.08s25.95 9.84 30 29.46c0 0 1.43 7.8-6.74 12.12 0 0-21.7 19.41-39.26 17.53-18.54-2-60-21.41-62.13-22.21L116 256.94s-17.57-33.52-9.81-50.28L114 189.9z" fill="#2B2E4A"/>
  <path d="M212.38 258.22a9 9 0 01-.87-2.53 24.902 24.902 0 01-.72-6.4c.028-2.157.334-4.301.91-6.38.193-.871.51-1.709.94-2.49a25.55 25.55 0 01-.59 2.58 32.337 32.337 0 00-.74 6.3c-.028 2.12.159 4.238.56 6.32.22.856.39 1.724.51 2.6zm-96.11-71.73a2.34 2.34 0 01-.62-.12l-1.75-.46c-1.52-.39-3.74-.92-6.5-1.44a180.858 180.858 0 00-21.77-2.69 148.5 148.5 0 00-21.93.07c-2.79.24-5 .59-6.59.87l-1.77.35a4.464 4.464 0 01-.63.09c.19-.091.392-.155.6-.19l1.76-.45a59.26 59.26 0 016.6-1c7.315-.67 14.673-.743 22-.22 7.33.447 14.621 1.4 21.82 2.85 2.76.57 5 1.15 6.47 1.6l1.73.56c.197.046.391.106.58.18zm-45.95-6a19.435 19.435 0 01-.88-4.41 19.8 19.8 0 01-.36-4.48A19.01 19.01 0 0170 176c.277 1.48.384 2.986.32 4.49zm4.4-.37a10.581 10.581 0 01-1-4.42 10.34 10.34 0 01.42-4.51c.15 0-.08 2 .1 4.48.18 2.48.63 4.4.48 4.45zM179.62 284a2.909 2.909 0 01-.61-.15l-1.7-.55c-1.48-.5-3.59-1.27-6.18-2.28-5.18-2-12.25-5-20-8.39-7.75-3.39-14.75-6.57-19.79-8.9l-6-2.79-1.6-.79a3.022 3.022 0 01-.55-.3c.206.042.404.112.59.21l1.65.69 6 2.65 19.85 8.76c7.76 3.39 14.81 6.42 20 8.52 2.57 1.05 4.66 1.87 6.1 2.43l1.68.64c.195.064.382.148.56.25z" fill="#263238"/>
  <path opacity=".3" d="M55.1 183.05c18.46 3.27 37.18 0 56.71 2.35-18.86-3.91-38.51-5.76-56.71-2.35z" fill="#000"/>
  <path opacity=".3" d="M144.08 366.28c-.1.011-.2.011-.3 0l-.88.05-3.41.17-12.49.5-41.33 1.34c-16.15.55-30.76 1.24-41.32 1.86l-12.55.8-3.41.21H27.2a.987.987 0 01.3-.05l.89-.1 3.39-.3c3-.27 7.22-.59 12.5-.95 10.57-.72 25.18-1.46 41.33-2s30.76-.91 41.34-1.19l12.54-.32 3.4-.06h.89l.3.04z" fill="#fff"/>
  <path d="M144.08 342.14a8.186 8.186 0 01-1.2.11l-3.47.22-12.77.68-42.14 2.05-42.16 1.88-12.78.51-3.48.11h-.9a1.46 1.46 0 01-.31 0 .897.897 0 01.31 0l.9-.07 3.47-.21 12.77-.68 42.15-2 42.15-1.9 12.78-.52 3.48-.11h.9c.097-.036.197-.059.3-.07z" fill="#fff"/>
  <path opacity=".3" d="M144.08 319.79c0 .14-27.29 1.81-61 3.71s-61 3.34-61 3.2c0-.14 27.29-1.81 61-3.72 33.71-1.91 61-3.33 61-3.19z" fill="#fff"/>
  <path d="M143.34 290.85c0 .15-27.68 3.17-61.84 6.75-34.16 3.58-61.88 6.4-61.9 6.24-.02-.16 27.67-3.17 61.85-6.75s61.87-6.38 61.89-6.24z" fill="#fff"/>
  <path opacity=".3" d="M135.75 266.14c0 .14-26.46 3.65-59.14 7.85-32.68 4.2-59.19 7.47-59.2 7.33-.01-.14 26.45-3.66 59.14-7.85 32.69-4.19 59.18-7.47 59.2-7.33z" fill="#fff"/>
  <path d="M105.24 246.08c0 .14-19.72 3.73-44.1 8-24.38 4.27-44.14 7.66-44.2 7.52-.06-.14 19.72-3.73 44.11-8s44.17-7.66 44.19-7.52z" fill="#fff"/>
  <path opacity=".3" d="M97.65 228.49c0 .15-18.63 3.34-41.66 7.13-23.03 3.79-41.73 6.75-41.76 6.61-.03-.14 18.63-3.33 41.67-7.13 23.04-3.8 41.73-6.75 41.75-6.61z" fill="#fff"/>
  <path d="M96.3 205.8c-.27.096-.547.166-.83.21l-2.42.51-8.89 1.82c-7.51 1.54-17.86 3.77-29.24 6.47-11.38 2.7-21.64 5.35-29 7.34l-8.76 2.37-2.39.63a4.466 4.466 0 01-.84.18 6.46 6.46 0 01.81-.28l2.36-.73c2-.62 5-1.49 8.72-2.53a768.36 768.36 0 0129-7.49 743.15 743.15 0 0129.28-6.33c3.77-.72 6.82-1.29 8.93-1.65l2.44-.41c.273-.06.55-.097.83-.11z" fill="#fff"/>
  <path opacity=".3" d="M106.52 190a5.25 5.25 0 01-.74.07l-2.15.12c-1.86.08-4.56.22-7.89.43-6.65.41-15.83 1.17-25.93 2.44s-19.18 2.83-25.73 4.1c-3.27.63-5.92 1.16-7.74 1.54l-2.11.43c-.242.062-.49.099-.74.11.233-.095.474-.169.72-.22l2.09-.51c1.81-.45 4.44-1 7.71-1.71 6.54-1.36 15.63-3 25.74-4.26 10.11-1.26 19.31-2 26-2.29 3.34-.16 6-.25 7.9-.27h2.15c.24-.017.481-.011.72.02z" fill="#fff"/>
  <path d="M127.53 190.54a3.9 3.9 0 01-.31.62c-.25.43-.57 1-1 1.7-.43.7-1 1.63-1.49 2.71s-1.24 2.27-1.84 3.66l-1 2.16c-.34.76-.64 1.57-1 2.39-.71 1.64-1.31 3.45-2 5.35a94.975 94.975 0 00-3.13 12.66 93.456 93.456 0 00-1.18 13c0 2 0 3.92.12 5.7.05.89.07 1.76.15 2.58.08.82.16 1.61.24 2.37.12 1.52.37 2.87.54 4.06.17 1.19.36 2.22.53 3.06.17.84.27 1.43.37 1.92.05.223.081.451.09.68a3.394 3.394 0 01-.2-.66c-.11-.48-.27-1.12-.46-1.9-.19-.78-.43-1.85-.62-3s-.47-2.55-.62-4.07c-.08-.76-.18-1.55-.27-2.38-.09-.83-.12-1.69-.18-2.59-.16-1.79-.14-3.7-.17-5.72a83.243 83.243 0 014.39-25.84c.68-1.89 1.3-3.71 2-5.35.35-.83.66-1.64 1-2.39l1-2.16c.64-1.39 1.34-2.58 1.92-3.64.58-1.06 1.11-2 1.58-2.68l1.06-1.65c.139-.213.3-.411.48-.59z" fill="#fff"/>
  <path opacity=".3" d="M145.49 200.84c-.053.208-.13.41-.23.6l-.76 1.7c-.34.73-.75 1.62-1.19 2.68-.44 1.06-1 2.23-1.5 3.58-1.08 2.66-2.26 5.88-3.44 9.49-1.18 3.61-2.29 7.64-3.26 11.92-.97 4.28-1.66 8.41-2.18 12.17-.52 3.76-.81 7.18-1 10-.12 1.44-.14 2.74-.19 3.88-.05 1.14-.07 2.13-.08 2.93-.01.8 0 1.38 0 1.86.015.213.015.427 0 .64a2.646 2.646 0 01-.06-.64c0-.48 0-1.1-.05-1.86s0-1.79 0-2.94 0-2.45.11-3.89c.11-2.88.39-6.3.86-10.09s1.18-7.92 2.14-12.22c.96-4.3 2.13-8.33 3.31-12 1.18-3.67 2.43-6.83 3.56-9.48.54-1.34 1.11-2.52 1.58-3.56s.9-1.93 1.27-2.65.63-1.23.84-1.65a2.49 2.49 0 01.27-.47z" fill="#fff"/>
  <path d="M148 270.88c-.14 0 2.07-13.68 4.93-30.49S158.25 210 158.4 210c.15 0-2.07 13.68-4.93 30.5s-5.29 30.41-5.47 30.38z" fill="#fff"/>
  <path opacity=".3" d="M163.81 277.43c.026-.189.066-.377.12-.56.12-.42.27-.94.45-1.59.4-1.37 1-3.37 1.64-5.84 1.35-4.93 3-11.8 4.52-19.47 1.52-7.67 2.4-14.68 3-19.77.28-2.54.48-4.6.61-6 .07-.67.13-1.21.17-1.64a2.35 2.35 0 01.1-.57c.024.193.024.387 0 .58 0 .43 0 1-.07 1.64-.07 1.44-.22 3.51-.46 6.06-.46 5.1-1.35 12.14-2.81 19.83-1.46 7.69-3.23 14.56-4.67 19.47-.72 2.46-1.34 4.44-1.81 5.8-.22.63-.39 1.15-.54 1.56-.055.179-.14.348-.25.5z" fill="#fff"/>
  <path d="M184.46 285.91a2.409 2.409 0 010-.55v-1.6c0-1.38 0-3.38.08-5.86.14-4.95.51-11.79 1.29-19.3.78-7.51 1.82-14.29 2.71-19.16.44-2.44.83-4.41 1.12-5.76l.35-1.56c.032-.182.086-.36.16-.53.007.189-.014.377-.06.56-.06.41-.15.93-.25 1.57l-1 5.78a344.93 344.93 0 00-2.55 19.15 344.94 344.94 0 00-1.44 19.26c-.1 2.42-.18 4.4-.25 5.86 0 .64 0 1.17-.07 1.59a1.901 1.901 0 01-.09.55z" fill="#fff"/>
  <path opacity=".3" d="M203.59 291a2.005 2.005 0 01-.27-.46l-.68-1.37c-.3-.59-.65-1.32-1-2.19-.35-.87-.8-1.85-1.17-3-.37-1.15-.84-2.34-1.21-3.68-.37-1.34-.74-2.78-1.11-4.31a65.522 65.522 0 01-1.26-20.27c.17-1.55.31-3 .57-4.4.26-1.4.48-2.65.74-3.81.26-1.16.54-2.18.79-3.09.25-.91.49-1.68.71-2.3.22-.62.37-1.05.5-1.44.061-.167.131-.331.21-.49-.011.181-.048.36-.11.53-.11.39-.24.87-.41 1.46-.17.59-.41 1.4-.62 2.32-.21.92-.51 1.93-.71 3.09-.2 1.16-.49 2.42-.67 3.79-.18 1.37-.36 2.84-.53 4.39a74.806 74.806 0 00-.11 10.11c.234 3.36.692 6.701 1.37 10 .35 1.52.66 3 1.06 4.29s.76 2.56 1.13 3.67c.37 1.11.77 2.11 1.1 3 .33.89.63 1.62.9 2.22l.59 1.4c.083.173.146.354.19.54z" fill="#fff"/>
  <path d="M221.38 289.48a2.527 2.527 0 01-.37-.41c-.25-.34-.57-.75-1-1.26l-.69-.91-.75-1.14c-.55-.81-1.17-1.73-1.78-2.81l-1-1.66c-.31-.6-.63-1.22-1-1.86-.69-1.28-1.29-2.71-2-4.18a79.928 79.928 0 01-3.48-10 75.642 75.642 0 01-1.93-10.43c-.11-1.62-.3-3.16-.29-4.62v-2.09c0-.67.06-1.32.08-1.94 0-1.23.16-2.34.27-3.31.06-.48.11-.93.16-1.36l.2-1.12c.13-.63.23-1.15.31-1.56.031-.18.078-.358.14-.53.027.182.027.368 0 .55l-.22 1.57c-.05.34-.1.72-.16 1.13-.06.41-.07.87-.11 1.35-.08 1-.19 2.07-.19 3.3 0 .61 0 1.25-.05 1.92-.05.67.05 1.36.07 2.08 0 1.44.21 3 .34 4.58a77.32 77.32 0 002 10.34 84.55 84.55 0 003.41 10c.67 1.47 1.25 2.9 1.93 4.17.32.64.63 1.27.94 1.86.31.59.64 1.14.94 1.68.58 1.08 1.18 2 1.7 2.84l.72 1.15.65.94c.36.52.65 1 .89 1.3.104.134.194.278.27.43z" fill="#fff"/>
  <path opacity=".3" d="M233.38 281a12.935 12.935 0 01-.6-1.63c-.39-1.14-.91-2.65-1.53-4.48-1.32-3.77-3.27-8.93-5.73-14.51-2.46-5.58-5-10.49-6.88-14l-2.28-4.15a13.14 13.14 0 01-.8-1.54c.377.448.712.93 1 1.44.6.94 1.43 2.33 2.42 4.07a156.177 156.177 0 017 14c2.46 5.59 4.36 10.8 5.59 14.6.62 1.91 1.09 3.46 1.38 4.54a9.9 9.9 0 01.43 1.66zM114 185.11c-.07 0-.34-.81-1.23-2.08a13.185 13.185 0 00-5.11-4c-5-2.44-12.92-3-21.41-3.29-7.29-.151-14.577.341-21.78 1.47-2.76.42-5 .86-6.52 1.16l-1.77.36a3.19 3.19 0 01-.63.09c.192-.09.393-.157.6-.2l1.75-.45c1.53-.36 3.75-.86 6.51-1.33a115.826 115.826 0 0133.9-.74 30.54 30.54 0 019.51 2.6 13 13 0 015.12 4.23c.334.509.618 1.048.85 1.61.085.184.155.375.21.57z" fill="#fff"/>
  <path d="M15.12 253.53a12.754 12.754 0 01-3.43-1.08 12.002 12.002 0 01-3.23-1.57c1.187.21 2.339.587 3.42 1.12 1.149.35 2.24.865 3.24 1.53z" fill="#fff"/>
  <path opacity=".3" d="M16.79 275.92a45.14 45.14 0 01-5.79-.57 26.328 26.328 0 01-5.72-1.09c1.94.065 3.874.256 5.79.57a24.98 24.98 0 015.72 1.09z" fill="#fff"/>
  <path d="M19.6 298.24c-.87.134-1.75.184-2.63.15-1.63 0-3.87.12-6.37.06a33.418 33.418 0 01-6.35-.76c-.87-.151-1.72-.406-2.53-.76 0-.18 4 .89 8.9 1 2.47.06 4.72 0 6.35.09.882-.02 1.764.054 2.63.22z" fill="#fff"/>
  <path opacity=".3" d="M19.19 317.47a9.419 9.419 0 01-2.27 1.22 32.71 32.71 0 01-12.07 2.73 9.75 9.75 0 01-2.57-.11 16.777 16.777 0 012.55-.25 44.308 44.308 0 0012-2.71 18.355 18.355 0 012.36-.88z" fill="#fff"/>
  <path opacity=".3" d="M22.7 333c-10.38-24.32-9.15-51.81-7.75-78.22L22.7 333z" fill="#000"/>
  <path d="M13.59 241.69c.015.103.015.207 0 .31 0 .23.07.53.11.9.09.83.22 2 .37 3.48.31 3.06.74 7.43 1.27 12.81 1.06 10.82 2.5 25.77 4.22 42.26 1.72 16.49 3.44 31.42 4.81 42.2.68 5.4 1.26 9.76 1.67 12.77.2 1.48.35 2.64.46 3.47 0 .37.08.67.11.9a1.46 1.46 0 010 .31.938.938 0 01-.07-.3l-.16-.9c-.13-.82-.32-2-.56-3.45-.47-3-1.11-7.36-1.83-12.75-1.47-10.77-3.25-25.69-5-42.19-1.75-16.5-2.99-31.45-3.99-42.28-.46-5.39-.84-9.77-1.1-12.83-.11-1.49-.21-2.66-.27-3.49 0-.38 0-.68-.06-.91-.007-.104 0-.208.02-.31zm79.87-13.05a4.02 4.02 0 01-.76 0h-2.18c-1.89 0-4.63 0-8 .1-6.76.16-16.09.65-26.33 1.86a273.759 273.759 0 00-26 4.38c-3.31.71-6 1.33-7.81 1.78l-2.12.5a4.06 4.06 0 01-.75.13l.72-.24 2.1-.59c1.82-.51 4.48-1.18 7.78-1.94a246.313 246.313 0 0152.45-6.24c3.38 0 6.12 0 8 .06l2.18.08c.243.019.484.059.72.12z" fill="#263238"/>
  <path d="M48.16 254.47c-.15 0 .12-11.05.6-24.67.48-13.62 1-24.66 1.13-24.65.13.01-.13 11-.61 24.67-.48 13.67-.98 24.65-1.12 24.65zm60.29-1.37a4.115 4.115 0 01-.44-.69l-1.19-2c-1-1.82-2.53-4.36-4.35-7.48A64.565 64.565 0 0197 231.26a38.775 38.775 0 01-1.63-7.43 45.573 45.573 0 010-8.18 43.31 43.31 0 013.89-15.22 25.242 25.242 0 013.84-5.73 21.735 21.735 0 014.62-3.85 17.606 17.606 0 018.18-2.75 11.428 11.428 0 013.17.18c0 .07-1.13-.14-3.15 0a17.799 17.799 0 00-8 2.85 21.98 21.98 0 00-4.49 3.83 25.313 25.313 0 00-3.73 5.65 43.591 43.591 0 00-3.8 15.06 45.278 45.278 0 000 8.07 37.383 37.383 0 001.58 7.35 67.084 67.084 0 005.32 11.6l4.21 7.56 1.1 2.08c.129.249.243.507.34.77z" fill="#263238"/>
  <path opacity=".3" d="M102.29 241.61c-1.45 10.16 5.91 16.9 14.36 22.72A121.474 121.474 0 00144.77 279l.13-9.32s-12.37-5.1-23.68-10.87c-6.15-3.14-13.19-6.51-15.22-10.13l-3.71-7.07z" fill="#000"/>
  <path d="M35.35 382.7a2.286 2.286 0 01-.08-.44c0-.31-.11-.74-.19-1.28-.16-1.16-.38-2.82-.67-5-.57-4.3-1.35-10.52-2.26-18.22-1.83-15.4-4.09-36.71-6-60.29-1.91-23.58-3.12-45-3.81-60.48-.34-7.74-.58-14-.71-18.35-.06-2.14-.1-3.82-.14-5v-1.3a2.992 2.992 0 010-.44c.01.146.01.294 0 .44 0 .32 0 .75.08 1.3 0 1.17.13 2.84.24 5 .2 4.35.5 10.61.87 18.34.78 15.48 2 36.86 4 60.45 2 23.59 4.12 44.88 5.85 60.28.89 7.69 1.6 13.91 2.1 18.24.25 2.14.44 3.8.57 5 .06.55.11 1 .14 1.3.017.149.02.3.01.45z" fill="#fff"/>
  <path opacity=".3" d="M55.26 382.7c-.15 0-4.13-41.8-8.91-93.37-4.78-51.57-8.53-93.42-8.38-93.43.15-.01 4.13 41.79 8.9 93.38 4.77 51.59 8.53 93.41 8.39 93.42z" fill="#fff"/>
  <path d="M75.59 382.39c-.15 0-3.05-44.37-6.48-99.1-3.43-54.73-6.11-99.13-6-99.14.11-.01 3 44.36 6.48 99.11 3.48 54.75 6.14 99.12 6 99.13z" fill="#fff"/>
  <path opacity=".3" d="M96.1 382.7v-.52c0-.34-.05-.86-.09-1.5-.06-1.36-.16-3.31-.28-5.81-.25-5.07-.62-12.36-1.07-21.35-.94-18-2.46-42.93-3.79-70.44-.65-13.77-1.14-26.89-1.46-38.82-.12-6-.27-11.64-.3-16.95 0-2.65-.05-5.22-.07-7.68-.02-2.46 0-4.83 0-7.09 0-4.51.09-8.59.15-12.18 0-1.79.07-3.46.09-5 .02-1.54.11-2.93.15-4.2.1-2.5.18-4.45.23-5.81 0-.64 0-1.14.07-1.51.07-.37 0-.51 0-.51.01.173.01.347 0 .52v1.51c0 1.35-.07 3.3-.12 5.81 0 1.26-.07 2.66-.11 4.2-.04 1.54 0 3.2-.05 5 0 3.59-.1 7.67-.07 12.18v7.09c0 2.47.06 5 .1 7.68 0 5.3.21 11 .35 16.94.35 11.93.85 25 1.5 38.8 1.42 27.5 2.71 52.4 3.64 70.45.43 9 .74 16.31.9 21.36.08 2.51.15 4.46.19 5.81v1.51c0 .36.04.51.04.51z" fill="#fff"/>
  <path d="M112.92 382.39v-.33c0-.22 0-.57-.08-1-.07-.89-.16-2.14-.27-3.73-.23-3.25-.51-7.94-.82-13.74-.62-11.61-1.28-27.65-1.6-45.38-.32-17.73-.22-33.79 0-45.41.11-5.81.22-10.51.33-13.76.06-1.6.11-2.85.14-3.74 0-.4 0-.72.05-1a1.401 1.401 0 010-.33c.015.109.015.221 0 .33v4.75c0 3.28-.1 8-.17 13.75-.12 11.62-.15 27.67.16 45.4.31 17.73.92 33.76 1.45 45.37.27 5.78.49 10.47.65 13.74.07 1.6.13 2.85.17 3.74v1c.015.113.011.228-.01.34z" fill="#fff"/>
  <path opacity=".3" d="M131.59 382.39a1.67 1.67 0 010-.3v-4.24c0-3 .06-7.17.1-12.37.06-10.44 0-24.87-.47-40.8-.47-15.93-1.25-30.35-1.92-40.77-.34-5.18-.63-9.39-.82-12.34-.1-1.43-.17-2.55-.22-3.36v-.87c-.011-.1-.011-.2 0-.3.025.095.041.192.05.29 0 .23 0 .51.09.87.08.81.19 1.93.32 3.35.27 2.91.61 7.12 1 12.34.76 10.42 1.6 24.83 2.07 40.77.47 15.94.47 30.38.32 40.82-.08 5.23-.17 9.45-.27 12.37 0 1.44-.09 2.56-.12 3.37v.87a1.376 1.376 0 01-.13.3z" fill="#fff"/>
  <path d="M215.56 291l-.29-.08-.86-.28-3.29-1.12c-2.85-1-7-2.44-12-4.3-10.12-3.72-24-9.12-39.14-15.57-15.14-6.45-28.71-12.65-38.46-17.27-4.87-2.31-8.81-4.19-11.51-5.52l-3.12-1.54-.8-.41-.27-.15c.1.023.197.056.29.1l.83.37 3.15 1.45 11.59 5.32c9.78 4.52 23.34 10.69 38.47 17.15 15.13 6.46 29 11.9 39.07 15.71l12 4.45 3.25 1.21.84.33c.16.15.26.15.25.15z" fill="#fff"/>
  <path opacity=".3" d="M248.79 253.84l-.3.3-.92.86c-.81.74-2 1.81-3.64 3.15a110.441 110.441 0 01-14.46 10.26c-.82.46-1.64 1-2.52 1.39-.88.39-1.77.91-2.72 1.3a27.55 27.55 0 01-6.07 2l-1.67.24h-1.73c-1.14-.08-2.29-.25-3.45-.43a71.174 71.174 0 01-7.09-1.53 137.817 137.817 0 01-14.68-5.08c-5-2-10.15-4.13-15.44-6.27l-54.1-22.2-16.37-6.78-4.44-1.87-1.15-.5a2.016 2.016 0 01-.39-.19l.41.14 1.16.45 4.48 1.78 16.44 6.63 54.15 22.05c5.29 2.15 10.43 4.3 15.44 6.29a138.762 138.762 0 0014.62 5.08 67.498 67.498 0 007 1.55c2.199.5 4.473.574 6.7.22a27.81 27.81 0 006-1.94c.94-.39 1.83-.84 2.7-1.28.87-.44 1.7-.91 2.52-1.37A116.692 116.692 0 00243.8 258c1.62-1.32 2.86-2.37 3.7-3.08l.95-.82c.104-.099.218-.186.34-.26z" fill="#fff"/>
  <path d="M202 256.21a1.1 1.1 0 01-.29-.06l-.86-.23-3.26-.91c-1.42-.4-3.15-.9-5.15-1.55-2-.65-4.27-1.32-6.76-2.2l-3.91-1.34-4.21-1.54c-2.92-1.05-6-2.3-9.22-3.57-6.45-2.65-13.46-5.74-20.7-9.26-7.24-3.52-14-7.19-20-10.65-3-1.78-5.86-3.43-8.48-5.09l-3.8-2.38c-1.21-.78-2.36-1.54-3.46-2.26-2.22-1.42-4.17-2.8-5.89-4-1.72-1.2-3.19-2.23-4.38-3.11l-2.72-2-.71-.54-.22-.19c.093.039.18.089.26.15l.73.49 2.78 1.94c1.2.85 2.68 1.88 4.42 3 1.74 1.12 3.7 2.52 5.93 3.92l3.47 2.24 3.82 2.34c2.62 1.65 5.49 3.28 8.49 5 6.05 3.44 12.8 7.06 20 10.61 7.2 3.55 14.22 6.61 20.65 9.27 3.23 1.29 6.28 2.55 9.19 3.61l4.2 1.57 3.89 1.37c2.48.9 4.75 1.62 6.73 2.28 1.98.66 3.7 1.2 5.11 1.62l3.24 1 .84.28a1 1 0 01.27.19z" fill="#fff"/>
  <path opacity=".3" d="M202.13 247.75c-.08.12-20.73-12.63-46.12-28.48-25.39-15.85-45.92-28.79-45.84-28.92.08-.13 20.72 12.63 46.12 28.48s45.92 28.79 45.84 28.92z" fill="#fff"/>
  <path d="M209.6 252.75a16.744 16.744 0 00-4.18.42 17.004 17.004 0 00-3.74 1.91s.24-.45.85-1a7.89 7.89 0 012.75-1.44 7.743 7.743 0 013.09-.28c.79.13 1.25.33 1.23.39zm22.11-15.56a3.987 3.987 0 01-.81.63c-.52.4-1.28 1-2.2 1.71l-7.16 5.82c-2.79 2.27-5.35 4.3-7.26 5.7-.95.7-1.75 1.24-2.31 1.59-.287.196-.6.351-.93.46a5.04 5.04 0 01.81-.63c.53-.4 1.29-1 2.21-1.71l7.16-5.82c2.79-2.27 5.35-4.3 7.26-5.7.95-.7 1.75-1.24 2.31-1.59a4.02 4.02 0 01.92-.46zm-20.89 5.99a8.722 8.722 0 01-1.28-.47 6.999 6.999 0 00-6.11.85c-.68.46-1 .85-1.1.8-.1-.05.21-.52.88-1.1a6.305 6.305 0 016.46-.9c.8.37 1.18.77 1.15.82zM13 231.71a.865.865 0 010 .26c0 .21 0 .46-.06.77-.06.7-.16 1.68-.27 2.92-.26 2.54-.59 6.22-1 10.76A484.24 484.24 0 0010 282c-.13 13.9.38 26.52 1 35.62.28 4.56.54 8.24.75 10.78.09 1.24.16 2.22.21 2.93v.76a.94.94 0 010 .27 1.43 1.43 0 010-.26c0-.2 0-.45-.09-.76-.08-.71-.18-1.68-.31-2.92-.27-2.54-.59-6.22-.92-10.77-.66-9.11-1.24-21.72-1.1-35.65.14-13.93 1-26.53 1.81-35.62.43-4.54.82-8.22 1.14-10.75.15-1.24.28-2.21.37-2.92 0-.3.08-.55.11-.75a.819.819 0 01.03-.25z" fill="#fff"/>
  <path d="M202 258.89a11.92 11.92 0 01-.53-2.8 36.302 36.302 0 011.14-13.66c.22-.932.556-1.832 1-2.68a25.948 25.948 0 01-.62 2.77 48.303 48.303 0 00-1.07 6.72 48.98 48.98 0 00-.06 6.81c.105.943.152 1.891.14 2.84zm44.06 15.84a1.882 1.882 0 01-.18-.45l-.43-1.32c-.18-.57-.41-1.27-.72-2.07-.31-.8-.62-1.72-1.07-2.69l-.68-1.55-.81-1.64c-.53-1.14-1.23-2.3-1.92-3.54a70.685 70.685 0 00-5.27-7.59 76.442 76.442 0 00-6.26-6.79c-2.07-1.95-4-3.62-5.72-4.93-.83-.68-1.63-1.24-2.32-1.74s-1.29-.94-1.8-1.27l-1.14-.79a2.405 2.405 0 01-.38-.31c.155.055.303.129.44.22l1.2.71c.52.31 1.14.7 1.84 1.2.7.5 1.53 1 2.38 1.69a65.975 65.975 0 015.83 4.87 71.993 71.993 0 016.34 6.82 66.296 66.296 0 015.27 7.66c.69 1.26 1.38 2.44 1.9 3.6.27.58.55 1.12.79 1.66.24.54.44 1.07.65 1.58.43 1 .72 1.92 1 2.74.252.691.465 1.396.64 2.11.14.53.25 1 .34 1.35.051.151.078.31.08.47z" fill="#263238"/>
  <path opacity=".3" d="M215 255.59a24.207 24.207 0 00-1.12-4.41 33.167 33.167 0 01-1.2-10.39 22.16 22.16 0 00.69 18.83 4.282 4.282 0 001.63-4.03zM21.37 237.38a140.385 140.385 0 0022.17-2.92 33.888 33.888 0 00-1.24 9.92 22.85 22.85 0 004.93-9.07 13.693 13.693 0 005.59 9.17c.74-3.314.91-6.729.5-10.1a380.793 380.793 0 0032.87-5.44 223.012 223.012 0 00-65.26 8.12" fill="#000"/>
  <path d="M63.05 181.17a16.07 16.07 0 01-.59-5.11A16.377 16.377 0 0163 171c.16 0 0 2.29 0 5.1 0 2.81.2 5.05.05 5.07z" fill="#fff"/>
  <path opacity=".3" d="M83.21 181.14a41.717 41.717 0 01-.34-6.57c-.133-2.19-.09-4.387.13-6.57a42.32 42.32 0 01.35 6.57c.133 2.19.086 4.388-.14 6.57z" fill="#fff"/>
  <path d="M101 183.9c-.16 0 .21-2.48.2-5.51-.01-3.03-.37-5.49-.22-5.52a21.196 21.196 0 010 11l.02.03z" fill="#fff"/>
  <path d="M251.79 163.41a22.474 22.474 0 00-2.68 3.1 24.733 24.733 0 00-1.63 3.75 7.764 7.764 0 014.31-6.85zm7.29 4.1a24.414 24.414 0 00-2.61 2.77 25.438 25.438 0 00-1.73 3.4 7.21 7.21 0 014.34-6.17zm5.84 3.49c.1.12-1 1.12-2.09 2.63-1.09 1.51-1.6 2.92-1.75 2.87a8.13 8.13 0 013.84-5.5zm-21.52 1.31a8.226 8.226 0 00-2.54-.44 8.61 8.61 0 00-2.46.78c0-.05.12-.33.54-.64a3.783 3.783 0 011.88-.66 3.669 3.669 0 012 .4c.42.25.62.51.58.56zm9.14 5.69a10.093 10.093 0 00-1.89-2.26 10.5 10.5 0 00-2.68-1.23c0-.06.35-.14.93-.07a4.542 4.542 0 013.46 2.64c.23.56.24.92.18.92zm9.08 2a12.016 12.016 0 00-2.82-1.47 11.347 11.347 0 00-3.17-.15c0-.06.3-.27.9-.41a4.936 4.936 0 012.4.06 4.997 4.997 0 012.11 1.16c.45.38.63.73.58.81z" fill="#664D49"/>
</svg>
